<svg width="589" height="588" viewBox="0 0 589 588" fill="none" xmlns="http://www.w3.org/2000/svg">
<g id="490542-PHBWI9-386">
<g id="OBJECTS">
<g id="Vector">
<path id="Vector_2" d="M550.872 395.652V384.785H541.77C541.121 381.745 539.926 378.848 538.242 376.236L544.674 369.803L536.995 362.124L530.562 368.556C527.95 366.872 525.053 365.677 522.013 365.028V355.926H511.158V365.028C508.118 365.675 505.22 366.87 502.609 368.556L496.164 362.124L488.485 369.803L494.93 376.236C493.241 378.846 492.045 381.744 491.402 384.785H482.299V395.652H491.402C492.045 398.693 493.241 401.591 494.93 404.201L488.485 410.634L496.164 418.313L502.609 411.869C505.218 413.559 508.116 414.755 511.158 415.397V424.499H522.013V415.397C525.054 414.753 527.952 413.557 530.562 411.869L536.995 418.313L544.674 410.634L538.242 404.201C539.926 401.588 541.121 398.692 541.77 395.652H550.872ZM516.58 403.143C514.021 403.143 511.52 402.384 509.393 400.963C507.266 399.541 505.607 397.521 504.628 395.157C503.649 392.793 503.393 390.192 503.892 387.683C504.391 385.174 505.623 382.869 507.433 381.06C509.242 379.25 511.547 378.018 514.056 377.519C516.565 377.02 519.166 377.276 521.53 378.255C523.894 379.234 525.914 380.892 527.336 383.02C528.757 385.147 529.516 387.648 529.516 390.207C529.516 393.638 528.153 396.928 525.727 399.354C523.301 401.78 520.011 403.143 516.58 403.143Z" stroke="#2F327D" stroke-width="1.176" stroke-miterlimit="10"/>
</g>
<g id="Component 1">
<path id="Vector_3" d="M300.486 134.283V121.758H289.996C289.245 118.253 287.862 114.913 285.916 111.903L293.336 104.483L284.481 95.6274L277.06 103.048C274.051 101.097 270.711 99.7106 267.205 98.9555V88.4773H254.681V98.9672C251.175 99.7224 247.836 101.109 244.826 103.06L237.406 95.6391L228.515 104.494L235.936 111.915C234.002 114.924 232.632 118.259 231.89 121.758H221.459V134.271H231.949C232.7 137.78 234.083 141.123 236.03 144.137L228.609 151.546L237.464 160.401L244.885 152.981C247.894 154.932 251.234 156.318 254.74 157.073V167.622H267.205V157.038C270.711 156.283 274.051 154.896 277.06 152.946L284.481 160.366L293.336 151.511L285.916 144.102C287.863 141.088 289.245 137.745 289.996 134.235L300.486 134.283ZM260.949 142.926C258.009 142.928 255.134 142.059 252.688 140.427C250.241 138.795 248.334 136.474 247.208 133.758C246.081 131.042 245.785 128.053 246.357 125.169C246.929 122.284 248.344 119.635 250.422 117.555C252.501 115.475 255.149 114.058 258.033 113.483C260.917 112.909 263.906 113.202 266.623 114.327C269.34 115.452 271.662 117.357 273.296 119.802C274.93 122.247 275.802 125.121 275.802 128.061C275.802 132.002 274.237 135.781 271.452 138.568C268.667 141.356 264.889 142.923 260.949 142.926Z" fill="#2F327D"/>
<path id="Vector_4" d="M353.5 110.08V102.036H346.773C346.286 99.7871 345.398 97.644 344.151 95.7095L348.913 91.0055L343.222 85.3019L338.459 90.0059C336.524 88.7591 334.381 87.8707 332.132 87.3835V80.6567H324.088V87.3952C321.84 87.881 319.698 88.7652 317.761 90.0059L312.998 85.3019L307.307 90.9467L312.081 95.6507C310.826 97.582 309.933 99.7261 309.447 101.978H302.72V110.021H309.447C309.935 112.272 310.828 114.416 312.081 116.348L307.307 121.052L312.998 126.732L317.761 122.028C319.692 123.282 321.836 124.171 324.088 124.651V131.389H332.132V124.71C334.384 124.233 336.529 123.344 338.459 122.087L343.222 126.791L348.913 121.111L344.151 116.407C345.396 114.472 346.284 112.329 346.773 110.08H353.5ZM328.11 115.596C326.221 115.596 324.374 115.035 322.804 113.986C321.233 112.936 320.009 111.444 319.287 109.698C318.564 107.953 318.376 106.032 318.745 104.179C319.115 102.327 320.025 100.625 321.362 99.2902C322.699 97.9552 324.401 97.0466 326.254 96.6795C328.107 96.3124 330.028 96.5032 331.772 97.2277C333.517 97.9523 335.008 99.178 336.056 100.75C337.103 102.322 337.661 104.169 337.659 106.058C337.659 107.312 337.412 108.553 336.932 109.711C336.452 110.869 335.748 111.921 334.862 112.806C333.975 113.692 332.922 114.394 331.763 114.873C330.605 115.352 329.364 115.597 328.11 115.596V115.596Z" stroke="#2F327D" stroke-width="1.176" stroke-miterlimit="10"/>
</g>
<g id="Vector_5">
<path id="Vector_6" d="M134.638 383.072V372.206H125.536C124.887 369.166 123.692 366.269 122.008 363.656L128.44 357.224L120.761 349.544L114.328 355.977C111.716 354.293 108.819 353.097 105.779 352.449V343.347H94.9245V352.449C91.8838 353.095 88.9865 354.291 86.3749 355.977L79.9305 349.544L72.2512 357.224L78.6957 363.656C77.0071 366.267 75.8113 369.164 75.1677 372.206H66.0654V383.072H75.1677C75.8113 386.114 77.0071 389.011 78.6957 391.622L72.2512 398.054L79.9305 405.734L86.3749 399.289C88.9842 400.98 91.8824 402.176 94.9245 402.817V411.919H105.779V402.817C108.82 402.173 111.718 400.978 114.328 399.289L120.761 405.734L128.44 398.054L122.008 391.622C123.692 389.009 124.887 386.112 125.536 383.072H134.638ZM100.346 390.563C97.7873 390.563 95.2863 389.805 93.159 388.383C91.0317 386.962 89.3736 384.941 88.3945 382.578C87.4154 380.214 87.1592 377.613 87.6584 375.104C88.1575 372.594 89.3896 370.289 91.1987 368.48C93.0078 366.671 95.3128 365.439 97.8221 364.94C100.331 364.441 102.932 364.697 105.296 365.676C107.66 366.655 109.68 368.313 111.102 370.44C112.523 372.568 113.282 375.069 113.282 377.627C113.282 381.058 111.919 384.348 109.493 386.774C107.067 389.2 103.777 390.563 100.346 390.563Z" fill="#2F327D"/>
</g>
<g id="Vector_7">
<path id="Vector_8" d="M423.227 486.668V475.802H414.125C413.477 472.762 412.281 469.865 410.597 467.252L417.03 460.82L409.351 453.14L402.918 459.573C400.305 457.889 397.408 456.694 394.368 456.045V446.943H383.514V456.045C380.473 456.691 377.576 457.887 374.964 459.573L368.52 453.14L360.841 460.82L367.285 467.252C365.596 469.863 364.401 472.76 363.757 475.802H354.655V486.668H363.757C364.401 489.71 365.596 492.607 367.285 495.218L360.841 501.65L368.52 509.33L374.964 502.885C377.574 504.576 380.472 505.772 383.514 506.413V515.515H394.368V506.413C397.41 505.77 400.308 504.574 402.918 502.885L409.351 509.33L417.03 501.65L410.597 495.218C412.281 492.605 413.477 489.708 414.125 486.668H423.227ZM388.935 494.159C386.377 494.159 383.876 493.401 381.748 491.979C379.621 490.558 377.963 488.537 376.984 486.174C376.005 483.81 375.749 481.209 376.248 478.7C376.747 476.19 377.979 473.885 379.788 472.076C381.597 470.267 383.902 469.035 386.411 468.536C388.921 468.037 391.522 468.293 393.886 469.272C396.249 470.251 398.27 471.909 399.691 474.036C401.113 476.164 401.871 478.665 401.871 481.223C401.871 484.654 400.508 487.944 398.082 490.37C395.656 492.796 392.366 494.159 388.935 494.159Z" stroke="#2F327D" stroke-width="1.176" stroke-miterlimit="10"/>
</g>
<path id="Vector_9" d="M185.21 299.045H57.7783C54.1229 299.045 50.6172 297.593 48.0325 295.008C45.4477 292.423 43.9956 288.918 43.9956 285.262C43.9956 281.606 45.4473 278.099 48.0318 275.512C50.6162 272.926 54.1218 271.471 57.7783 271.468H185.21C188.868 271.468 192.377 272.921 194.964 275.508C197.551 278.095 199.004 281.604 199.004 285.262C199.001 288.919 197.546 292.424 194.96 295.009C192.373 297.593 188.866 299.045 185.21 299.045Z" fill="#6E64C4"/>
<path id="Vector_10" d="M223.852 326.61H96.4092C94.5982 326.61 92.805 326.254 91.1321 325.56C89.4591 324.867 87.9392 323.85 86.6592 322.569C85.3792 321.288 84.3642 319.768 83.6722 318.094C82.9803 316.42 82.6249 314.627 82.6265 312.816C82.6265 309.161 84.0786 305.655 86.6633 303.07C89.2481 300.485 92.7538 299.033 96.4092 299.033H223.852C227.508 299.033 231.013 300.485 233.598 303.07C236.183 305.655 237.635 309.161 237.635 312.816C237.637 314.627 237.281 316.42 236.589 318.094C235.897 319.768 234.882 321.288 233.602 322.569C232.322 323.85 230.802 324.867 229.129 325.56C227.456 326.254 225.663 326.61 223.852 326.61Z" fill="#6E64C4"/>
<path id="Vector_11" d="M480.127 137.192H352.684C345.072 137.192 338.901 143.363 338.901 150.975C338.901 158.587 345.072 164.758 352.684 164.758H480.127C487.739 164.758 493.909 158.587 493.909 150.975C493.909 143.363 487.739 137.192 480.127 137.192Z" fill="#6E64C4"/>
<path id="Vector_12" d="M518.759 164.758H391.316C383.704 164.758 377.533 170.928 377.533 178.54C377.533 186.152 383.704 192.323 391.316 192.323H518.759C526.371 192.323 532.542 186.152 532.542 178.54C532.542 170.928 526.371 164.758 518.759 164.758Z" fill="#6E64C4"/>
<g id="Group 39322">
<g id="Group" style="mix-blend-mode:multiply" opacity="0.29">
<g id="Vector_13" style="mix-blend-mode:multiply" opacity="0.29">
<path d="M256.746 119.846H103.078V273.514H256.746V119.846Z" fill="#565656"/>
</g>
<g id="Vector_14" style="mix-blend-mode:multiply" opacity="0.29">
<path d="M256.746 119.305H103.078V132.453H256.746V119.305Z" fill="#565656"/>
</g>
<g id="Vector_15" style="mix-blend-mode:multiply" opacity="0.29">
<path d="M243.633 122.575L251.359 130.548" stroke="#565656" stroke-width="1.176" stroke-linecap="round" stroke-linejoin="round"/>
</g>
<g id="Vector_16" style="mix-blend-mode:multiply" opacity="0.29">
<path d="M251.478 122.692L243.516 130.43" stroke="#565656" stroke-width="1.176" stroke-linecap="round" stroke-linejoin="round"/>
</g>
<g id="Vector_17" style="mix-blend-mode:multiply" opacity="0.29">
<path d="M179.906 200.72C193.266 200.72 204.096 189.89 204.096 176.53C204.096 163.17 193.266 152.339 179.906 152.339C166.546 152.339 155.715 163.17 155.715 176.53C155.715 189.89 166.546 200.72 179.906 200.72Z" fill="#565656"/>
</g>
<g id="Vector_18" style="mix-blend-mode:multiply" opacity="0.29">
<path d="M164.16 162.864V186.808H195.794L196.253 162.864C196.253 162.864 194.712 148.435 180.236 148.435C165.759 148.435 164.16 162.864 164.16 162.864Z" fill="#565656"/>
</g>
<g id="Vector_19" style="mix-blend-mode:multiply" opacity="0.29">
<path d="M184.328 179.575H175.602V188.301H184.328V179.575Z" fill="#565656"/>
</g>
<g id="Vector_20" style="mix-blend-mode:multiply" opacity="0.29">
<path d="M179.353 185.502H172.72V189.583H179.353V185.502Z" fill="#565656"/>
</g>
<g id="Vector_21" style="mix-blend-mode:multiply" opacity="0.29">
<path d="M187.691 185.502H181.058V189.583H187.691V185.502Z" fill="#565656"/>
</g>
<g id="Vector_22" style="mix-blend-mode:multiply" opacity="0.29">
<path d="M195.477 203.036H164.466V195.698C164.464 194.666 164.666 193.643 165.06 192.688C165.455 191.734 166.033 190.867 166.763 190.136C167.492 189.405 168.359 188.825 169.313 188.43C170.266 188.034 171.289 187.831 172.322 187.831H187.61C188.642 187.831 189.665 188.034 190.618 188.43C191.572 188.825 192.439 189.405 193.168 190.136C193.898 190.867 194.476 191.734 194.871 192.688C195.265 193.643 195.467 194.666 195.465 195.698L195.477 203.036Z" fill="#565656"/>
</g>
<g id="Vector_23" style="mix-blend-mode:multiply" opacity="0.29">
<path d="M173.673 168.086C173.673 169.125 173.365 170.142 172.787 171.006C172.21 171.871 171.389 172.545 170.428 172.942C169.468 173.34 168.411 173.444 167.391 173.242C166.371 173.039 165.434 172.538 164.699 171.803C163.964 171.068 163.464 170.131 163.261 169.111C163.058 168.092 163.162 167.035 163.56 166.074C163.958 165.114 164.631 164.293 165.496 163.715C166.36 163.137 167.377 162.829 168.416 162.829C169.811 162.829 171.148 163.383 172.133 164.369C173.119 165.355 173.673 166.692 173.673 168.086Z" fill="#565656"/>
</g>
<g id="Vector_24" style="mix-blend-mode:multiply" opacity="0.29">
<path d="M196.652 167.627C196.652 168.667 196.344 169.683 195.766 170.548C195.189 171.412 194.368 172.086 193.407 172.484C192.447 172.882 191.39 172.986 190.37 172.783C189.35 172.58 188.413 172.079 187.678 171.344C186.943 170.609 186.443 169.672 186.24 168.653C186.037 167.633 186.141 166.576 186.539 165.616C186.937 164.655 187.61 163.834 188.475 163.256C189.339 162.679 190.356 162.37 191.395 162.37C192.79 162.37 194.127 162.924 195.112 163.91C196.098 164.896 196.652 166.233 196.652 167.627Z" fill="#565656"/>
</g>
<g id="Vector_25" style="mix-blend-mode:multiply" opacity="0.29">
<path d="M180.353 150.951H180.259C173.42 150.951 167.875 156.496 167.875 163.335V171.59C167.875 178.429 173.42 183.973 180.259 183.973H180.353C187.192 183.973 192.736 178.429 192.736 171.59V163.335C192.736 156.496 187.192 150.951 180.353 150.951Z" fill="#565656"/>
</g>
<g id="Vector_26" style="mix-blend-mode:multiply" opacity="0.29">
<path d="M174.379 169.426C174.379 169.557 174.34 169.684 174.268 169.792C174.195 169.901 174.092 169.985 173.972 170.035C173.852 170.085 173.719 170.098 173.592 170.072C173.464 170.047 173.347 169.984 173.254 169.892C173.162 169.8 173.1 169.683 173.074 169.555C173.049 169.427 173.062 169.295 173.112 169.174C173.162 169.054 173.246 168.951 173.354 168.879C173.463 168.806 173.59 168.768 173.72 168.768C173.895 168.768 174.062 168.837 174.186 168.961C174.309 169.084 174.379 169.252 174.379 169.426Z" fill="#565656"/>
</g>
<g id="Vector_27" style="mix-blend-mode:multiply" opacity="0.29">
<path d="M187.185 169.426C187.187 169.514 187.171 169.601 187.138 169.682C187.106 169.763 187.058 169.837 186.996 169.9C186.935 169.962 186.862 170.012 186.781 170.045C186.701 170.079 186.614 170.097 186.526 170.097C186.432 170.109 186.336 170.102 186.244 170.074C186.153 170.046 186.068 170 185.996 169.937C185.924 169.874 185.867 169.796 185.827 169.709C185.788 169.622 185.768 169.528 185.768 169.432C185.768 169.337 185.788 169.242 185.827 169.155C185.867 169.068 185.924 168.991 185.996 168.928C186.068 168.865 186.153 168.818 186.244 168.791C186.336 168.763 186.432 168.755 186.526 168.768C186.701 168.768 186.869 168.837 186.992 168.961C187.116 169.084 187.185 169.252 187.185 169.426Z" fill="#565656"/>
</g>
<g id="Vector_28" style="mix-blend-mode:multiply" opacity="0.29">
<path d="M174.626 172.343C174.626 172.68 174.526 173.01 174.339 173.29C174.151 173.571 173.885 173.789 173.574 173.918C173.262 174.047 172.919 174.081 172.588 174.015C172.258 173.95 171.954 173.787 171.715 173.549C171.477 173.31 171.314 173.006 171.249 172.676C171.183 172.345 171.217 172.002 171.346 171.69C171.475 171.379 171.693 171.112 171.974 170.925C172.254 170.738 172.584 170.638 172.921 170.638C173.373 170.638 173.807 170.817 174.127 171.137C174.447 171.457 174.626 171.891 174.626 172.343Z" fill="#565656"/>
</g>
<g id="Vector_29" style="mix-blend-mode:multiply" opacity="0.29">
<path d="M189.537 172.343C189.535 172.677 189.434 173.004 189.246 173.28C189.059 173.557 188.793 173.773 188.484 173.899C188.174 174.025 187.834 174.057 187.506 173.991C187.179 173.924 186.878 173.762 186.642 173.524C186.407 173.287 186.246 172.985 186.182 172.657C186.118 172.329 186.152 171.989 186.28 171.68C186.409 171.372 186.626 171.108 186.904 170.922C187.182 170.737 187.509 170.638 187.844 170.638C188.294 170.641 188.725 170.822 189.042 171.141C189.359 171.461 189.537 171.893 189.537 172.343Z" fill="#565656"/>
</g>
<g id="Vector_30" style="mix-blend-mode:multiply" opacity="0.29">
<path d="M176.978 173.542H183.763C183.763 173.542 180.247 178.011 176.978 173.542Z" fill="#565656"/>
</g>
<g id="Vector_31" style="mix-blend-mode:multiply" opacity="0.29">
<path d="M225.876 222.452H133.949C132.414 222.452 130.942 221.843 129.857 220.758C128.772 219.672 128.163 218.201 128.163 216.666V216.666C128.163 215.907 128.312 215.155 128.603 214.454C128.894 213.753 129.321 213.115 129.858 212.579C130.395 212.043 131.033 211.618 131.735 211.328C132.437 211.039 133.189 210.891 133.949 210.892H225.876C227.409 210.892 228.879 211.5 229.964 212.583C231.048 213.665 231.659 215.134 231.662 216.666V216.666C231.662 218.201 231.053 219.672 229.968 220.758C228.883 221.843 227.411 222.452 225.876 222.452V222.452Z" stroke="#565656" stroke-width="1.176" stroke-miterlimit="10"/>
</g>
<g id="Vector_32" style="mix-blend-mode:multiply" opacity="0.29">
<path d="M225.876 239.716H133.949C132.414 239.716 130.942 239.106 129.857 238.021C128.772 236.936 128.163 235.464 128.163 233.93V233.93C128.163 232.395 128.772 230.924 129.857 229.839C130.942 228.754 132.414 228.144 133.949 228.144H225.876C227.411 228.144 228.883 228.754 229.968 229.839C231.053 230.924 231.662 232.395 231.662 233.93V233.93C231.659 235.464 231.049 236.933 229.964 238.018C228.88 239.102 227.41 239.713 225.876 239.716V239.716Z" stroke="#565656" stroke-width="1.176" stroke-miterlimit="10"/>
</g>
<g id="Vector_33" style="mix-blend-mode:multiply" opacity="0.29">
<path d="M203.085 262.848H168.499C166.964 262.848 165.493 262.238 164.408 261.153C163.322 260.068 162.713 258.596 162.713 257.062C162.713 256.303 162.863 255.551 163.154 254.85C163.444 254.148 163.871 253.511 164.408 252.975C164.946 252.438 165.584 252.013 166.286 251.724C166.987 251.434 167.74 251.286 168.499 251.288H203.085C204.617 251.288 206.087 251.896 207.172 252.978C208.257 254.061 208.868 255.529 208.871 257.062C208.871 258.596 208.261 260.068 207.176 261.153C206.091 262.238 204.619 262.848 203.085 262.848Z" fill="#565656"/>
</g>
<g id="Vector_34" style="mix-blend-mode:multiply" opacity="0.29">
<path d="M197.205 256.968H162.619C161.084 256.968 159.613 256.358 158.528 255.273C157.443 254.188 156.833 252.716 156.833 251.182C156.833 250.423 156.983 249.671 157.274 248.969C157.565 248.268 157.991 247.631 158.528 247.095C159.066 246.558 159.704 246.133 160.406 245.844C161.108 245.554 161.86 245.406 162.619 245.408H197.205C198.738 245.408 200.207 246.016 201.292 247.098C202.377 248.181 202.988 249.649 202.991 251.182C202.991 252.716 202.381 254.188 201.296 255.273C200.211 256.358 198.74 256.968 197.205 256.968Z" fill="#565656"/>
</g>
<g id="AME" style="mix-blend-mode:multiply" opacity="0.29">
<path d="M186.901 218.656H186.479L187.698 215.337H188.113L189.331 218.656H188.91L187.918 215.862H187.892L186.901 218.656ZM187.056 217.36H188.754V217.716H187.056V217.36ZM189.848 215.337H190.328L191.456 218.092H191.494L192.622 215.337H193.102V218.656H192.726V216.135H192.693L191.656 218.656H191.293L190.256 216.135H190.224V218.656H189.848V215.337ZM193.908 218.656V215.337H195.91V215.694H194.309V216.815H195.807V217.172H194.309V218.299H195.936V218.656H193.908Z" fill="#565656"/>
</g>
<g id="OGIN" style="mix-blend-mode:multiply" opacity="0.29">
<path d="M179.684 250.652C179.684 251.126 179.599 251.536 179.427 251.882C179.256 252.228 179.021 252.494 178.722 252.682C178.423 252.869 178.082 252.963 177.699 252.963C177.315 252.963 176.974 252.869 176.675 252.682C176.376 252.494 176.141 252.228 175.97 251.882C175.798 251.536 175.713 251.126 175.713 250.652C175.713 250.177 175.798 249.767 175.97 249.422C176.141 249.076 176.376 248.81 176.675 248.622C176.974 248.435 177.315 248.341 177.699 248.341C178.082 248.341 178.423 248.435 178.722 248.622C179.021 248.81 179.256 249.076 179.427 249.422C179.599 249.767 179.684 250.177 179.684 250.652ZM179.157 250.652C179.157 250.262 179.092 249.934 178.962 249.666C178.833 249.398 178.658 249.195 178.437 249.057C178.217 248.919 177.971 248.851 177.699 248.851C177.426 248.851 177.179 248.919 176.958 249.057C176.739 249.195 176.564 249.398 176.433 249.666C176.304 249.934 176.24 250.262 176.24 250.652C176.24 251.041 176.304 251.37 176.433 251.638C176.564 251.906 176.739 252.109 176.958 252.247C177.179 252.384 177.426 252.453 177.699 252.453C177.971 252.453 178.217 252.384 178.437 252.247C178.658 252.109 178.833 251.906 178.962 251.638C179.092 251.37 179.157 251.041 179.157 250.652ZM183.676 249.808C183.627 249.66 183.564 249.528 183.485 249.411C183.407 249.292 183.314 249.191 183.206 249.108C183.099 249.024 182.977 248.96 182.841 248.917C182.705 248.873 182.555 248.851 182.393 248.851C182.126 248.851 181.884 248.919 181.666 249.057C181.448 249.195 181.274 249.398 181.145 249.666C181.016 249.934 180.952 250.262 180.952 250.652C180.952 251.041 181.017 251.37 181.147 251.638C181.278 251.906 181.454 252.109 181.677 252.247C181.899 252.384 182.15 252.453 182.428 252.453C182.686 252.453 182.913 252.398 183.109 252.288C183.307 252.177 183.46 252.02 183.57 251.818C183.681 251.615 183.737 251.375 183.737 251.1L183.904 251.135H182.551V250.652H184.264V251.135C184.264 251.506 184.185 251.828 184.027 252.102C183.87 252.376 183.654 252.588 183.377 252.739C183.102 252.888 182.785 252.963 182.428 252.963C182.03 252.963 181.68 252.869 181.378 252.682C181.078 252.494 180.843 252.228 180.675 251.882C180.508 251.536 180.425 251.126 180.425 250.652C180.425 250.296 180.472 249.976 180.567 249.692C180.664 249.406 180.8 249.163 180.976 248.963C181.152 248.762 181.36 248.608 181.6 248.501C181.84 248.394 182.104 248.341 182.393 248.341C182.63 248.341 182.851 248.377 183.056 248.449C183.263 248.519 183.446 248.619 183.608 248.75C183.77 248.878 183.906 249.033 184.014 249.213C184.122 249.392 184.197 249.59 184.238 249.808H183.676ZM185.742 248.403V252.901H185.197V248.403H185.742ZM190.402 248.403V252.901H189.875L187.423 249.369H187.379V252.901H186.834V248.403H187.362L189.822 251.944H189.866V248.403H190.402Z" fill="#565656"/>
</g>
<g id="ASSWORD" style="mix-blend-mode:multiply" opacity="0.29">
<path d="M172.259 235.919H171.838L173.056 232.601H173.471L174.69 235.919H174.268L173.277 233.126H173.251L172.259 235.919ZM172.415 234.623H174.113V234.98H172.415V234.623ZM177.021 233.431C177.002 233.266 176.923 233.139 176.785 233.048C176.646 232.957 176.477 232.912 176.276 232.912C176.129 232.912 176.001 232.936 175.89 232.983C175.781 233.031 175.696 233.096 175.634 233.179C175.574 233.263 175.544 233.357 175.544 233.463C175.544 233.552 175.565 233.628 175.607 233.691C175.65 233.754 175.705 233.807 175.772 233.849C175.839 233.89 175.909 233.924 175.983 233.951C176.056 233.977 176.124 233.998 176.185 234.014L176.522 234.105C176.609 234.127 176.705 234.159 176.811 234.199C176.918 234.239 177.02 234.293 177.117 234.362C177.215 234.43 177.296 234.518 177.36 234.625C177.424 234.732 177.456 234.863 177.456 235.019C177.456 235.198 177.409 235.36 177.315 235.505C177.222 235.649 177.086 235.764 176.906 235.85C176.728 235.935 176.511 235.978 176.257 235.978C176.019 235.978 175.813 235.939 175.639 235.863C175.466 235.786 175.33 235.679 175.231 235.542C175.133 235.405 175.077 235.245 175.064 235.064H175.479C175.49 235.189 175.532 235.293 175.605 235.375C175.68 235.456 175.774 235.517 175.887 235.556C176.002 235.595 176.125 235.615 176.257 235.615C176.41 235.615 176.548 235.59 176.67 235.54C176.792 235.49 176.888 235.419 176.96 235.33C177.031 235.239 177.067 235.133 177.067 235.012C177.067 234.902 177.036 234.812 176.974 234.743C176.913 234.674 176.832 234.618 176.731 234.575C176.631 234.531 176.522 234.494 176.406 234.461L175.997 234.344C175.738 234.27 175.533 234.164 175.382 234.025C175.23 233.887 175.155 233.706 175.155 233.482C175.155 233.297 175.205 233.135 175.305 232.996C175.407 232.857 175.543 232.749 175.714 232.672C175.885 232.594 176.077 232.556 176.289 232.556C176.503 232.556 176.693 232.594 176.859 232.671C177.026 232.746 177.157 232.85 177.255 232.982C177.353 233.114 177.405 233.263 177.41 233.431H177.021ZM179.931 233.431C179.912 233.266 179.833 233.139 179.694 233.048C179.556 232.957 179.387 232.912 179.186 232.912C179.039 232.912 178.91 232.936 178.8 232.983C178.691 233.031 178.606 233.096 178.544 233.179C178.484 233.263 178.453 233.357 178.453 233.463C178.453 233.552 178.474 233.628 178.516 233.691C178.56 233.754 178.615 233.807 178.682 233.849C178.749 233.89 178.819 233.924 178.892 233.951C178.966 233.977 179.033 233.998 179.095 234.014L179.432 234.105C179.518 234.127 179.615 234.159 179.72 234.199C179.827 234.239 179.929 234.293 180.027 234.362C180.125 234.43 180.206 234.518 180.27 234.625C180.333 234.732 180.365 234.863 180.365 235.019C180.365 235.198 180.318 235.36 180.224 235.505C180.131 235.649 179.995 235.764 179.816 235.85C179.638 235.935 179.421 235.978 179.166 235.978C178.929 235.978 178.723 235.939 178.549 235.863C178.376 235.786 178.24 235.679 178.141 235.542C178.042 235.405 177.987 235.245 177.974 235.064H178.388C178.399 235.189 178.441 235.293 178.515 235.375C178.589 235.456 178.683 235.517 178.797 235.556C178.911 235.595 179.034 235.615 179.166 235.615C179.32 235.615 179.457 235.59 179.579 235.54C179.702 235.49 179.798 235.419 179.869 235.33C179.941 235.239 179.976 235.133 179.976 235.012C179.976 234.902 179.946 234.812 179.884 234.743C179.822 234.674 179.741 234.618 179.641 234.575C179.541 234.531 179.432 234.494 179.315 234.461L178.907 234.344C178.648 234.27 178.443 234.164 178.291 234.025C178.14 233.887 178.064 233.706 178.064 233.482C178.064 233.297 178.115 233.135 178.215 232.996C178.317 232.857 178.453 232.749 178.623 232.672C178.795 232.594 178.987 232.556 179.199 232.556C179.413 232.556 179.603 232.594 179.769 232.671C179.935 232.746 180.067 232.85 180.164 232.982C180.263 233.114 180.315 233.263 180.32 233.431H179.931ZM181.629 235.919L180.721 232.601H181.13L181.823 235.304H181.856L182.562 232.601H183.016L183.722 235.304H183.755L184.448 232.601H184.856L183.949 235.919H183.534L182.802 233.275H182.776L182.044 235.919H181.629ZM188.001 234.26C188.001 234.61 187.938 234.913 187.812 235.168C187.685 235.423 187.512 235.619 187.291 235.757C187.071 235.896 186.819 235.965 186.536 235.965C186.253 235.965 186.002 235.896 185.781 235.757C185.561 235.619 185.388 235.423 185.261 235.168C185.135 234.913 185.072 234.61 185.072 234.26C185.072 233.91 185.135 233.608 185.261 233.353C185.388 233.098 185.561 232.901 185.781 232.763C186.002 232.625 186.253 232.556 186.536 232.556C186.819 232.556 187.071 232.625 187.291 232.763C187.512 232.901 187.685 233.098 187.812 233.353C187.938 233.608 188.001 233.91 188.001 234.26ZM187.612 234.26C187.612 233.973 187.564 233.73 187.468 233.533C187.373 233.335 187.244 233.185 187.081 233.084C186.919 232.982 186.737 232.932 186.536 232.932C186.335 232.932 186.153 232.982 185.99 233.084C185.828 233.185 185.699 233.335 185.603 233.533C185.508 233.73 185.46 233.973 185.46 234.26C185.46 234.548 185.508 234.79 185.603 234.988C185.699 235.185 185.828 235.335 185.99 235.437C186.153 235.538 186.335 235.589 186.536 235.589C186.737 235.589 186.919 235.538 187.081 235.437C187.244 235.335 187.373 235.185 187.468 234.988C187.564 234.79 187.612 234.548 187.612 234.26ZM188.677 235.919V232.601H189.798C190.057 232.601 190.27 232.645 190.437 232.734C190.603 232.821 190.726 232.942 190.806 233.095C190.886 233.249 190.926 233.423 190.926 233.619C190.926 233.814 190.886 233.987 190.806 234.139C190.726 234.29 190.603 234.409 190.438 234.495C190.273 234.58 190.062 234.623 189.805 234.623H188.897V234.26H189.792C189.969 234.26 190.111 234.234 190.219 234.182C190.329 234.131 190.407 234.057 190.456 233.962C190.506 233.866 190.531 233.751 190.531 233.619C190.531 233.486 190.506 233.37 190.456 233.27C190.406 233.171 190.327 233.094 190.218 233.04C190.109 232.985 189.964 232.957 189.785 232.957H189.079V235.919H188.677ZM190.239 234.429L191.056 235.919H190.589L189.785 234.429H190.239ZM192.62 235.919H191.595V232.601H192.665C192.987 232.601 193.262 232.667 193.491 232.8C193.72 232.932 193.896 233.122 194.018 233.369C194.14 233.615 194.201 233.91 194.201 234.254C194.201 234.599 194.139 234.897 194.016 235.147C193.893 235.395 193.714 235.586 193.478 235.72C193.243 235.853 192.957 235.919 192.62 235.919ZM191.997 235.563H192.594C192.868 235.563 193.095 235.51 193.276 235.404C193.456 235.298 193.591 235.148 193.679 234.952C193.768 234.757 193.812 234.524 193.812 234.254C193.812 233.986 193.768 233.755 193.681 233.562C193.593 233.367 193.463 233.218 193.289 233.115C193.115 233.01 192.898 232.957 192.639 232.957H191.997V235.563Z" fill="#565656"/>
</g>
<g id="Vector_35" style="mix-blend-mode:multiply" opacity="0.29">
<path d="M167.134 162.994L193.5 162.805C193.5 162.805 192.242 150.951 180.353 150.951C168.463 150.951 167.134 162.994 167.134 162.994Z" fill="#565656"/>
</g>
<g id="Vector_36" style="mix-blend-mode:multiply" opacity="0.29">
<path d="M166.77 173.542C167.244 173.542 167.629 173.158 167.629 172.684C167.629 172.21 167.244 171.825 166.77 171.825C166.296 171.825 165.912 172.21 165.912 172.684C165.912 173.158 166.296 173.542 166.77 173.542Z" fill="#565656"/>
</g>
<g id="Vector_37" style="mix-blend-mode:multiply" opacity="0.29">
<path d="M194.031 173.542C194.505 173.542 194.889 173.158 194.889 172.684C194.889 172.21 194.505 171.825 194.031 171.825C193.557 171.825 193.172 172.21 193.172 172.684C193.172 173.158 193.557 173.542 194.031 173.542Z" fill="#565656"/>
</g>
</g>
<path id="Vector_38" d="M250.867 113.966H97.1987V267.634H250.867V113.966Z" fill="#F2F2F2"/>
<path id="Vector_39" d="M250.867 113.425H97.1987V126.573H250.867V113.425Z" fill="#AECEFE"/>
<path id="Vector_40" d="M237.753 116.694L245.48 124.668" stroke="#F4F4F4" stroke-width="1.176" stroke-linecap="round" stroke-linejoin="round"/>
<path id="Vector_41" d="M245.598 116.812L237.637 124.55" stroke="#F4F4F4" stroke-width="1.176" stroke-linecap="round" stroke-linejoin="round"/>
<path id="Vector_42" d="M174.026 194.84C187.386 194.84 198.217 184.009 198.217 170.649C198.217 157.289 187.386 146.459 174.026 146.459C160.666 146.459 149.836 157.289 149.836 170.649C149.836 184.009 160.666 194.84 174.026 194.84Z" fill="#B3B3B3"/>
<path id="Vector_43" d="M189.597 197.156H158.586V189.818C158.584 188.785 158.786 187.763 159.181 186.808C159.575 185.854 160.153 184.986 160.883 184.256C161.612 183.525 162.479 182.945 163.433 182.55C164.387 182.154 165.409 181.951 166.442 181.951H181.73C182.762 181.951 183.785 182.154 184.739 182.55C185.692 182.945 186.559 183.525 187.289 184.256C188.018 184.986 188.597 185.854 188.991 186.808C189.385 187.763 189.587 188.785 189.585 189.818L189.597 197.156Z" fill="#FF5364"/>
<path id="Vector_44" d="M220.018 233.836H128.09C127.33 233.836 126.577 233.686 125.875 233.395C125.173 233.105 124.536 232.678 123.998 232.141C123.461 231.604 123.035 230.966 122.744 230.264C122.453 229.562 122.304 228.81 122.304 228.05V228.05C122.304 226.515 122.913 225.044 123.998 223.959C125.083 222.874 126.555 222.264 128.09 222.264H220.018C221.552 222.264 223.024 222.874 224.109 223.959C225.194 225.044 225.803 226.515 225.803 228.05V228.05C225.8 229.583 225.19 231.053 224.105 232.138C223.021 233.222 221.551 233.833 220.018 233.836V233.836Z" stroke="#AECEFE" stroke-width="1.176" stroke-miterlimit="10"/>
<g id="Group_2" style="mix-blend-mode:multiply" opacity="0.29">
<g id="Vector_45" style="mix-blend-mode:multiply" opacity="0.29">
<path d="M197.205 256.968H162.619C161.084 256.968 159.613 256.358 158.528 255.273C157.443 254.188 156.833 252.716 156.833 251.182C156.833 250.422 156.983 249.671 157.274 248.969C157.565 248.268 157.991 247.631 158.528 247.095C159.066 246.558 159.704 246.133 160.406 245.844C161.108 245.554 161.86 245.406 162.619 245.407H197.205C198.738 245.407 200.207 246.015 201.292 247.098C202.377 248.181 202.988 249.649 202.991 251.182C202.991 252.716 202.381 254.188 201.296 255.273C200.211 256.358 198.74 256.968 197.205 256.968Z" fill="#565656"/>
</g>
</g>
<path id="Vector_46" d="M191.165 250.941H156.578C155.044 250.941 153.572 250.331 152.487 249.246C151.402 248.161 150.792 246.689 150.792 245.155C150.792 244.396 150.942 243.644 151.233 242.943C151.524 242.241 151.95 241.604 152.488 241.068C153.025 240.531 153.663 240.106 154.365 239.817C155.067 239.527 155.819 239.379 156.578 239.381H191.165C192.697 239.381 194.167 239.989 195.252 241.071C196.336 242.154 196.947 243.622 196.95 245.155C196.95 246.689 196.341 248.161 195.256 249.246C194.171 250.331 192.699 250.941 191.165 250.941Z" fill="#2F327D"/>
<g id="Group 39321">
<path id="Vector_47" d="M220.018 216.572H128.09C127.33 216.572 126.577 216.422 125.875 216.132C125.173 215.841 124.536 215.415 123.998 214.877C123.461 214.34 123.035 213.702 122.744 213C122.453 212.298 122.304 211.546 122.304 210.786V210.786C122.304 210.027 122.453 209.275 122.744 208.574C123.035 207.872 123.462 207.235 123.999 206.699C124.537 206.163 125.174 205.738 125.876 205.448C126.578 205.159 127.33 205.01 128.09 205.012H220.018C221.55 205.012 223.02 205.62 224.105 206.702C225.189 207.785 225.8 209.254 225.803 210.786V210.786C225.803 212.321 225.194 213.792 224.109 214.877C223.024 215.962 221.552 216.572 220.018 216.572V216.572Z" stroke="#AECEFE" stroke-width="1.176" stroke-miterlimit="10"/>
<path id="NAME" d="M170.475 209.457V212.775H170.086L168.278 210.17H168.246V212.775H167.844V209.457H168.233L170.047 212.069H170.08V209.457H170.475ZM171.415 212.775H170.994L172.213 209.457H172.627L173.846 212.775H173.425L172.433 209.982H172.407L171.415 212.775ZM171.571 211.479H173.269V211.836H171.571V211.479ZM174.363 209.457H174.842L175.97 212.212H176.009L177.137 209.457H177.616V212.775H177.241V210.254H177.208L176.171 212.775H175.808L174.771 210.254H174.739V212.775H174.363V209.457ZM178.422 212.775V209.457H180.425V209.813H178.824V210.935H180.321V211.291H178.824V212.419H180.451V212.775H178.422Z" fill="#AECEFE"/>
</g>
<path id="LOGIN" d="M164.657 247.601V243.102H165.201V247.117H167.293V247.601H164.657ZM171.757 245.351C171.757 245.826 171.671 246.236 171.5 246.581C171.328 246.927 171.093 247.194 170.795 247.381C170.496 247.568 170.155 247.662 169.771 247.662C169.387 247.662 169.046 247.568 168.747 247.381C168.449 247.194 168.214 246.927 168.042 246.581C167.871 246.236 167.785 245.826 167.785 245.351C167.785 244.877 167.871 244.467 168.042 244.121C168.214 243.776 168.449 243.509 168.747 243.322C169.046 243.134 169.387 243.04 169.771 243.04C170.155 243.04 170.496 243.134 170.795 243.322C171.093 243.509 171.328 243.776 171.5 244.121C171.671 244.467 171.757 244.877 171.757 245.351ZM171.23 245.351C171.23 244.962 171.164 244.633 171.034 244.365C170.905 244.097 170.73 243.894 170.509 243.757C170.289 243.619 170.043 243.55 169.771 243.55C169.499 243.55 169.252 243.619 169.031 243.757C168.811 243.894 168.636 244.097 168.506 244.365C168.377 244.633 168.312 244.962 168.312 245.351C168.312 245.741 168.377 246.07 168.506 246.338C168.636 246.606 168.811 246.808 169.031 246.946C169.252 247.084 169.499 247.153 169.771 247.153C170.043 247.153 170.289 247.084 170.509 246.946C170.73 246.808 170.905 246.606 171.034 246.338C171.164 246.07 171.23 245.741 171.23 245.351ZM175.748 244.508C175.7 244.36 175.636 244.227 175.557 244.11C175.479 243.992 175.386 243.891 175.278 243.807C175.171 243.724 175.049 243.66 174.913 243.616C174.777 243.572 174.628 243.55 174.465 243.55C174.199 243.55 173.956 243.619 173.738 243.757C173.52 243.894 173.346 244.097 173.217 244.365C173.089 244.633 173.024 244.962 173.024 245.351C173.024 245.741 173.089 246.07 173.22 246.338C173.35 246.606 173.526 246.808 173.749 246.946C173.972 247.084 174.222 247.153 174.5 247.153C174.758 247.153 174.985 247.098 175.181 246.988C175.379 246.877 175.533 246.72 175.643 246.518C175.754 246.314 175.81 246.075 175.81 245.799L175.976 245.835H174.623V245.351H176.337V245.835C176.337 246.205 176.258 246.527 176.099 246.801C175.943 247.075 175.726 247.287 175.449 247.438C175.174 247.588 174.858 247.662 174.5 247.662C174.102 247.662 173.752 247.568 173.45 247.381C173.15 247.194 172.916 246.927 172.747 246.581C172.58 246.236 172.497 245.826 172.497 245.351C172.497 244.995 172.545 244.676 172.64 244.391C172.736 244.106 172.873 243.863 173.048 243.662C173.224 243.461 173.432 243.308 173.672 243.201C173.912 243.094 174.177 243.04 174.465 243.04C174.702 243.04 174.924 243.076 175.129 243.148C175.335 243.218 175.519 243.319 175.68 243.449C175.842 243.578 175.978 243.732 176.086 243.913C176.195 244.091 176.269 244.29 176.31 244.508H175.748ZM177.815 243.102V247.601H177.27V243.102H177.815ZM182.474 243.102V247.601H181.947L179.495 244.068H179.452V247.601H178.907V243.102H179.434L181.894 246.643H181.938V243.102H182.474Z" fill="#F2F2F2"/>
<path id="PASSWORD" d="M161.554 230.039V226.721H162.675C162.935 226.721 163.148 226.768 163.313 226.862C163.48 226.955 163.603 227.081 163.683 227.239C163.763 227.398 163.803 227.575 163.803 227.771C163.803 227.966 163.763 228.144 163.683 228.304C163.604 228.464 163.482 228.591 163.317 228.686C163.151 228.78 162.94 228.827 162.681 228.827H161.878V228.471H162.668C162.847 228.471 162.99 228.44 163.098 228.378C163.206 228.317 163.284 228.234 163.333 228.129C163.383 228.023 163.407 227.904 163.407 227.771C163.407 227.638 163.383 227.519 163.333 227.414C163.284 227.31 163.205 227.227 163.096 227.168C162.987 227.108 162.842 227.077 162.662 227.077H161.956V230.039H161.554ZM164.248 230.039H163.826L165.045 226.721H165.46L166.678 230.039H166.257L165.265 227.246H165.239L164.248 230.039ZM164.403 228.743H166.101V229.1H164.403V228.743ZM169.01 227.55C168.99 227.386 168.911 227.259 168.773 227.168C168.635 227.077 168.465 227.032 168.264 227.032C168.117 227.032 167.989 227.056 167.879 227.103C167.77 227.151 167.684 227.216 167.623 227.299C167.562 227.382 167.532 227.477 167.532 227.583C167.532 227.671 167.553 227.748 167.595 227.811C167.638 227.874 167.693 227.926 167.76 227.969C167.827 228.01 167.898 228.044 167.971 228.071C168.045 228.097 168.112 228.118 168.174 228.134L168.511 228.225C168.597 228.247 168.693 228.279 168.799 228.319C168.906 228.358 169.008 228.413 169.105 228.482C169.204 228.55 169.285 228.638 169.348 228.745C169.412 228.852 169.444 228.983 169.444 229.138C169.444 229.318 169.397 229.48 169.303 229.624C169.21 229.769 169.074 229.884 168.895 229.97C168.716 230.055 168.5 230.098 168.245 230.098C168.007 230.098 167.801 230.059 167.628 229.983C167.455 229.906 167.319 229.799 167.219 229.662C167.121 229.525 167.065 229.365 167.052 229.184H167.467C167.478 229.309 167.52 229.413 167.594 229.495C167.668 229.576 167.762 229.636 167.875 229.676C167.99 229.715 168.113 229.735 168.245 229.735C168.398 229.735 168.536 229.71 168.658 229.66C168.78 229.609 168.877 229.539 168.948 229.45C169.019 229.359 169.055 229.253 169.055 229.132C169.055 229.022 169.024 228.932 168.963 228.863C168.901 228.794 168.82 228.738 168.72 228.694C168.619 228.651 168.511 228.613 168.394 228.581L167.986 228.464C167.726 228.39 167.521 228.283 167.37 228.145C167.219 228.007 167.143 227.826 167.143 227.602C167.143 227.417 167.193 227.254 167.294 227.116C167.395 226.977 167.531 226.869 167.702 226.792C167.874 226.714 168.066 226.675 168.277 226.675C168.491 226.675 168.681 226.714 168.848 226.791C169.014 226.866 169.146 226.97 169.243 227.102C169.341 227.233 169.393 227.383 169.399 227.55H169.01ZM171.919 227.55C171.9 227.386 171.821 227.259 171.683 227.168C171.545 227.077 171.375 227.032 171.174 227.032C171.027 227.032 170.899 227.056 170.788 227.103C170.679 227.151 170.594 227.216 170.532 227.299C170.472 227.382 170.442 227.477 170.442 227.583C170.442 227.671 170.463 227.748 170.505 227.811C170.548 227.874 170.603 227.926 170.67 227.969C170.737 228.01 170.807 228.044 170.881 228.071C170.954 228.097 171.022 228.118 171.083 228.134L171.42 228.225C171.507 228.247 171.603 228.279 171.709 228.319C171.816 228.358 171.918 228.413 172.015 228.482C172.113 228.55 172.194 228.638 172.258 228.745C172.322 228.852 172.354 228.983 172.354 229.138C172.354 229.318 172.307 229.48 172.213 229.624C172.12 229.769 171.984 229.884 171.804 229.97C171.626 230.055 171.41 230.098 171.155 230.098C170.917 230.098 170.711 230.059 170.537 229.983C170.364 229.906 170.228 229.799 170.129 229.662C170.031 229.525 169.975 229.365 169.962 229.184H170.377C170.388 229.309 170.43 229.413 170.503 229.495C170.578 229.576 170.672 229.636 170.785 229.676C170.9 229.715 171.023 229.735 171.155 229.735C171.308 229.735 171.446 229.71 171.568 229.66C171.69 229.609 171.787 229.539 171.858 229.45C171.929 229.359 171.965 229.253 171.965 229.132C171.965 229.022 171.934 228.932 171.872 228.863C171.811 228.794 171.73 228.738 171.629 228.694C171.529 228.651 171.42 228.613 171.304 228.581L170.895 228.464C170.636 228.39 170.431 228.283 170.28 228.145C170.128 228.007 170.053 227.826 170.053 227.602C170.053 227.417 170.103 227.254 170.203 227.116C170.305 226.977 170.441 226.869 170.612 226.792C170.784 226.714 170.975 226.675 171.187 226.675C171.401 226.675 171.591 226.714 171.757 226.791C171.924 226.866 172.056 226.97 172.153 227.102C172.251 227.233 172.303 227.383 172.308 227.55H171.919ZM173.617 230.039L172.71 226.721H173.118L173.812 229.424H173.844L174.55 226.721H175.004L175.711 229.424H175.743L176.437 226.721H176.845L175.937 230.039H175.523L174.79 227.395H174.764L174.032 230.039H173.617ZM179.99 228.38C179.99 228.73 179.926 229.033 179.8 229.287C179.674 229.542 179.5 229.739 179.28 229.877C179.059 230.016 178.808 230.085 178.525 230.085C178.242 230.085 177.99 230.016 177.77 229.877C177.549 229.739 177.376 229.542 177.25 229.287C177.123 229.033 177.06 228.73 177.06 228.38C177.06 228.03 177.123 227.728 177.25 227.473C177.376 227.218 177.549 227.021 177.77 226.883C177.99 226.745 178.242 226.675 178.525 226.675C178.808 226.675 179.059 226.745 179.28 226.883C179.5 227.021 179.674 227.218 179.8 227.473C179.926 227.728 179.99 228.03 179.99 228.38ZM179.601 228.38C179.601 228.093 179.553 227.85 179.456 227.653C179.361 227.455 179.232 227.305 179.069 227.204C178.907 227.102 178.726 227.051 178.525 227.051C178.324 227.051 178.142 227.102 177.979 227.204C177.817 227.305 177.688 227.455 177.591 227.653C177.496 227.85 177.449 228.093 177.449 228.38C177.449 228.667 177.496 228.91 177.591 229.108C177.688 229.305 177.817 229.455 177.979 229.556C178.142 229.658 178.324 229.709 178.525 229.709C178.726 229.709 178.907 229.658 179.069 229.556C179.232 229.455 179.361 229.305 179.456 229.108C179.553 228.91 179.601 228.667 179.601 228.38ZM180.665 230.039V226.721H181.786C182.046 226.721 182.259 226.765 182.425 226.854C182.591 226.941 182.714 227.062 182.794 227.215C182.874 227.368 182.914 227.543 182.914 227.738C182.914 227.934 182.874 228.107 182.794 228.259C182.714 228.41 182.592 228.529 182.427 228.615C182.261 228.7 182.05 228.743 181.793 228.743H180.886V228.38H181.78C181.957 228.38 182.1 228.354 182.208 228.302C182.317 228.25 182.396 228.177 182.444 228.082C182.494 227.986 182.519 227.871 182.519 227.738C182.519 227.606 182.494 227.489 182.444 227.39C182.395 227.291 182.315 227.214 182.206 227.16C182.097 227.105 181.953 227.077 181.774 227.077H181.067V230.039H180.665ZM182.227 228.549L183.044 230.039H182.577L181.774 228.549H182.227ZM184.608 230.039H183.584V226.721H184.653C184.975 226.721 185.251 226.787 185.48 226.92C185.709 227.052 185.884 227.242 186.006 227.489C186.128 227.735 186.189 228.03 186.189 228.374C186.189 228.719 186.128 229.017 186.005 229.266C185.881 229.515 185.702 229.706 185.467 229.84C185.231 229.973 184.945 230.039 184.608 230.039ZM183.986 229.683H184.582C184.856 229.683 185.084 229.63 185.264 229.524C185.445 229.418 185.579 229.267 185.668 229.072C185.756 228.876 185.8 228.644 185.8 228.374C185.8 228.106 185.757 227.875 185.669 227.682C185.582 227.487 185.451 227.338 185.277 227.234C185.103 227.13 184.887 227.077 184.627 227.077H183.986V229.683Z" fill="#AECEFE"/>
<g id="Group 39320">
<path id="Vector_48" d="M158.279 156.984V180.928H189.913L190.372 156.984C190.372 156.984 188.831 142.555 174.355 142.555C159.878 142.555 158.279 156.984 158.279 156.984Z" fill="#39358E"/>
<path id="Vector_49" d="M178.448 173.695H169.722V182.421H178.448V173.695Z" fill="#F7CEB0"/>
<path id="Vector_50" d="M173.473 179.622H166.84V183.703H173.473V179.622Z" fill="#F2F2F2"/>
<path id="Vector_51" d="M181.811 179.622H175.178V183.703H181.811V179.622Z" fill="#F2F2F2"/>
<path id="Vector_52" d="M167.793 162.206C167.793 163.245 167.484 164.262 166.907 165.126C166.329 165.991 165.508 166.664 164.548 167.062C163.587 167.46 162.53 167.564 161.51 167.361C160.491 167.159 159.554 166.658 158.819 165.923C158.084 165.188 157.583 164.251 157.38 163.231C157.177 162.212 157.282 161.155 157.679 160.194C158.077 159.233 158.751 158.413 159.616 157.835C160.48 157.257 161.496 156.949 162.536 156.949C163.93 156.949 165.267 157.503 166.253 158.489C167.239 159.474 167.793 160.812 167.793 162.206Z" fill="#F7CEB0"/>
<path id="Vector_53" d="M190.772 161.747C190.772 162.787 190.464 163.803 189.886 164.667C189.309 165.532 188.488 166.206 187.527 166.604C186.567 167.001 185.51 167.105 184.49 166.903C183.47 166.7 182.534 166.199 181.798 165.464C181.063 164.729 180.563 163.792 180.36 162.772C180.157 161.753 180.261 160.696 180.659 159.735C181.057 158.775 181.731 157.954 182.595 157.376C183.459 156.799 184.476 156.49 185.516 156.49C186.91 156.49 188.247 157.044 189.233 158.03C190.218 159.016 190.772 160.353 190.772 161.747Z" fill="#F7CEB0"/>
<path id="Vector_54" d="M174.473 145.071H174.379C167.54 145.071 161.996 150.615 161.996 157.455V165.71C161.996 172.549 167.54 178.093 174.379 178.093H174.473C181.313 178.093 186.857 172.549 186.857 165.71V157.455C186.857 150.615 181.313 145.071 174.473 145.071Z" fill="#FFD8B8"/>
<path id="Vector_55" d="M168.499 163.546C168.499 163.677 168.46 163.804 168.388 163.912C168.315 164.02 168.213 164.105 168.092 164.155C167.972 164.205 167.839 164.218 167.712 164.192C167.584 164.167 167.467 164.104 167.375 164.012C167.282 163.92 167.22 163.802 167.194 163.675C167.169 163.547 167.182 163.415 167.232 163.294C167.282 163.174 167.366 163.071 167.474 162.999C167.583 162.926 167.71 162.888 167.84 162.888C168.015 162.888 168.182 162.957 168.306 163.081C168.429 163.204 168.499 163.372 168.499 163.546Z" fill="#2F327D"/>
<path id="Vector_56" d="M181.306 163.546C181.307 163.634 181.291 163.721 181.259 163.802C181.227 163.883 181.178 163.957 181.117 164.02C181.056 164.082 180.983 164.132 180.902 164.165C180.821 164.199 180.735 164.217 180.647 164.217C180.552 164.229 180.456 164.222 180.365 164.194C180.273 164.166 180.189 164.12 180.117 164.057C180.045 163.994 179.987 163.916 179.948 163.829C179.909 163.742 179.888 163.648 179.888 163.552C179.888 163.457 179.909 163.362 179.948 163.275C179.987 163.188 180.045 163.111 180.117 163.048C180.189 162.985 180.273 162.938 180.365 162.911C180.456 162.883 180.552 162.875 180.647 162.888C180.822 162.888 180.989 162.957 181.113 163.081C181.236 163.204 181.306 163.372 181.306 163.546Z" fill="#2F327D"/>
<path id="Vector_57" d="M168.746 166.463C168.746 166.8 168.646 167.13 168.458 167.41C168.271 167.691 168.005 167.909 167.693 168.038C167.382 168.167 167.039 168.201 166.708 168.135C166.377 168.069 166.073 167.907 165.835 167.669C165.596 167.43 165.434 167.126 165.368 166.795C165.302 166.465 165.336 166.122 165.465 165.81C165.594 165.499 165.813 165.232 166.093 165.045C166.374 164.858 166.703 164.758 167.041 164.758C167.493 164.758 167.927 164.937 168.246 165.257C168.566 165.577 168.746 166.011 168.746 166.463Z" fill="#FFB19F"/>
<path id="Vector_58" d="M183.657 166.463C183.655 166.797 183.554 167.123 183.366 167.4C183.179 167.677 182.913 167.893 182.604 168.019C182.294 168.145 181.954 168.177 181.626 168.11C181.299 168.044 180.998 167.882 180.762 167.644C180.527 167.407 180.367 167.105 180.302 166.777C180.238 166.449 180.272 166.109 180.401 165.8C180.529 165.492 180.746 165.228 181.024 165.042C181.303 164.857 181.629 164.758 181.964 164.758C182.414 164.761 182.845 164.942 183.162 165.261C183.479 165.581 183.657 166.013 183.657 166.463Z" fill="#FFB19F"/>
<path id="Vector_59" d="M171.098 167.662H177.884C177.884 167.662 174.367 172.131 171.098 167.662Z" fill="#F2F2F2"/>
<path id="Vector_60" d="M161.254 157.114L187.62 156.925C187.62 156.925 186.362 145.071 174.473 145.071C162.583 145.071 161.254 157.114 161.254 157.114Z" fill="#2F327D"/>
</g>
<path id="Vector_61" d="M160.891 167.662C161.365 167.662 161.749 167.278 161.749 166.804C161.749 166.33 161.365 165.945 160.891 165.945C160.417 165.945 160.032 166.33 160.032 166.804C160.032 167.278 160.417 167.662 160.891 167.662Z" fill="#F2F2F2"/>
<path id="Vector_62" d="M188.149 167.662C188.624 167.662 189.008 167.278 189.008 166.804C189.008 166.33 188.624 165.945 188.149 165.945C187.675 165.945 187.291 166.33 187.291 166.804C187.291 167.278 187.675 167.662 188.149 167.662Z" fill="#F2F2F2"/>
</g>
<path id="Vector_63" style="mix-blend-mode:multiply" opacity="0.5" d="M516.83 513.489L103.243 515.053L82.8862 471.905L497.132 456.359L516.83 513.489Z" fill="url(#paint0_linear_180_1892)"/>
<path id="Vector_64" d="M456.536 456.358H116.813V260.743C116.826 256.461 118.535 252.359 121.565 249.335C124.596 246.311 128.702 244.611 132.983 244.608H440.402C444.693 244.608 448.809 246.313 451.844 249.347C454.879 252.382 456.583 256.498 456.583 260.79L456.536 456.358Z" fill="#303030"/>
<path id="Vector_65" d="M444.448 259.39H128.892V446.163H444.448V259.39Z" fill="#AECEFE"/>
<path id="Vector_66" d="M456.536 446.163H116.813V456.359H456.536V446.163Z" fill="#545454"/>
<path id="Vector_67" d="M76.2183 456.359H497.132V463.626C497.132 465.872 496.24 468.026 494.652 469.613C493.064 471.201 490.911 472.093 488.665 472.093H84.6855C82.4398 472.093 80.2862 471.201 78.6982 469.613C77.1103 468.026 76.2183 465.872 76.2183 463.626V456.359Z" fill="#999999"/>
<path id="Vector_68" d="M84.6857 472.093H488.618C490.297 472.094 491.937 471.595 493.332 470.661C494.726 469.728 495.812 468.4 496.45 466.848H76.8535C77.4935 468.4 78.5794 469.726 79.9736 470.66C81.3678 471.593 83.0077 472.092 84.6857 472.093Z" fill="#CCCCCC"/>
<path id="Vector_69" d="M314.782 462.227H258.557C256.998 462.227 255.502 461.607 254.399 460.505C253.297 459.402 252.677 457.906 252.677 456.347H320.65C320.65 457.904 320.032 459.398 318.932 460.5C317.832 461.603 316.339 462.224 314.782 462.227Z" fill="#CCCCCC"/>
<path id="Vector_70" d="M242.563 317.297H171.332C166.747 317.297 163.03 321.014 163.03 325.599V384.893C163.03 389.478 166.747 393.196 171.332 393.196H242.563C247.148 393.196 250.865 389.478 250.865 384.893V325.599C250.865 321.014 247.148 317.297 242.563 317.297Z" stroke="white" stroke-width="1.176" stroke-miterlimit="10"/>
<path id="Vector_71" d="M392.809 317.297H274.598C269.668 317.297 265.672 321.293 265.672 326.222V326.434C265.672 331.364 269.668 335.36 274.598 335.36H392.809C397.739 335.36 401.735 331.364 401.735 326.434V326.222C401.735 321.293 397.739 317.297 392.809 317.297Z" stroke="white" stroke-width="1.176" stroke-miterlimit="10"/>
<path id="Vector_72" d="M392.809 346.344H274.598C269.668 346.344 265.672 350.34 265.672 355.27V355.481C265.672 360.411 269.668 364.407 274.598 364.407H392.809C397.739 364.407 401.735 360.411 401.735 355.481V355.27C401.735 350.34 397.739 346.344 392.809 346.344Z" stroke="white" stroke-width="1.176" stroke-miterlimit="10"/>
<path id="Vector_73" d="M392.809 375.391H274.598C269.668 375.391 265.672 379.387 265.672 384.317V384.528C265.672 389.458 269.668 393.454 274.598 393.454H392.809C397.739 393.454 401.735 389.458 401.735 384.528V384.317C401.735 379.387 397.739 375.391 392.809 375.391Z" stroke="white" stroke-width="1.176" stroke-miterlimit="10"/>
<path id="Vector_74" d="M392.703 422.513H169.263C168.076 422.513 166.9 422.279 165.804 421.825C164.707 421.37 163.711 420.704 162.872 419.864C162.033 419.024 161.368 418.027 160.915 416.93C160.462 415.833 160.229 414.657 160.231 413.47V413.47C160.231 411.075 161.183 408.777 162.876 407.084C164.57 405.39 166.867 404.438 169.263 404.438H392.703C395.098 404.438 397.395 405.39 399.089 407.084C400.783 408.777 401.734 411.075 401.734 413.47C401.736 414.657 401.503 415.833 401.05 416.93C400.597 418.027 399.932 419.024 399.093 419.864C398.254 420.704 397.258 421.37 396.162 421.825C395.065 422.279 393.89 422.513 392.703 422.513V422.513Z" stroke="white" stroke-width="1.176" stroke-miterlimit="10"/>
<path id="R" d="M164.394 296.674V288.036H167.312C167.987 288.036 168.541 288.151 168.974 288.381C169.407 288.609 169.728 288.923 169.936 289.322C170.144 289.721 170.248 290.175 170.248 290.684C170.248 291.193 170.144 291.645 169.936 292.038C169.728 292.432 169.409 292.741 168.979 292.966C168.548 293.188 167.999 293.3 167.329 293.3H164.967V292.355H167.296C167.757 292.355 168.128 292.287 168.409 292.152C168.693 292.017 168.898 291.826 169.025 291.579C169.154 291.328 169.219 291.03 169.219 290.684C169.219 290.339 169.154 290.036 169.025 289.778C168.896 289.519 168.689 289.319 168.405 289.179C168.121 289.035 167.746 288.964 167.279 288.964H165.44V296.674H164.394ZM168.46 292.793L170.586 296.674H169.371L167.279 292.793H168.46Z" fill="white"/>
<g id="Group_3" style="mix-blend-mode:multiply" opacity="0.29">
<g id="Vector_75" style="mix-blend-mode:multiply" opacity="0.29">
<path d="M253.382 323.941L233.837 318.708L239.07 338.253L243.939 333.384L251.406 340.864L255.993 336.289L248.513 328.81L253.382 323.941Z" fill="#565656"/>
</g>
</g>
<path id="Vector_76" d="M247.502 318.061L227.957 312.828L233.19 332.373L238.059 327.504L245.526 334.984L250.113 330.409L242.634 322.93L247.502 318.061Z" fill="#EDEDED"/>
<g id="Group 39319">
<g id="Group_4" style="mix-blend-mode:multiply" opacity="0.29">
<g id="Vector_77" style="mix-blend-mode:multiply" opacity="0.29">
<path d="M510.656 185.396H277.62V418.433H510.656V185.396Z" fill="#565656"/>
</g>
<g id="Vector_78" style="mix-blend-mode:multiply" opacity="0.29">
<path d="M510.656 184.561H277.62V204.506H510.656V184.561Z" fill="#565656"/>
</g>
<g id="Vector_79" style="mix-blend-mode:multiply" opacity="0.29">
<path d="M490.758 189.536L502.483 201.613" stroke="#565656" stroke-width="1.176" stroke-linecap="round" stroke-linejoin="round"/>
</g>
<g id="Vector_80" style="mix-blend-mode:multiply" opacity="0.29">
<path d="M502.671 189.712L490.582 201.437" stroke="#565656" stroke-width="1.176" stroke-linecap="round" stroke-linejoin="round"/>
</g>
<g id="Vector_81" style="mix-blend-mode:multiply" opacity="0.29">
<path d="M394.126 308.018C414.383 308.018 430.805 291.596 430.805 271.338C430.805 251.081 414.383 234.659 394.126 234.659C373.868 234.659 357.446 251.081 357.446 271.338C357.446 291.596 373.868 308.018 394.126 308.018Z" fill="#565656"/>
</g>
<g id="Vector_82" style="mix-blend-mode:multiply" opacity="0.29">
<path d="M400.853 275.972H387.611V289.214H400.853V275.972Z" fill="#565656"/>
</g>
<g id="Vector_83" style="mix-blend-mode:multiply" opacity="0.29">
<path d="M393.797 284.957H383.742V291.131H393.797V284.957Z" fill="#565656"/>
</g>
<g id="Vector_84" style="mix-blend-mode:multiply" opacity="0.29">
<path d="M406.439 284.957H396.384V291.131H406.439V284.957Z" fill="#565656"/>
</g>
<g id="Vector_85" style="mix-blend-mode:multiply" opacity="0.29">
<path d="M418.246 311.546H371.206V300.409C371.206 297.25 372.461 294.22 374.695 291.985C376.929 289.751 379.959 288.496 383.119 288.496H406.298C409.458 288.496 412.49 289.751 414.726 291.985C416.962 294.218 418.219 297.249 418.223 300.409L418.246 311.546Z" fill="#565656"/>
</g>
<g id="Vector_86" style="mix-blend-mode:multiply" opacity="0.29">
<path d="M376.697 266.517C381.1 266.517 384.67 262.947 384.67 258.544C384.67 254.14 381.1 250.57 376.697 250.57C372.293 250.57 368.724 254.14 368.724 258.544C368.724 262.947 372.293 266.517 376.697 266.517Z" fill="#565656"/>
</g>
<g id="Vector_87" style="mix-blend-mode:multiply" opacity="0.29">
<path d="M411.554 266.517C415.958 266.517 419.528 262.947 419.528 258.544C419.528 254.14 415.958 250.57 411.554 250.57C407.151 250.57 403.581 254.14 403.581 258.544C403.581 262.947 407.151 266.517 411.554 266.517Z" fill="#565656"/>
</g>
<g id="Vector_88" style="mix-blend-mode:multiply" opacity="0.29">
<path d="M394.796 232.566H394.655C384.283 232.566 375.875 240.974 375.875 251.346V263.871C375.875 274.243 384.283 282.652 394.655 282.652H394.796C405.169 282.652 413.577 274.243 413.577 263.871V251.346C413.577 240.974 405.169 232.566 394.796 232.566Z" fill="#565656"/>
</g>
<g id="Vector_89" style="mix-blend-mode:multiply" opacity="0.29">
<path d="M381.601 240.939C383.262 241.681 384.976 242.298 386.728 242.785C390.246 243.53 393.864 243.677 397.43 243.22C400.902 243.015 404.326 242.302 407.591 241.104C410.875 239.882 413.64 237.57 415.423 234.553C416.282 233.037 416.722 231.321 416.699 229.579C416.677 227.837 416.191 226.132 415.293 224.64C415.054 224.246 414.729 223.912 414.341 223.663C413.858 223.419 413.315 223.317 412.777 223.369C411.749 223.415 410.746 223.701 409.849 224.204C408.978 224.687 408.226 225.38 407.344 225.827C406.919 226.092 406.436 226.251 405.936 226.29C405.437 226.329 404.935 226.247 404.474 226.051C403.895 225.622 403.363 225.133 402.887 224.592C402.246 224.132 401.519 223.805 400.749 223.631C399.979 223.457 399.183 223.44 398.406 223.581C397.86 223.598 397.325 223.739 396.842 223.993C395.854 224.581 395.548 225.863 394.772 226.709C394.394 227.123 393.913 227.429 393.378 227.596C392.843 227.763 392.273 227.786 391.726 227.662C390.68 227.415 389.798 226.639 388.728 226.486C388.093 226.453 387.46 226.577 386.884 226.845C386.308 227.114 385.806 227.519 385.423 228.026C384.672 229.047 383.988 230.115 383.377 231.225C382.095 233.224 380.296 234.824 378.943 236.764C378.461 237.47 378.602 241.55 378.602 241.55C378.602 241.55 380.754 240.574 381.601 240.939Z" fill="#565656"/>
</g>
<g id="Vector_90" style="mix-blend-mode:multiply" opacity="0.29">
<path d="M385.753 260.59C385.753 260.79 385.694 260.985 385.583 261.152C385.472 261.318 385.314 261.448 385.129 261.524C384.944 261.601 384.741 261.621 384.545 261.582C384.348 261.543 384.168 261.446 384.027 261.305C383.885 261.163 383.789 260.983 383.75 260.787C383.711 260.591 383.731 260.388 383.807 260.203C383.884 260.018 384.014 259.86 384.18 259.749C384.346 259.638 384.542 259.578 384.742 259.578C384.875 259.577 385.007 259.602 385.131 259.652C385.254 259.702 385.366 259.777 385.46 259.871C385.555 259.965 385.629 260.077 385.679 260.201C385.73 260.324 385.755 260.457 385.753 260.59Z" fill="#565656"/>
</g>
<g id="Vector_91" style="mix-blend-mode:multiply" opacity="0.29">
<path d="M404.157 261.601C404.716 261.601 405.169 261.148 405.169 260.59C405.169 260.031 404.716 259.578 404.157 259.578C403.599 259.578 403.146 260.031 403.146 260.59C403.146 261.148 403.599 261.601 404.157 261.601Z" fill="#565656"/>
</g>
<g id="Vector_92" style="mix-blend-mode:multiply" opacity="0.29">
<path d="M386.153 265C386.153 265.509 386.002 266.007 385.719 266.431C385.436 266.854 385.034 267.184 384.563 267.379C384.093 267.574 383.575 267.625 383.075 267.526C382.576 267.426 382.117 267.181 381.757 266.821C381.397 266.461 381.151 266.002 381.052 265.502C380.953 265.003 381.004 264.485 381.198 264.014C381.393 263.544 381.724 263.141 382.147 262.858C382.571 262.575 383.069 262.424 383.578 262.424C384.261 262.424 384.916 262.696 385.399 263.179C385.882 263.662 386.153 264.317 386.153 265Z" fill="#565656"/>
</g>
<g id="Vector_93" style="mix-blend-mode:multiply" opacity="0.29">
<path d="M406.156 267.575C407.579 267.575 408.732 266.422 408.732 265C408.732 263.577 407.579 262.424 406.156 262.424C404.734 262.424 403.581 263.577 403.581 265C403.581 266.422 404.734 267.575 406.156 267.575Z" fill="#565656"/>
</g>
<g id="Vector_94" style="mix-blend-mode:multiply" opacity="0.29">
<path d="M389.728 266.834H400.006C400.006 266.834 394.644 273.596 389.728 266.834Z" fill="#565656"/>
</g>
<g id="Vector_95" style="mix-blend-mode:multiply" opacity="0.29">
<path d="M463.839 341.04H324.424C322.098 341.04 319.866 340.116 318.221 338.47C316.576 336.825 315.651 334.594 315.651 332.267C315.654 329.942 316.58 327.714 318.225 326.071C319.87 324.428 322.1 323.506 324.424 323.506H463.839C466.163 323.506 468.391 324.429 470.034 326.072C471.677 327.715 472.6 329.943 472.6 332.267C472.602 333.418 472.376 334.559 471.937 335.623C471.497 336.688 470.852 337.655 470.038 338.47C469.225 339.284 468.258 339.931 467.195 340.372C466.131 340.813 464.991 341.04 463.839 341.04V341.04Z" stroke="#565656" stroke-width="1.176" stroke-miterlimit="10"/>
</g>
<g id="Vector_96" style="mix-blend-mode:multiply" opacity="0.29">
<path d="M463.839 367.171H324.424C322.098 367.171 319.866 366.246 318.221 364.601C316.576 362.956 315.651 360.724 315.651 358.398V358.398C315.651 356.071 316.576 353.84 318.221 352.194C319.866 350.549 322.098 349.625 324.424 349.625H463.839C464.991 349.625 466.131 349.852 467.195 350.293C468.258 350.734 469.225 351.38 470.038 352.195C470.852 353.01 471.497 353.977 471.937 355.041C472.376 356.106 472.602 357.246 472.6 358.398V358.398C472.602 359.549 472.376 360.69 471.937 361.754C471.497 362.818 470.852 363.786 470.038 364.6C469.225 365.415 468.258 366.062 467.195 366.503C466.131 366.944 464.991 367.171 463.839 367.171V367.171Z" stroke="#565656" stroke-width="1.176" stroke-miterlimit="10"/>
</g>
<g id="Vector_97" style="mix-blend-mode:multiply" opacity="0.29">
<path d="M426.23 381.671H373.781C368.936 381.671 365.008 385.596 365.008 390.438C365.008 395.28 368.936 399.205 373.781 399.205H426.23C431.076 399.205 435.003 395.28 435.003 390.438C435.003 385.596 431.076 381.671 426.23 381.671Z" fill="#565656"/>
</g>
<g id="Vector_98" style="mix-blend-mode:multiply" opacity="0.29">
<path d="M420.35 375.791H367.901C363.056 375.791 359.128 379.716 359.128 384.558C359.128 389.4 363.056 393.325 367.901 393.325H420.35C425.196 393.325 429.123 389.4 429.123 384.558C429.123 379.716 425.196 375.791 420.35 375.791Z" fill="#565656"/>
</g>
<g id="AME_2" style="mix-blend-mode:multiply" opacity="0.29">
<path d="M404.714 334.657H404.076L405.922 329.628H406.551L408.398 334.657H407.759L406.256 330.424H406.217L404.714 334.657ZM404.95 332.693H407.523V333.233H404.95V332.693ZM409.181 329.628H409.908L411.617 333.802H411.676L413.385 329.628H414.112V334.657H413.542V330.836H413.493L411.921 334.657H411.371L409.8 330.836H409.751V334.657H409.181V329.628ZM415.333 334.657V329.628H418.368V330.168H415.942V331.867H418.211V332.408H415.942V334.117H418.407V334.657H415.333Z" fill="#565656"/>
</g>
<g id="OGIN_2" style="mix-blend-mode:multiply" opacity="0.29">
<path d="M393.797 383.648C393.797 384.368 393.667 384.99 393.407 385.514C393.147 386.038 392.791 386.443 392.337 386.727C391.884 387.012 391.367 387.154 390.784 387.154C390.202 387.154 389.685 387.012 389.231 386.727C388.778 386.443 388.422 386.038 388.162 385.514C387.902 384.99 387.772 384.368 387.772 383.648C387.772 382.928 387.902 382.306 388.162 381.782C388.422 381.257 388.778 380.853 389.231 380.569C389.685 380.284 390.202 380.142 390.784 380.142C391.367 380.142 391.884 380.284 392.337 380.569C392.791 380.853 393.147 381.257 393.407 381.782C393.667 382.306 393.797 382.928 393.797 383.648ZM392.997 383.648C392.997 383.057 392.898 382.558 392.701 382.152C392.505 381.745 392.24 381.437 391.904 381.228C391.571 381.02 391.198 380.915 390.784 380.915C390.371 380.915 389.997 381.02 389.661 381.228C389.328 381.437 389.063 381.745 388.865 382.152C388.669 382.558 388.572 383.057 388.572 383.648C388.572 384.239 388.669 384.738 388.865 385.144C389.063 385.551 389.328 385.858 389.661 386.067C389.997 386.276 390.371 386.381 390.784 386.381C391.198 386.381 391.571 386.276 391.904 386.067C392.24 385.858 392.505 385.551 392.701 385.144C392.898 384.738 392.997 384.239 392.997 383.648ZM399.852 382.368C399.779 382.144 399.682 381.943 399.562 381.765C399.445 381.585 399.304 381.432 399.139 381.305C398.977 381.178 398.793 381.082 398.586 381.015C398.379 380.949 398.153 380.915 397.906 380.915C397.502 380.915 397.134 381.02 396.803 381.228C396.472 381.437 396.209 381.745 396.013 382.152C395.818 382.558 395.72 383.057 395.72 383.648C395.72 384.239 395.819 384.738 396.017 385.144C396.214 385.551 396.482 385.858 396.82 386.067C397.157 386.276 397.537 386.381 397.959 386.381C398.35 386.381 398.695 386.297 398.993 386.131C399.292 385.962 399.526 385.724 399.692 385.417C399.861 385.109 399.946 384.745 399.946 384.328L400.199 384.381H398.146V383.648H400.745V384.381C400.745 384.943 400.625 385.432 400.386 385.847C400.148 386.263 399.819 386.585 399.399 386.814C398.981 387.04 398.502 387.154 397.959 387.154C397.355 387.154 396.824 387.012 396.366 386.727C395.911 386.443 395.556 386.038 395.3 385.514C395.047 384.99 394.92 384.368 394.92 383.648C394.92 383.108 394.992 382.623 395.137 382.192C395.283 381.758 395.49 381.39 395.757 381.085C396.023 380.781 396.339 380.547 396.703 380.385C397.067 380.223 397.468 380.142 397.906 380.142C398.266 380.142 398.601 380.196 398.913 380.305C399.226 380.412 399.505 380.564 399.749 380.762C399.996 380.957 400.201 381.192 400.366 381.465C400.53 381.736 400.643 382.037 400.705 382.368H399.852ZM402.987 380.235V387.06H402.161V380.235H402.987ZM410.057 380.235V387.06H409.257L405.538 381.702H405.471V387.06H404.645V380.235H405.444L409.177 385.607H409.243V380.235H410.057Z" fill="#565656"/>
</g>
<g id="ASSWORD_2" style="mix-blend-mode:multiply" opacity="0.29">
<path d="M382.523 360.835H381.884L383.731 355.806H384.36L386.206 360.835H385.568L384.065 356.601H384.026L382.523 360.835ZM382.759 358.87H385.332V359.411H382.759V358.87ZM389.74 357.063C389.71 356.814 389.591 356.621 389.381 356.484C389.172 356.346 388.915 356.277 388.61 356.277C388.387 356.277 388.193 356.313 388.026 356.385C387.86 356.457 387.731 356.556 387.638 356.682C387.546 356.809 387.5 356.952 387.5 357.112C387.5 357.246 387.532 357.362 387.596 357.458C387.661 357.553 387.745 357.633 387.846 357.697C387.948 357.759 388.054 357.81 388.166 357.851C388.277 357.891 388.379 357.923 388.473 357.947L388.983 358.085C389.114 358.119 389.26 358.166 389.42 358.227C389.583 358.288 389.737 358.37 389.885 358.475C390.034 358.578 390.156 358.711 390.253 358.873C390.349 359.035 390.398 359.234 390.398 359.47C390.398 359.741 390.327 359.987 390.184 360.206C390.043 360.426 389.837 360.6 389.565 360.729C389.295 360.859 388.967 360.923 388.581 360.923C388.221 360.923 387.909 360.865 387.645 360.749C387.383 360.633 387.177 360.471 387.026 360.263C386.877 360.055 386.793 359.813 386.773 359.538H387.402C387.418 359.728 387.482 359.885 387.594 360.01C387.706 360.133 387.849 360.224 388.021 360.285C388.194 360.344 388.381 360.373 388.581 360.373C388.813 360.373 389.022 360.336 389.207 360.26C389.392 360.183 389.538 360.077 389.646 359.941C389.754 359.804 389.808 359.643 389.808 359.46C389.808 359.293 389.762 359.157 389.668 359.052C389.575 358.947 389.452 358.862 389.3 358.797C389.148 358.731 388.983 358.674 388.807 358.625L388.188 358.448C387.795 358.335 387.484 358.174 387.255 357.964C387.025 357.755 386.911 357.481 386.911 357.142C386.911 356.86 386.987 356.615 387.139 356.405C387.293 356.194 387.499 356.03 387.758 355.914C388.018 355.796 388.309 355.737 388.63 355.737C388.954 355.737 389.242 355.795 389.494 355.911C389.746 356.026 389.946 356.183 390.093 356.383C390.242 356.583 390.321 356.809 390.329 357.063H389.74ZM394.149 357.063C394.12 356.814 394 356.621 393.791 356.484C393.581 356.346 393.324 356.277 393.02 356.277C392.797 356.277 392.602 356.313 392.435 356.385C392.27 356.457 392.141 356.556 392.047 356.682C391.956 356.809 391.91 356.952 391.91 357.112C391.91 357.246 391.942 357.362 392.006 357.458C392.071 357.553 392.155 357.633 392.256 357.697C392.358 357.759 392.464 357.81 392.575 357.851C392.687 357.891 392.789 357.923 392.882 357.947L393.393 358.085C393.524 358.119 393.67 358.166 393.83 358.227C393.992 358.288 394.147 358.37 394.294 358.475C394.443 358.578 394.566 358.711 394.662 358.873C394.759 359.035 394.807 359.234 394.807 359.47C394.807 359.741 394.736 359.987 394.594 360.206C394.453 360.426 394.247 360.6 393.975 360.729C393.705 360.859 393.377 360.923 392.99 360.923C392.63 360.923 392.318 360.865 392.055 360.749C391.793 360.633 391.586 360.471 391.436 360.263C391.287 360.055 391.203 359.813 391.183 359.538H391.812C391.828 359.728 391.892 359.885 392.003 360.01C392.116 360.133 392.258 360.224 392.43 360.285C392.604 360.344 392.791 360.373 392.99 360.373C393.223 360.373 393.431 360.336 393.616 360.26C393.801 360.183 393.948 360.077 394.056 359.941C394.164 359.804 394.218 359.643 394.218 359.46C394.218 359.293 394.171 359.157 394.078 359.052C393.985 358.947 393.862 358.862 393.71 358.797C393.557 358.731 393.393 358.674 393.216 358.625L392.597 358.448C392.204 358.335 391.893 358.174 391.664 357.964C391.435 357.755 391.32 357.481 391.32 357.142C391.32 356.86 391.397 356.615 391.549 356.405C391.703 356.194 391.909 356.03 392.168 355.914C392.428 355.796 392.718 355.737 393.039 355.737C393.363 355.737 393.652 355.795 393.904 355.911C394.156 356.026 394.356 356.183 394.503 356.383C394.652 356.583 394.73 356.809 394.739 357.063H394.149ZM396.722 360.835L395.347 355.806H395.966L397.017 359.902H397.066L398.136 355.806H398.824L399.895 359.902H399.944L400.995 355.806H401.614L400.238 360.835H399.61L398.5 356.827H398.461L397.351 360.835H396.722ZM406.379 358.32C406.379 358.851 406.283 359.309 406.092 359.695C405.9 360.082 405.638 360.38 405.304 360.589C404.97 360.799 404.588 360.904 404.159 360.904C403.73 360.904 403.349 360.799 403.015 360.589C402.681 360.38 402.418 360.082 402.227 359.695C402.035 359.309 401.94 358.851 401.94 358.32C401.94 357.79 402.035 357.332 402.227 356.945C402.418 356.559 402.681 356.261 403.015 356.051C403.349 355.842 403.73 355.737 404.159 355.737C404.588 355.737 404.97 355.842 405.304 356.051C405.638 356.261 405.9 356.559 406.092 356.945C406.283 357.332 406.379 357.79 406.379 358.32ZM405.79 358.32C405.79 357.885 405.717 357.517 405.571 357.218C405.427 356.918 405.232 356.691 404.984 356.538C404.739 356.384 404.464 356.307 404.159 356.307C403.855 356.307 403.579 356.384 403.332 356.538C403.086 356.691 402.891 356.918 402.745 357.218C402.601 357.517 402.529 357.885 402.529 358.32C402.529 358.756 402.601 359.123 402.745 359.423C402.891 359.722 403.086 359.949 403.332 360.103C403.579 360.257 403.855 360.334 404.159 360.334C404.464 360.334 404.739 360.257 404.984 360.103C405.232 359.949 405.427 359.722 405.571 359.423C405.717 359.123 405.79 358.756 405.79 358.32ZM407.403 360.835V355.806H409.102C409.495 355.806 409.818 355.873 410.07 356.007C410.322 356.14 410.509 356.322 410.63 356.555C410.751 356.787 410.812 357.052 410.812 357.348C410.812 357.644 410.751 357.907 410.63 358.136C410.509 358.365 410.323 358.545 410.072 358.676C409.822 358.806 409.502 358.87 409.112 358.87H407.737V358.32H409.093C409.361 358.32 409.577 358.281 409.741 358.202C409.906 358.124 410.026 358.013 410.099 357.869C410.175 357.723 410.212 357.549 410.212 357.348C410.212 357.147 410.175 356.971 410.099 356.82C410.024 356.669 409.904 356.553 409.738 356.471C409.573 356.388 409.355 356.346 409.083 356.346H408.012V360.835H407.403ZM409.77 358.576L411.008 360.835H410.301L409.083 358.576H409.77ZM413.378 360.835H411.826V355.806H413.447C413.935 355.806 414.352 355.907 414.699 356.108C415.046 356.308 415.312 356.595 415.497 356.97C415.682 357.343 415.775 357.79 415.775 358.311C415.775 358.834 415.682 359.285 415.495 359.664C415.308 360.04 415.037 360.33 414.68 360.533C414.323 360.734 413.889 360.835 413.378 360.835ZM412.435 360.295H413.339C413.755 360.295 414.099 360.214 414.373 360.054C414.646 359.894 414.85 359.665 414.984 359.369C415.118 359.073 415.186 358.72 415.186 358.311C415.186 357.905 415.119 357.555 414.987 357.262C414.854 356.967 414.656 356.741 414.392 356.584C414.129 356.425 413.801 356.346 413.408 356.346H412.435V360.295Z" fill="#565656"/>
</g>
</g>
<g id="Group 39318">
<path id="Vector_99" d="M504.776 175.816H271.74V408.852H504.776V175.816Z" fill="#F2F2F2"/>
<path id="Vector_100" d="M504.776 174.982H271.74V194.927H504.776V174.982Z" fill="#AECEFE"/>
<path id="Vector_101" d="M484.878 179.956L496.603 192.033" stroke="#F4F4F4" stroke-width="1.176" stroke-linecap="round" stroke-linejoin="round"/>
<path id="Vector_102" d="M496.79 180.132L484.701 191.857" stroke="#F4F4F4" stroke-width="1.176" stroke-linecap="round" stroke-linejoin="round"/>
<path id="Vector_103" d="M388.246 298.438C408.503 298.438 424.925 282.016 424.925 261.758C424.925 241.501 408.503 225.079 388.246 225.079C367.988 225.079 351.566 241.501 351.566 261.758C351.566 282.016 367.988 298.438 388.246 298.438Z" fill="#B3B3B3"/>
<path id="Vector_104" d="M394.973 266.392H381.731V279.634H394.973V266.392Z" fill="#F7CEB0"/>
<path id="Vector_105" d="M387.917 275.377H377.862V281.551H387.917V275.377Z" fill="#F2F2F2"/>
<path id="Vector_106" d="M400.559 275.377H390.504V281.551H400.559V275.377Z" fill="#F2F2F2"/>
<path id="Vector_107" d="M412.366 301.966H365.326V290.829C365.326 287.67 366.581 284.64 368.815 282.406C371.049 280.171 374.079 278.916 377.239 278.916H400.418C403.578 278.916 406.609 280.171 408.845 282.405C411.081 284.639 412.339 287.669 412.342 290.829L412.366 301.966Z" fill="#537DBD"/>
<path id="Vector_108" d="M370.818 256.937C375.221 256.937 378.791 253.367 378.791 248.964C378.791 244.56 375.221 240.99 370.818 240.99C366.414 240.99 362.844 244.56 362.844 248.964C362.844 253.367 366.414 256.937 370.818 256.937Z" fill="#F7CEB0"/>
<path id="Vector_109" d="M405.673 256.937C410.077 256.937 413.647 253.367 413.647 248.964C413.647 244.56 410.077 240.99 405.673 240.99C401.27 240.99 397.7 244.56 397.7 248.964C397.7 253.367 401.27 256.937 405.673 256.937Z" fill="#F7CEB0"/>
<path id="Vector_110" d="M388.916 222.986H388.775C378.403 222.986 369.994 231.394 369.994 241.766V254.291C369.994 264.663 378.403 273.072 388.775 273.072H388.916C399.288 273.072 407.697 264.663 407.697 254.291V241.766C407.697 231.394 399.288 222.986 388.916 222.986Z" fill="#FFD8B8"/>
<path id="Vector_111" d="M375.721 231.359C377.382 232.101 379.096 232.718 380.849 233.205C384.366 233.95 387.984 234.097 391.55 233.64C395.022 233.435 398.446 232.722 401.711 231.523C404.995 230.302 407.76 227.99 409.543 224.973C410.402 223.457 410.842 221.741 410.819 219.999C410.797 218.257 410.312 216.552 409.414 215.059C409.175 214.666 408.849 214.332 408.461 214.083C407.978 213.839 407.436 213.737 406.897 213.789C405.869 213.835 404.866 214.121 403.969 214.624C403.098 215.106 402.346 215.8 401.464 216.247C401.039 216.512 400.556 216.671 400.056 216.71C399.557 216.749 399.055 216.667 398.594 216.471C398.016 216.042 397.483 215.553 397.007 215.012C396.366 214.552 395.639 214.225 394.869 214.051C394.1 213.877 393.303 213.86 392.526 214.001C391.98 214.018 391.445 214.159 390.962 214.413C389.974 215.001 389.669 216.283 388.892 217.129C388.514 217.543 388.033 217.849 387.498 218.016C386.963 218.183 386.393 218.206 385.847 218.082C384.8 217.835 383.918 217.059 382.848 216.906C382.213 216.873 381.58 216.997 381.004 217.265C380.428 217.534 379.926 217.939 379.543 218.446C378.792 219.467 378.108 220.535 377.497 221.645C376.215 223.644 374.416 225.244 373.063 227.184C372.581 227.89 372.722 231.97 372.722 231.97C372.722 231.97 374.874 230.994 375.721 231.359Z" fill="#2F327D"/>
<path id="Vector_112" d="M379.872 251.01C379.872 251.21 379.813 251.405 379.702 251.572C379.591 251.738 379.433 251.868 379.248 251.944C379.063 252.021 378.86 252.041 378.664 252.002C378.467 251.963 378.287 251.866 378.146 251.725C378.004 251.584 377.908 251.403 377.869 251.207C377.83 251.011 377.85 250.808 377.927 250.623C378.003 250.438 378.133 250.28 378.299 250.169C378.465 250.058 378.661 249.998 378.861 249.998C378.994 249.997 379.126 250.022 379.25 250.072C379.373 250.123 379.485 250.197 379.58 250.291C379.674 250.385 379.748 250.498 379.799 250.621C379.849 250.744 379.874 250.877 379.872 251.01Z" fill="#2F327D"/>
<path id="Vector_113" d="M398.277 252.021C398.836 252.021 399.289 251.568 399.289 251.01C399.289 250.451 398.836 249.999 398.277 249.999C397.719 249.999 397.266 250.451 397.266 251.01C397.266 251.568 397.719 252.021 398.277 252.021Z" fill="#2F327D"/>
<path id="Vector_114" d="M380.273 255.42C380.273 255.929 380.122 256.427 379.839 256.851C379.556 257.274 379.154 257.604 378.683 257.799C378.212 257.994 377.695 258.045 377.195 257.946C376.695 257.846 376.237 257.601 375.876 257.241C375.516 256.881 375.271 256.422 375.172 255.922C375.072 255.423 375.123 254.905 375.318 254.434C375.513 253.964 375.843 253.561 376.267 253.278C376.69 252.995 377.188 252.844 377.698 252.844C378.381 252.844 379.036 253.116 379.519 253.599C380.002 254.082 380.273 254.737 380.273 255.42Z" fill="#FFB19F"/>
<path id="Vector_115" d="M400.276 257.995C401.698 257.995 402.851 256.842 402.851 255.42C402.851 253.997 401.698 252.844 400.276 252.844C398.853 252.844 397.7 253.997 397.7 255.42C397.7 256.842 398.853 257.995 400.276 257.995Z" fill="#FFB19F"/>
<path id="Vector_116" d="M383.848 257.254H394.126C394.126 257.254 388.763 264.016 383.848 257.254Z" fill="#F2F2F2"/>
<path id="Vector_117" d="M458.073 331.46H318.659C316.332 331.46 314.101 330.536 312.455 328.89C310.81 327.245 309.886 325.014 309.886 322.687C309.889 320.362 310.815 318.134 312.459 316.491C314.104 314.848 316.334 313.926 318.659 313.926H458.073C460.397 313.926 462.626 314.849 464.269 316.492C465.912 318.135 466.835 320.363 466.835 322.687V322.687C466.836 323.839 466.611 324.979 466.171 326.043C465.732 327.108 465.086 328.075 464.273 328.89C463.459 329.705 462.493 330.351 461.429 330.792C460.365 331.233 459.225 331.46 458.073 331.46V331.46Z" stroke="#AECEFE" stroke-width="1.176" stroke-miterlimit="10"/>
<path id="Vector_118" d="M458.073 357.591H318.659C316.332 357.591 314.101 356.667 312.455 355.021C310.81 353.376 309.886 351.145 309.886 348.818C309.886 346.491 310.81 344.26 312.455 342.614C314.101 340.969 316.332 340.045 318.659 340.045H458.073C459.225 340.045 460.365 340.272 461.429 340.713C462.493 341.154 463.459 341.8 464.273 342.615C465.086 343.43 465.732 344.397 466.171 345.462C466.611 346.526 466.836 347.666 466.835 348.818V348.818C466.836 349.969 466.611 351.11 466.171 352.174C465.732 353.239 465.086 354.206 464.273 355.021C463.459 355.835 462.493 356.482 461.429 356.923C460.365 357.364 459.225 357.591 458.073 357.591V357.591Z" stroke="#AECEFE" stroke-width="1.176" stroke-miterlimit="10"/>
<g id="Group_5" style="mix-blend-mode:multiply" opacity="0.29">
<g id="Vector_119" style="mix-blend-mode:multiply" opacity="0.29">
<path d="M420.351 372.091H367.901C363.056 372.091 359.128 376.016 359.128 380.858C359.128 385.7 363.056 389.625 367.901 389.625H420.351C425.196 389.625 429.124 385.7 429.124 380.858C429.124 376.016 425.196 372.091 420.351 372.091Z" fill="#565656"/>
</g>
</g>
<path id="Vector_120" d="M414.397 366.286H361.947C357.102 366.286 353.174 370.211 353.174 375.053C353.174 379.895 357.102 383.82 361.947 383.82H414.397C419.242 383.82 423.17 379.895 423.17 375.053C423.17 370.211 419.242 366.286 414.397 366.286Z" fill="#2F327D"/>
<path id="NAME_2" d="M382.56 320.048V325.077H381.971L379.23 321.129H379.181V325.077H378.572V320.048H379.162L381.912 324.007H381.961V320.048H382.56ZM383.985 325.077H383.347L385.193 320.048H385.822L387.668 325.077H387.03L385.527 320.844H385.488L383.985 325.077ZM384.221 323.113H386.794V323.653H384.221V323.113ZM388.452 320.048H389.179L390.888 324.223H390.947L392.656 320.048H393.383V325.077H392.813V321.256H392.764L391.192 325.077H390.642L389.071 321.256H389.021V325.077H388.452V320.048ZM394.604 325.077V320.048H397.639V320.588H395.213V322.288H397.481V322.828H395.213V324.537H397.678V325.077H394.604Z" fill="#AECEFE"/>
<path id="LOGIN_2" d="M380.299 377.466V373.45H380.786V377.034H382.652V377.466H380.299ZM386.638 375.458C386.638 375.881 386.561 376.247 386.408 376.556C386.255 376.864 386.045 377.102 385.779 377.27C385.512 377.437 385.207 377.521 384.865 377.521C384.522 377.521 384.218 377.437 383.951 377.27C383.684 377.102 383.475 376.864 383.322 376.556C383.169 376.247 383.092 375.881 383.092 375.458C383.092 375.034 383.169 374.668 383.322 374.36C383.475 374.051 383.684 373.813 383.951 373.646C384.218 373.478 384.522 373.395 384.865 373.395C385.207 373.395 385.512 373.478 385.779 373.646C386.045 373.813 386.255 374.051 386.408 374.36C386.561 374.668 386.638 375.034 386.638 375.458ZM386.167 375.458C386.167 375.11 386.109 374.816 385.993 374.577C385.877 374.338 385.721 374.157 385.524 374.034C385.328 373.911 385.108 373.85 384.865 373.85C384.622 373.85 384.402 373.911 384.204 374.034C384.008 374.157 383.852 374.338 383.735 374.577C383.62 374.816 383.563 375.11 383.563 375.458C383.563 375.805 383.62 376.099 383.735 376.338C383.852 376.577 384.008 376.758 384.204 376.881C384.402 377.004 384.622 377.066 384.865 377.066C385.108 377.066 385.328 377.004 385.524 376.881C385.721 376.758 385.877 376.577 385.993 376.338C386.109 376.099 386.167 375.805 386.167 375.458ZM390.201 374.705C390.158 374.573 390.101 374.454 390.03 374.35C389.961 374.244 389.878 374.154 389.781 374.079C389.686 374.005 389.577 373.948 389.456 373.908C389.334 373.869 389.201 373.85 389.056 373.85C388.818 373.85 388.601 373.911 388.406 374.034C388.212 374.157 388.057 374.338 387.942 374.577C387.827 374.816 387.769 375.11 387.769 375.458C387.769 375.805 387.827 376.099 387.944 376.338C388.06 376.577 388.218 376.758 388.416 376.881C388.615 377.004 388.839 377.066 389.087 377.066C389.317 377.066 389.52 377.017 389.695 376.919C389.871 376.819 390.009 376.679 390.107 376.499C390.206 376.317 390.256 376.103 390.256 375.858L390.405 375.889H389.197V375.458H390.726V375.889C390.726 376.22 390.656 376.507 390.515 376.752C390.375 376.996 390.181 377.186 389.934 377.321C389.688 377.454 389.406 377.521 389.087 377.521C388.731 377.521 388.419 377.437 388.15 377.27C387.882 377.102 387.672 376.864 387.522 376.556C387.373 376.247 387.299 375.881 387.299 375.458C387.299 375.14 387.341 374.854 387.426 374.601C387.512 374.346 387.634 374.129 387.791 373.95C387.948 373.771 388.133 373.633 388.348 373.538C388.562 373.442 388.798 373.395 389.056 373.395C389.267 373.395 389.465 373.427 389.648 373.491C389.832 373.554 389.996 373.643 390.14 373.759C390.285 373.875 390.406 374.012 390.503 374.173C390.599 374.333 390.666 374.51 390.703 374.705H390.201ZM392.046 373.45V377.466H391.559V373.45H392.046ZM396.205 373.45V377.466H395.735L393.546 374.312H393.507V377.466H393.021V373.45H393.491L395.688 376.611H395.727V373.45H396.205Z" fill="#F2F2F2"/>
<path id="PASSWORD_2" d="M369.692 351.255V346.226H371.392C371.786 346.226 372.109 346.297 372.359 346.44C372.611 346.58 372.798 346.771 372.919 347.012C373.04 347.252 373.101 347.521 373.101 347.817C373.101 348.113 373.04 348.383 372.919 348.625C372.8 348.867 372.615 349.06 372.364 349.204C372.114 349.347 371.793 349.418 371.402 349.418H370.184V348.878H371.382C371.652 348.878 371.869 348.831 372.033 348.738C372.196 348.645 372.315 348.519 372.389 348.36C372.464 348.199 372.502 348.018 372.502 347.817C372.502 347.616 372.464 347.436 372.389 347.277C372.315 347.118 372.196 346.994 372.03 346.904C371.865 346.812 371.645 346.766 371.372 346.766H370.301V351.255H369.692ZM373.775 351.255H373.136L374.983 346.226H375.612L377.458 351.255H376.82L375.317 347.021H375.278L373.775 351.255ZM374.011 349.29H376.584V349.831H374.011V349.29ZM380.992 347.483C380.962 347.234 380.843 347.041 380.633 346.904C380.424 346.766 380.167 346.697 379.862 346.697C379.64 346.697 379.445 346.733 379.278 346.805C379.112 346.877 378.983 346.976 378.89 347.103C378.798 347.229 378.752 347.372 378.752 347.532C378.752 347.666 378.784 347.782 378.848 347.878C378.914 347.973 378.997 348.053 379.099 348.117C379.2 348.179 379.306 348.23 379.418 348.271C379.529 348.311 379.631 348.343 379.725 348.367L380.235 348.505C380.366 348.539 380.512 348.586 380.673 348.647C380.835 348.708 380.989 348.79 381.137 348.895C381.286 348.998 381.408 349.131 381.505 349.293C381.602 349.455 381.65 349.654 381.65 349.89C381.65 350.161 381.579 350.407 381.436 350.626C381.295 350.846 381.089 351.02 380.817 351.149C380.547 351.279 380.219 351.343 379.833 351.343C379.473 351.343 379.161 351.285 378.897 351.169C378.635 351.053 378.429 350.891 378.278 350.683C378.129 350.475 378.045 350.233 378.025 349.958H378.654C378.67 350.148 378.734 350.305 378.846 350.43C378.959 350.553 379.101 350.644 379.273 350.705C379.446 350.764 379.633 350.793 379.833 350.793C380.065 350.793 380.274 350.756 380.459 350.68C380.644 350.603 380.79 350.497 380.898 350.361C381.007 350.224 381.061 350.063 381.061 349.88C381.061 349.713 381.014 349.577 380.921 349.472C380.827 349.367 380.704 349.282 380.552 349.217C380.4 349.151 380.235 349.094 380.059 349.045L379.44 348.868C379.047 348.755 378.736 348.594 378.507 348.384C378.278 348.175 378.163 347.901 378.163 347.562C378.163 347.28 378.239 347.035 378.391 346.825C378.545 346.614 378.751 346.45 379.01 346.334C379.27 346.216 379.561 346.157 379.882 346.157C380.206 346.157 380.494 346.215 380.746 346.331C380.998 346.446 381.198 346.603 381.345 346.803C381.494 347.003 381.573 347.229 381.581 347.483H380.992ZM385.401 347.483C385.372 347.234 385.252 347.041 385.043 346.904C384.833 346.766 384.576 346.697 384.272 346.697C384.049 346.697 383.854 346.733 383.687 346.805C383.522 346.877 383.393 346.976 383.299 347.103C383.208 347.229 383.162 347.372 383.162 347.532C383.162 347.666 383.194 347.782 383.258 347.878C383.323 347.973 383.407 348.053 383.508 348.117C383.61 348.179 383.716 348.23 383.827 348.271C383.939 348.311 384.041 348.343 384.134 348.367L384.645 348.505C384.776 348.539 384.922 348.586 385.082 348.647C385.244 348.708 385.399 348.79 385.546 348.895C385.695 348.998 385.818 349.131 385.915 349.293C386.011 349.455 386.059 349.654 386.059 349.89C386.059 350.161 385.988 350.407 385.846 350.626C385.705 350.846 385.499 351.02 385.227 351.149C384.957 351.279 384.629 351.343 384.242 351.343C383.882 351.343 383.57 351.285 383.307 351.169C383.045 351.053 382.839 350.891 382.688 350.683C382.539 350.475 382.455 350.233 382.435 349.958H383.064C383.08 350.148 383.144 350.305 383.255 350.43C383.368 350.553 383.511 350.644 383.682 350.705C383.856 350.764 384.043 350.793 384.242 350.793C384.475 350.793 384.684 350.756 384.869 350.68C385.053 350.603 385.2 350.497 385.308 350.361C385.416 350.224 385.47 350.063 385.47 349.88C385.47 349.713 385.423 349.577 385.33 349.472C385.237 349.367 385.114 349.282 384.962 349.217C384.81 349.151 384.645 349.094 384.468 349.045L383.849 348.868C383.457 348.755 383.146 348.594 382.916 348.384C382.687 348.175 382.573 347.901 382.573 347.562C382.573 347.28 382.649 347.035 382.801 346.825C382.955 346.614 383.161 346.45 383.42 346.334C383.68 346.216 383.971 346.157 384.291 346.157C384.616 346.157 384.904 346.215 385.156 346.331C385.408 346.446 385.608 346.603 385.755 346.803C385.904 347.003 385.983 347.229 385.991 347.483H385.401ZM387.974 351.255L386.599 346.226H387.218L388.269 350.322H388.318L389.389 346.226H390.076L391.147 350.322H391.196L392.247 346.226H392.866L391.491 351.255H390.862L389.752 347.247H389.713L388.603 351.255H387.974ZM397.631 348.74C397.631 349.271 397.536 349.729 397.344 350.115C397.152 350.502 396.89 350.8 396.556 351.009C396.222 351.219 395.84 351.324 395.411 351.324C394.983 351.324 394.601 351.219 394.267 351.009C393.933 350.8 393.67 350.502 393.479 350.115C393.287 349.729 393.192 349.271 393.192 348.74C393.192 348.21 393.287 347.752 393.479 347.365C393.67 346.979 393.933 346.681 394.267 346.471C394.601 346.262 394.983 346.157 395.411 346.157C395.84 346.157 396.222 346.262 396.556 346.471C396.89 346.681 397.152 346.979 397.344 347.365C397.536 347.752 397.631 348.21 397.631 348.74ZM397.042 348.74C397.042 348.305 396.969 347.937 396.823 347.638C396.679 347.338 396.484 347.112 396.237 346.958C395.991 346.804 395.716 346.727 395.411 346.727C395.107 346.727 394.831 346.804 394.584 346.958C394.338 347.112 394.143 347.338 393.997 347.638C393.853 347.937 393.781 348.305 393.781 348.74C393.781 349.176 393.853 349.543 393.997 349.843C394.143 350.143 394.338 350.369 394.584 350.523C394.831 350.677 395.107 350.754 395.411 350.754C395.716 350.754 395.991 350.677 396.237 350.523C396.484 350.369 396.679 350.143 396.823 349.843C396.969 349.543 397.042 349.176 397.042 348.74ZM398.655 351.255V346.226H400.355C400.747 346.226 401.07 346.293 401.322 346.427C401.574 346.56 401.761 346.742 401.882 346.975C402.003 347.207 402.064 347.472 402.064 347.768C402.064 348.064 402.003 348.327 401.882 348.556C401.761 348.785 401.575 348.965 401.324 349.096C401.074 349.226 400.754 349.29 400.364 349.29H398.989V348.74H400.345C400.613 348.74 400.829 348.701 400.993 348.623C401.158 348.544 401.278 348.433 401.352 348.289C401.427 348.143 401.464 347.969 401.464 347.768C401.464 347.567 401.427 347.391 401.352 347.24C401.276 347.089 401.156 346.973 400.991 346.891C400.825 346.808 400.607 346.766 400.335 346.766H399.264V351.255H398.655ZM401.022 348.996L402.26 351.255H401.553L400.335 348.996H401.022ZM404.63 351.255H403.078V346.226H404.699C405.187 346.226 405.604 346.327 405.951 346.528C406.298 346.728 406.564 347.015 406.749 347.39C406.934 347.763 407.027 348.21 407.027 348.731C407.027 349.254 406.934 349.705 406.747 350.084C406.56 350.46 406.289 350.75 405.932 350.953C405.575 351.154 405.141 351.255 404.63 351.255ZM403.687 350.715H404.591C405.007 350.715 405.351 350.634 405.625 350.474C405.898 350.314 406.102 350.085 406.236 349.789C406.37 349.493 406.438 349.14 406.438 348.731C406.438 348.325 406.371 347.975 406.239 347.682C406.106 347.387 405.908 347.161 405.644 347.004C405.381 346.846 405.053 346.766 404.66 346.766H403.687V350.715Z" fill="#AECEFE"/>
</g>
</g>
</g>
</g>
<defs>
<linearGradient id="paint0_linear_180_1892" x1="299.858" y1="515.053" x2="299.858" y2="456.359" gradientUnits="userSpaceOnUse">
<stop stop-color="white" stop-opacity="0"/>
<stop offset="1"/>
</linearGradient>
</defs>
</svg>
