<svg width="28" height="29" viewBox="0 0 28 29" fill="none" xmlns="http://www.w3.org/2000/svg">
<path d="M24.5 14.6161V19.8661H3.5V5.86609H14V4.11609H3.5C3.03587 4.11609 2.59075 4.30046 2.26256 4.62865C1.93437 4.95684 1.75 5.40196 1.75 5.86609V19.8661C1.75 20.3302 1.93437 20.7753 2.26256 21.1035C2.59075 21.4317 3.03587 21.6161 3.5 21.6161H10.5V25.1161H7V26.8661H21V25.1161H17.5V21.6161H24.5C24.9641 21.6161 25.4092 21.4317 25.7374 21.1035C26.0656 20.7753 26.25 20.3302 26.25 19.8661V14.6161H24.5ZM15.75 25.1161H12.25V21.6161H15.75V25.1161Z" fill="#9B9B9B"/>
<path d="M18.375 13.7411L14 9.40109L15.3913 8.02734L18.375 10.9848L24.8587 4.55359L26.25 5.93609L18.375 13.7411Z" fill="#9B9B9B"/>
</svg>
