<svg width="36" height="35" viewBox="0 0 36 35" fill="none" xmlns="http://www.w3.org/2000/svg">
<path d="M17.9996 20.1071C17.9698 19.5806 18.1118 19.0586 18.4044 18.6198C18.6969 18.1809 19.1241 17.8491 19.6217 17.6741C20.2313 17.4409 20.7786 17.0695 21.2203 16.5889C21.662 16.1083 21.9861 15.5318 22.1671 14.9046C22.3482 14.2775 22.3811 13.6169 22.2635 12.9749C22.1458 12.3328 21.8808 11.7269 21.4891 11.2047C21.0975 10.6825 20.59 10.2583 20.0065 9.96562C19.4231 9.6729 18.7797 9.5196 18.127 9.51779C17.4743 9.51598 16.83 9.66571 16.245 9.95519C15.66 10.2447 15.1501 10.666 14.7556 11.186M17.9996 25.7842V25.8004V25.7842ZM32.5978 17.6741C32.5978 25.7365 26.062 32.2723 17.9996 32.2723C9.93721 32.2723 3.40137 25.7365 3.40137 17.6741C3.40137 9.61174 9.93721 3.0759 17.9996 3.0759C26.062 3.0759 32.5978 9.61174 32.5978 17.6741Z" stroke="#232323" stroke-opacity="0.45" stroke-width="2.43304" stroke-linecap="round" stroke-linejoin="round"/>
</svg>
