<svg width="569" height="148" viewBox="0 0 569 148" fill="none" xmlns="http://www.w3.org/2000/svg">
<path d="M35.648 42.8V11.952C35.648 9.968 35.2 8.56 34.304 7.792C33.408 7.024 31.808 6.64 29.632 6.64L28.224 6.576C27.136 6.576 26.24 6.832 25.536 7.28C24.768 7.792 24.448 8.752 24.448 10.16L24.448 22.192L12.16 22.192L12.16 11.952C12.16 9.968 11.712 8.56 10.816 7.792C9.92 7.024 8.32 6.64 6.144 6.64L4.736 6.576C3.648 6.576 2.752 6.832 2.048 7.28C1.28 7.792 0.96 8.752 0.96 10.16L0.96 41.008C0.96 43.056 1.408 44.4 2.304 45.168C3.2 45.936 4.736 46.32 6.976 46.32L9.6 46.192C11.264 46.064 12.16 44.912 12.16 42.8L12.16 31.024L24.448 31.024L24.448 41.008C24.448 43.056 24.896 44.4 25.792 45.168C26.688 45.936 28.224 46.32 30.464 46.32L33.088 46.192C34.752 46.064 35.648 44.912 35.648 42.8ZM65.873 16.944C63.185 14.96 59.409 13.936 54.481 13.936C50.577 13.936 47.505 14.384 45.329 15.28C44.113 15.792 43.281 16.368 42.769 17.008C42.257 17.648 42.065 18.544 42.065 19.632C42.065 20.656 42.257 21.552 42.769 22.256C43.217 22.96 43.857 23.28 44.753 23.28C45.137 23.28 45.713 23.216 46.609 22.96C48.977 22.384 51.089 22.064 52.945 22.064C57.169 22.064 59.281 23.216 59.281 25.52V25.968L50.897 26.864C47.185 27.248 44.497 28.272 42.769 29.808C40.977 31.408 40.145 33.648 40.145 36.592C40.145 40.048 41.425 42.608 43.985 44.4C46.545 46.192 50.257 47.024 54.993 47.024C60.049 47.024 63.953 46.192 66.705 44.528C67.793 43.888 68.561 43.248 69.073 42.544C69.585 41.84 69.841 41.008 69.841 39.984V25.648C69.841 21.808 68.497 18.928 65.873 16.944ZM57.489 38.896C56.657 39.024 55.825 39.088 54.993 39.088C52.049 39.088 50.641 38.128 50.641 36.208C50.641 34.608 51.985 33.712 54.737 33.52L59.345 33.136V38.256C58.961 38.512 58.321 38.768 57.489 38.896ZM96.172 45.104C96.556 44.72 96.94 44.08 97.324 43.312C98.412 41.072 99.628 38.256 100.908 34.8C102.188 31.408 103.34 28.144 104.236 25.072C105.132 22 105.644 19.824 105.644 18.544C105.644 15.728 103.852 14.256 100.332 14.256C99.436 14.256 98.476 14.384 97.516 14.64C96.748 14.832 96.172 15.152 95.724 15.664C95.276 16.176 94.956 16.944 94.7 17.904C93.74 22.512 92.268 28.976 90.22 37.296H89.9L88.94 33.648C88.492 32.112 88.044 30.384 87.596 28.464L85.1 18.672C84.588 17.072 83.884 15.92 82.988 15.28C82.092 14.64 80.812 14.256 79.276 14.256C77.804 14.256 76.588 14.576 75.564 15.152C74.54 15.792 74.028 16.624 74.028 17.712C74.028 18.16 74.092 18.608 74.22 19.056C74.86 21.552 75.564 23.92 76.332 26.096C77.548 29.936 78.828 33.584 80.108 37.04C81.388 40.496 82.348 42.8 83.052 44.08C83.5 44.976 84.332 45.68 85.548 46.128C86.7 46.576 88.172 46.768 89.9 46.768C91.692 46.768 93.292 46.576 94.572 46.128C95.212 45.872 95.724 45.552 96.172 45.104ZM126.147 47.152L128.451 47.28L131.011 47.152C133.443 47.024 135.299 46.512 136.707 45.616C138.051 44.72 138.755 43.44 138.755 41.776C138.755 40.88 138.499 40.048 138.115 39.344C137.667 38.704 136.963 38.32 136.003 38.32C135.235 38.32 134.595 38.448 134.147 38.576C132.675 39.024 131.075 39.216 129.283 39.216C127.107 39.216 125.059 38.64 123.139 37.424C121.219 36.272 120.131 34.864 119.747 33.264H136.259C137.731 33.264 138.883 32.88 139.779 32.112C140.611 31.344 141.123 30.256 141.251 28.848C141.251 28.72 141.315 28.336 141.315 27.632C141.315 24.304 140.163 21.36 137.923 18.8C136.451 17.264 134.659 16.112 132.547 15.216C130.371 14.384 128.067 13.936 125.635 13.936C121.283 13.936 117.635 15.216 114.819 17.712C111.939 20.272 110.339 23.92 109.955 28.656C109.891 28.912 109.891 29.552 109.891 30.704C109.891 35.376 111.299 39.152 114.179 42.096C117.059 45.04 121.027 46.704 126.147 47.152ZM122.051 23.088C123.075 22.32 124.227 21.872 125.571 21.872C127.171 21.872 128.515 22.384 129.539 23.344C130.563 24.304 131.011 25.392 131.011 26.672L119.939 26.544C120.323 25.072 121.027 23.92 122.051 23.088ZM186.613 16.944C183.925 14.96 180.149 13.936 175.221 13.936C171.317 13.936 168.245 14.384 166.069 15.28C164.853 15.792 164.021 16.368 163.509 17.008C162.997 17.648 162.805 18.544 162.805 19.632C162.805 20.656 162.997 21.552 163.509 22.256C163.957 22.96 164.597 23.28 165.493 23.28C165.877 23.28 166.453 23.216 167.349 22.96C169.717 22.384 171.829 22.064 173.685 22.064C177.909 22.064 180.021 23.216 180.021 25.52V25.968L171.637 26.864C167.925 27.248 165.237 28.272 163.509 29.808C161.717 31.408 160.885 33.648 160.885 36.592C160.885 40.048 162.165 42.608 164.725 44.4C167.285 46.192 170.997 47.024 175.733 47.024C180.789 47.024 184.693 46.192 187.445 44.528C188.533 43.888 189.301 43.248 189.813 42.544C190.325 41.84 190.581 41.008 190.581 39.984V25.648C190.581 21.808 189.237 18.928 186.613 16.944ZM178.229 38.896C177.397 39.024 176.565 39.088 175.733 39.088C172.789 39.088 171.381 38.128 171.381 36.208C171.381 34.608 172.725 33.712 175.477 33.52L180.085 33.136V38.256C179.701 38.512 179.061 38.768 178.229 38.896ZM214.782 26.288V41.392C214.782 43.312 215.23 44.592 216.126 45.36C217.022 46.128 218.622 46.512 220.798 46.512L222.078 46.576C222.974 46.64 223.806 46.448 224.574 45.936C225.278 45.424 225.662 44.464 225.662 42.992V25.904C225.662 22.192 224.318 19.248 221.758 17.136C219.134 15.024 215.422 13.936 210.622 13.936C208.062 13.936 205.694 14.256 203.518 14.896C201.278 15.536 199.358 16.368 197.822 17.392C196.798 18.096 196.094 18.8 195.71 19.504C195.262 20.272 195.07 21.168 195.07 22.192V41.392C195.07 43.312 195.518 44.592 196.414 45.36C197.31 46.128 198.91 46.512 201.086 46.512L202.366 46.576C203.262 46.64 204.094 46.448 204.862 45.936C205.566 45.424 205.95 44.464 205.95 42.992V23.728C207.166 22.896 208.702 22.448 210.622 22.448C211.902 22.448 212.926 22.768 213.694 23.408C214.398 24.048 214.782 25.008 214.782 26.288ZM438.124 46.192L455.276 46.192C457.9 46.192 459.244 44.656 459.244 41.52C459.244 41.008 459.116 40.24 458.924 39.28C458.476 37.872 457.324 37.168 455.404 37.168L443.372 37.168V11.888C443.372 9.904 442.924 8.496 442.028 7.728C441.132 6.96 439.532 6.576 437.356 6.576L435.948 6.512C434.86 6.512 433.964 6.768 433.26 7.216C432.492 7.728 432.172 8.688 432.172 10.096V40.24C432.172 42.096 432.684 43.568 433.772 44.592C434.796 45.68 436.268 46.192 438.124 46.192ZM479.427 47.152L481.731 47.28L484.291 47.152C486.723 47.024 488.579 46.512 489.987 45.616C491.331 44.72 492.035 43.44 492.035 41.776C492.035 40.88 491.779 40.048 491.395 39.344C490.947 38.704 490.243 38.32 489.283 38.32C488.515 38.32 487.875 38.448 487.427 38.576C485.955 39.024 484.355 39.216 482.563 39.216C480.387 39.216 478.339 38.64 476.419 37.424C474.499 36.272 473.411 34.864 473.027 33.264L489.539 33.264C491.011 33.264 492.163 32.88 493.059 32.112C493.891 31.344 494.403 30.256 494.531 28.848C494.531 28.72 494.595 28.336 494.595 27.632C494.595 24.304 493.443 21.36 491.203 18.8C489.731 17.264 487.939 16.112 485.827 15.216C483.651 14.384 481.347 13.936 478.915 13.936C474.563 13.936 470.915 15.216 468.099 17.712C465.219 20.272 463.619 23.92 463.235 28.656C463.171 28.912 463.171 29.552 463.171 30.704C463.171 35.376 464.579 39.152 467.459 42.096C470.339 45.04 474.307 46.704 479.427 47.152ZM475.331 23.088C476.355 22.32 477.507 21.872 478.851 21.872C480.451 21.872 481.795 22.384 482.819 23.344C483.843 24.304 484.291 25.392 484.291 26.672L473.219 26.544C473.603 25.072 474.307 23.92 475.331 23.088ZM498.792 20.528V22.704C498.792 23.536 499.048 24.24 499.624 24.816C500.2 25.392 500.904 25.648 501.736 25.648H504.36V36.08C504.36 39.792 505.32 42.48 507.304 44.272C509.224 46.064 512.168 46.96 516.072 46.96C521.576 46.96 524.328 45.168 524.328 41.456C524.328 40.432 524.072 39.6 523.688 39.088C523.24 38.576 522.472 38.256 521.32 38.256L520.168 38.32C520.04 38.384 519.72 38.384 519.144 38.384C516.456 38.384 515.112 37.36 515.112 35.312V25.648H520.936C523.368 25.648 524.584 24.24 524.584 21.424C524.584 20.912 524.456 20.208 524.264 19.312C523.944 18.032 522.792 17.328 520.808 17.328H515.112V13.232C515.112 11.312 514.664 9.968 513.768 9.2C512.872 8.432 511.336 8.048 509.16 8.048C508.264 8.048 507.496 8.112 506.728 8.24C505.96 8.368 505.32 8.688 504.936 9.264C504.552 9.904 504.36 10.672 504.36 11.632V17.52L501.672 17.584C500.84 17.584 500.136 17.904 499.624 18.416C499.048 18.992 498.792 19.696 498.792 20.528ZM537.574 1.008C537.19 2.50133 536.7 4.12266 536.102 5.872C535.505 7.62133 534.844 9.37066 534.118 11.12C533.436 12.8267 532.753 14.448 532.07 15.984H527.91C528.209 14.7893 528.508 13.5093 528.806 12.144C529.148 10.7787 529.446 9.41333 529.702 8.048C530.001 6.64 530.257 5.27466 530.47 3.952C530.726 2.62933 530.94 1.41333 531.11 0.303996L537.126 0.303996L537.574 1.008ZM565.146 44.4C567.578 42.608 568.858 40.048 568.858 36.72C568.858 34.032 567.962 31.92 566.17 30.256C564.378 28.656 561.498 27.376 557.53 26.48L555.546 26.032C554.33 25.776 553.498 25.52 553.114 25.2C552.666 24.944 552.474 24.56 552.474 24.048C552.474 23.408 552.794 22.896 553.562 22.512C554.202 22.256 555.29 22.064 556.89 22.064C558.362 22.064 559.962 22.32 561.626 22.704L563.546 23.28C563.93 23.408 564.314 23.472 564.698 23.472C565.53 23.472 566.17 23.152 566.618 22.384C567.066 21.68 567.322 20.784 567.322 19.76C567.322 17.904 566.298 16.432 564.25 15.408C562.202 14.384 559.45 13.872 555.93 13.872C551.706 13.872 548.314 14.768 545.754 16.56C544.474 17.456 543.514 18.48 542.874 19.76C542.17 21.04 541.85 22.512 541.85 24.048C541.85 26.864 542.682 29.104 544.474 30.64C546.202 32.24 549.018 33.392 552.858 34.16L554.778 34.544C555.93 34.8 556.826 35.056 557.338 35.376C557.85 35.76 558.106 36.208 558.106 36.784C558.106 37.424 557.722 37.936 557.018 38.32C556.25 38.704 555.29 38.896 554.01 38.896C551.642 38.896 549.21 38.448 546.65 37.424C546.01 37.168 545.37 36.976 544.666 36.976C543.77 36.976 543.13 37.36 542.682 38.064C542.234 38.768 542.042 39.6 542.042 40.624C542.042 42.672 543.13 44.272 545.306 45.424C547.482 46.576 550.554 47.088 554.458 47.088C559.13 47.088 562.714 46.192 565.146 44.4ZM139.072 97.28V128.448C139.072 130.496 139.968 132.224 141.888 133.568C145.088 135.872 149.12 137.024 154.048 137.024C156.608 137.024 158.976 136.704 161.152 136C163.328 135.296 165.12 134.272 166.656 132.864C169.792 129.984 171.392 125.824 171.392 120.448C171.392 115.328 169.856 111.232 166.848 108.16C165.44 106.816 163.776 105.792 161.984 105.024C160.128 104.32 158.208 103.936 156.16 103.936C153.984 103.936 151.936 104.32 149.952 105.088V98.816C149.952 96.896 149.504 95.616 148.608 94.848C147.712 94.08 146.176 93.696 144 93.696L142.592 93.632C141.568 93.632 140.672 93.888 140.032 94.4C139.392 94.912 139.072 95.872 139.072 97.28ZM158.592 126.4C157.504 127.808 155.968 128.448 154.048 128.448C152.32 128.448 150.912 128.128 149.888 127.424V113.472C150.656 113.088 151.296 112.832 151.936 112.704C152.576 112.576 153.28 112.448 154.112 112.448C156.032 112.448 157.568 113.152 158.656 114.56C159.68 115.968 160.256 117.888 160.256 120.448C160.256 123.008 159.68 124.992 158.592 126.4ZM186.762 132.992V114.112C187.53 113.792 188.618 113.472 190.026 113.152C191.434 112.896 192.778 112.64 194.186 112.512C196.298 112.32 197.45 111.488 197.642 109.952C197.642 109.888 197.706 109.568 197.706 109.056C197.706 105.728 195.466 104 191.05 104C188.682 104 186.25 104.384 183.754 105.088C180.938 105.984 178.954 107.008 177.738 108.032C176.458 109.12 175.882 110.528 175.882 112.192V131.392C175.882 133.312 176.33 134.592 177.226 135.36C178.122 136.128 179.722 136.512 181.898 136.512L183.178 136.576C184.074 136.64 184.906 136.448 185.674 135.936C186.378 135.424 186.762 134.464 186.762 132.992ZM202.919 92.16C201.767 93.248 201.255 94.592 201.255 96.256C201.255 97.92 201.767 99.328 202.919 100.416C204.007 101.504 205.415 102.016 207.207 102.016C208.935 102.016 210.343 101.504 211.495 100.416C212.583 99.328 213.159 97.92 213.159 96.256C213.159 94.592 212.583 93.248 211.495 92.16C210.343 91.072 208.935 90.496 207.207 90.496C205.415 90.496 204.007 91.072 202.919 92.16ZM212.647 132.992V109.888C212.647 108.032 212.135 106.688 211.239 105.92C210.343 105.152 208.807 104.768 206.631 104.768L205.223 104.704C204.199 104.704 203.367 104.96 202.727 105.408C202.087 105.92 201.767 106.88 201.767 108.288V131.392C201.767 133.312 202.215 134.592 203.111 135.36C204.007 136.128 205.607 136.512 207.783 136.512H209.191C210.151 136.576 210.983 136.384 211.623 135.872C212.263 135.424 212.647 134.464 212.647 132.992ZM237.339 116.288V131.392C237.339 133.312 237.787 134.592 238.683 135.36C239.579 136.128 241.179 136.512 243.355 136.512L244.635 136.576C245.531 136.64 246.363 136.448 247.131 135.936C247.835 135.424 248.219 134.464 248.219 132.992V115.904C248.219 112.192 246.875 109.248 244.315 107.136C241.691 105.024 237.979 103.936 233.179 103.936C230.619 103.936 228.251 104.256 226.075 104.896C223.835 105.536 221.915 106.368 220.379 107.392C219.355 108.096 218.651 108.8 218.267 109.504C217.819 110.272 217.627 111.168 217.627 112.192V131.392C217.627 133.312 218.075 134.592 218.971 135.36C219.867 136.128 221.467 136.512 223.643 136.512L224.923 136.576C225.819 136.64 226.651 136.448 227.419 135.936C228.123 135.424 228.507 134.464 228.507 132.992V113.728C229.723 112.896 231.259 112.448 233.179 112.448C234.459 112.448 235.483 112.768 236.251 113.408C236.955 114.048 237.339 115.008 237.339 116.288ZM280.911 107.264C277.711 105.088 273.871 103.936 269.263 103.936C264.079 103.936 260.047 105.28 257.103 107.968C254.159 110.656 252.687 114.368 252.687 119.232C252.687 124.224 254.095 128.064 257.039 130.752C258.255 131.904 259.727 132.8 261.455 133.44C263.183 134.08 265.039 134.336 267.023 134.336C268.431 134.336 269.519 134.272 270.287 134.08C271.695 133.888 272.463 133.76 272.655 133.76C273.167 133.76 273.423 133.952 273.423 134.208C273.423 137.472 270.863 139.072 265.871 139.072C263.823 139.072 261.647 138.688 259.343 137.792C258.575 137.536 257.935 137.344 257.423 137.344C256.527 137.344 255.887 137.728 255.503 138.368C255.055 139.072 254.863 139.904 254.863 140.928C254.863 145.408 259.023 147.584 267.343 147.584C272.335 147.584 276.303 146.432 279.247 144.128C282.191 141.824 283.663 138.624 283.663 134.464V112.064C283.663 111.04 283.407 110.144 283.023 109.376C282.575 108.672 281.871 107.968 280.911 107.264ZM273.231 122.432C273.231 124.48 272.527 125.696 271.247 125.952C270.735 126.144 270.031 126.208 269.071 126.208C267.279 126.208 265.871 125.632 264.911 124.416C263.951 123.264 263.503 121.536 263.503 119.232C263.503 117.056 264.015 115.392 265.103 114.24C266.127 113.088 267.727 112.448 269.775 112.448C270.415 112.448 271.055 112.512 271.567 112.64C272.655 112.896 273.231 114.048 273.231 115.968V122.432ZM305.159 92.16C304.007 93.248 303.495 94.592 303.495 96.256C303.495 97.92 304.007 99.328 305.159 100.416C306.247 101.504 307.655 102.016 309.447 102.016C311.175 102.016 312.583 101.504 313.735 100.416C314.823 99.328 315.399 97.92 315.399 96.256C315.399 94.592 314.823 93.248 313.735 92.16C312.583 91.072 311.175 90.496 309.447 90.496C307.655 90.496 306.247 91.072 305.159 92.16ZM314.887 132.992V109.888C314.887 108.032 314.375 106.688 313.479 105.92C312.583 105.152 311.047 104.768 308.871 104.768L307.463 104.704C306.439 104.704 305.607 104.96 304.967 105.408C304.327 105.92 304.007 106.88 304.007 108.288V131.392C304.007 133.312 304.455 134.592 305.351 135.36C306.247 136.128 307.847 136.512 310.023 136.512H311.431C312.391 136.576 313.223 136.384 313.863 135.872C314.503 135.424 314.887 134.464 314.887 132.992ZM319.867 110.528V112.704C319.867 113.536 320.123 114.24 320.699 114.816C321.275 115.392 321.979 115.648 322.811 115.648H325.435V126.08C325.435 129.792 326.395 132.48 328.379 134.272C330.299 136.064 333.243 136.96 337.147 136.96C342.651 136.96 345.403 135.168 345.403 131.456C345.403 130.432 345.147 129.6 344.763 129.088C344.315 128.576 343.547 128.256 342.395 128.256L341.243 128.32C341.115 128.384 340.795 128.384 340.219 128.384C337.531 128.384 336.187 127.36 336.187 125.312V115.648H342.011C344.443 115.648 345.659 114.24 345.659 111.424C345.659 110.912 345.531 110.208 345.339 109.312C345.019 108.032 343.867 107.328 341.883 107.328H336.187V103.232C336.187 101.312 335.739 99.968 334.843 99.2C333.947 98.432 332.411 98.048 330.235 98.048C329.339 98.048 328.571 98.112 327.803 98.24C327.035 98.368 326.395 98.688 326.011 99.264C325.627 99.904 325.435 100.672 325.435 101.632V107.52L322.747 107.584C321.915 107.584 321.211 107.904 320.699 108.416C320.123 108.992 319.867 109.696 319.867 110.528ZM368.39 106.176H375.366V131.008C375.366 133.056 375.814 134.4 376.71 135.168C377.606 135.936 379.142 136.32 381.382 136.32L384.006 136.192C385.67 136.064 386.566 134.912 386.566 132.8V106.176H393.67C394.95 106.176 395.91 105.792 396.614 105.024C397.318 104.256 397.702 103.04 397.702 101.504C397.702 100.928 397.574 100.16 397.382 99.2C396.934 97.792 395.782 97.024 393.862 97.024H368.582C367.302 97.024 366.278 97.472 365.574 98.24C364.87 99.008 364.55 100.16 364.55 101.696C364.55 102.336 364.614 103.104 364.87 104C365.254 105.472 366.47 106.176 368.39 106.176ZM427.352 132.672C430.36 129.728 431.896 125.696 431.896 120.448C431.896 118.016 431.448 115.776 430.68 113.728C429.912 111.68 428.76 109.888 427.288 108.416C425.752 107.008 423.96 105.856 421.912 105.088C419.8 104.32 417.56 103.936 415.128 103.936C410.136 103.936 406.104 105.408 403.032 108.352C401.496 109.824 400.344 111.616 399.576 113.664C398.744 115.712 398.36 118.016 398.36 120.448C398.36 125.632 399.896 129.664 403.032 132.544C405.976 135.552 410.008 137.024 415.128 137.024C420.248 137.024 424.344 135.616 427.352 132.672ZM410.968 126.4C409.944 124.992 409.496 123.008 409.496 120.448C409.496 117.888 409.944 115.968 410.968 114.56C411.928 113.152 413.336 112.448 415.128 112.448C416.92 112.448 418.264 113.152 419.288 114.56C420.248 115.968 420.76 117.888 420.76 120.448C420.76 123.008 420.248 124.992 419.288 126.4C418.328 127.808 416.984 128.512 415.192 128.512C413.4 128.512 411.992 127.808 410.968 126.4ZM457.682 136.192H474.834C477.458 136.192 478.802 134.656 478.802 131.52C478.802 131.008 478.674 130.24 478.482 129.28C478.034 127.872 476.882 127.168 474.962 127.168H462.93V101.888C462.93 99.904 462.482 98.496 461.586 97.728C460.69 96.96 459.09 96.576 456.914 96.576L455.506 96.512C454.418 96.512 453.522 96.768 452.818 97.216C452.05 97.728 451.73 98.688 451.73 100.096V130.24C451.73 132.096 452.242 133.568 453.33 134.592C454.354 135.68 455.826 136.192 457.682 136.192ZM484.954 92.16C483.802 93.248 483.29 94.592 483.29 96.256C483.29 97.92 483.802 99.328 484.954 100.416C486.042 101.504 487.45 102.016 489.242 102.016C490.97 102.016 492.378 101.504 493.53 100.416C494.618 99.328 495.194 97.92 495.194 96.256C495.194 94.592 494.618 93.248 493.53 92.16C492.378 91.072 490.97 90.496 489.242 90.496C487.45 90.496 486.042 91.072 484.954 92.16ZM494.682 132.992V109.888C494.682 108.032 494.17 106.688 493.274 105.92C492.378 105.152 490.842 104.768 488.666 104.768L487.258 104.704C486.234 104.704 485.402 104.96 484.762 105.408C484.122 105.92 483.802 106.88 483.802 108.288V131.392C483.802 133.312 484.25 134.592 485.146 135.36C486.042 136.128 487.642 136.512 489.818 136.512H491.226C492.186 136.576 493.018 136.384 493.658 135.872C494.298 135.424 494.682 134.464 494.682 132.992ZM499.662 104.896V131.392C499.662 133.312 500.11 134.592 501.006 135.36C501.902 136.128 503.502 136.512 505.678 136.512L506.958 136.576C507.854 136.64 508.686 136.448 509.454 135.936C510.158 135.424 510.542 134.464 510.542 132.992V115.648H517.902C520.334 115.648 521.55 114.24 521.55 111.424C521.55 110.912 521.422 110.208 521.23 109.312C520.91 108.032 519.758 107.328 517.774 107.328H509.966V105.28C509.966 103.872 510.414 102.848 511.374 102.144C512.334 101.504 513.806 101.12 515.79 101.12C516.942 101.12 517.966 101.184 518.862 101.312L520.142 101.44C522.062 101.44 523.086 100.352 523.086 98.048C523.086 96.064 522.382 94.656 520.974 93.824C519.566 92.992 517.198 92.544 513.87 92.544C509.454 92.544 505.998 93.632 503.438 95.744C500.878 97.92 499.662 100.928 499.662 104.896ZM540.542 137.152L542.846 137.28L545.406 137.152C547.838 137.024 549.694 136.512 551.102 135.616C552.446 134.72 553.15 133.44 553.15 131.776C553.15 130.88 552.894 130.048 552.51 129.344C552.062 128.704 551.358 128.32 550.398 128.32C549.63 128.32 548.99 128.448 548.542 128.576C547.07 129.024 545.47 129.216 543.678 129.216C541.502 129.216 539.454 128.64 537.534 127.424C535.614 126.272 534.526 124.864 534.142 123.264L550.654 123.264C552.126 123.264 553.278 122.88 554.174 122.112C555.006 121.344 555.518 120.256 555.646 118.848C555.646 118.72 555.71 118.336 555.71 117.632C555.71 114.304 554.558 111.36 552.318 108.8C550.846 107.264 549.054 106.112 546.942 105.216C544.766 104.384 542.462 103.936 540.03 103.936C535.678 103.936 532.03 105.216 529.214 107.712C526.334 110.272 524.734 113.92 524.35 118.656C524.286 118.912 524.286 119.552 524.286 120.704C524.286 125.376 525.694 129.152 528.574 132.096C531.454 135.04 535.422 136.704 540.542 137.152ZM536.446 113.088C537.47 112.32 538.622 111.872 539.966 111.872C541.566 111.872 542.91 112.384 543.934 113.344C544.958 114.304 545.406 115.392 545.406 116.672L534.334 116.544C534.718 115.072 535.422 113.92 536.446 113.088Z" fill="white"/>
<path d="M256.702 42.8V11.952C256.702 9.968 256.254 8.56 255.358 7.792C254.462 7.024 252.862 6.64 250.686 6.64L249.278 6.576C248.19 6.576 247.294 6.832 246.59 7.28C245.822 7.792 245.502 8.752 245.502 10.16V41.008C245.502 43.056 245.95 44.4 246.846 45.168C247.742 45.936 249.278 46.32 251.518 46.32L254.142 46.192C255.806 46.064 256.702 44.912 256.702 42.8ZM265.667 18.288C262.659 21.232 261.187 25.264 261.187 30.448C261.187 35.632 262.723 39.664 265.859 42.608C268.995 45.552 273.347 47.024 278.851 47.024C281.411 47.024 283.651 46.704 285.635 46.064C288.323 45.232 290.243 44.272 291.459 43.248C292.611 42.224 293.251 40.88 293.251 39.152V8.816C293.251 6.896 292.803 5.616 291.907 4.848C291.011 4.08 289.475 3.696 287.299 3.696L285.891 3.632C284.867 3.632 283.971 3.888 283.331 4.4C282.691 4.912 282.371 5.872 282.371 7.28V14.704C281.219 14.192 279.683 13.936 277.891 13.936C272.707 13.936 268.611 15.408 265.667 18.288ZM273.987 24.496C275.203 23.152 276.995 22.448 279.363 22.448C280.579 22.448 281.603 22.704 282.435 23.216V37.296C281.603 38.064 280.451 38.448 278.915 38.448C276.739 38.448 275.075 37.808 273.923 36.464C272.771 35.12 272.195 33.136 272.195 30.448C272.195 27.824 272.771 25.84 273.987 24.496ZM314.067 47.152L316.371 47.28L318.931 47.152C321.363 47.024 323.219 46.512 324.627 45.616C325.971 44.72 326.675 43.44 326.675 41.776C326.675 40.88 326.419 40.048 326.035 39.344C325.587 38.704 324.883 38.32 323.923 38.32C323.155 38.32 322.515 38.448 322.067 38.576C320.595 39.024 318.995 39.216 317.203 39.216C315.027 39.216 312.979 38.64 311.059 37.424C309.139 36.272 308.051 34.864 307.667 33.264H324.179C325.651 33.264 326.803 32.88 327.699 32.112C328.531 31.344 329.043 30.256 329.171 28.848C329.171 28.72 329.235 28.336 329.235 27.632C329.235 24.304 328.083 21.36 325.843 18.8C324.371 17.264 322.579 16.112 320.467 15.216C318.291 14.384 315.987 13.936 313.555 13.936C309.203 13.936 305.555 15.216 302.739 17.712C299.859 20.272 298.259 23.92 297.875 28.656C297.811 28.912 297.811 29.552 297.811 30.704C297.811 35.376 299.219 39.152 302.099 42.096C304.979 45.04 308.947 46.704 314.067 47.152ZM309.971 23.088C310.995 22.32 312.147 21.872 313.491 21.872C315.091 21.872 316.435 22.384 317.459 23.344C318.483 24.304 318.931 25.392 318.931 26.672L307.859 26.544C308.243 25.072 308.947 23.92 309.971 23.088ZM359.16 16.944C356.472 14.96 352.696 13.936 347.768 13.936C343.864 13.936 340.792 14.384 338.616 15.28C337.4 15.792 336.568 16.368 336.056 17.008C335.544 17.648 335.352 18.544 335.352 19.632C335.352 20.656 335.544 21.552 336.056 22.256C336.504 22.96 337.144 23.28 338.04 23.28C338.424 23.28 339 23.216 339.896 22.96C342.264 22.384 344.376 22.064 346.232 22.064C350.456 22.064 352.568 23.216 352.568 25.52V25.968L344.184 26.864C340.472 27.248 337.784 28.272 336.056 29.808C334.264 31.408 333.432 33.648 333.432 36.592C333.432 40.048 334.712 42.608 337.272 44.4C339.832 46.192 343.544 47.024 348.28 47.024C353.336 47.024 357.24 46.192 359.992 44.528C361.08 43.888 361.848 43.248 362.36 42.544C362.872 41.84 363.128 41.008 363.128 39.984V25.648C363.128 21.808 361.784 18.928 359.16 16.944ZM350.776 38.896C349.944 39.024 349.112 39.088 348.28 39.088C345.336 39.088 343.928 38.128 343.928 36.208C343.928 34.608 345.272 33.712 348.024 33.52L352.632 33.136V38.256C352.248 38.512 351.608 38.768 350.776 38.896ZM370.96 7.856C368.656 9.008 367.568 10.608 367.568 12.656C367.568 13.872 367.824 14.832 368.336 15.6C368.848 16.368 369.616 16.752 370.512 16.752C371.152 16.752 371.92 16.624 372.688 16.304C374.608 15.664 376.656 15.28 378.832 15.28C380.496 15.28 381.84 15.6 382.736 16.112C383.632 16.624 384.08 17.392 384.08 18.288C384.08 19.76 382.992 20.784 380.88 21.36L375.888 22.576C374.416 22.96 373.392 23.472 372.752 24.112C372.112 24.752 371.728 25.584 371.728 26.672C371.664 26.864 371.664 27.12 371.728 27.504C371.728 28.4 372.112 29.68 372.816 31.408C373.456 33.136 374.096 34.16 374.608 34.544C374.928 34.8 375.248 34.864 375.504 34.864L376.336 34.736L377.232 34.544C378.704 34.224 379.472 33.648 379.472 32.88L379.344 32.24L379.28 32.048L381.2 31.408C384.784 30.192 387.536 28.976 389.584 27.824C391.632 26.672 393.168 25.328 394.192 23.792C395.152 22.256 395.664 20.464 395.664 18.288C395.664 14.576 394.32 11.568 391.632 9.392C388.944 7.216 385.168 6.128 380.368 6.128C376.336 6.128 373.2 6.704 370.96 7.856ZM374.288 36.72C373.136 37.872 372.624 39.28 372.624 41.072C372.624 42.864 373.136 44.336 374.288 45.424C375.376 46.576 376.848 47.088 378.768 47.088C380.624 47.088 382.096 46.576 383.248 45.424C384.336 44.336 384.912 42.864 384.912 41.072C384.912 39.28 384.336 37.872 383.248 36.72C382.096 35.632 380.624 35.056 378.768 35.056C376.848 35.056 375.376 35.632 374.288 36.72ZM31.552 132.992L31.552 116.544C31.552 112.448 30.4 109.376 28.096 107.2C25.792 105.024 22.464 103.936 18.112 103.936C17.024 103.936 15.936 104.064 14.784 104.32C13.632 104.576 12.608 104.832 11.84 105.088V98.816C11.84 96.96 11.328 95.616 10.432 94.848C9.536 94.08 8 93.696 5.824 93.696L4.416 93.632C3.392 93.632 2.56 93.888 1.92 94.336C1.28 94.848 0.96 95.808 0.96 97.216L0.96 131.392C0.96 133.312 1.408 134.592 2.304 135.36C3.2 136.128 4.8 136.512 6.976 136.512L8.256 136.576C9.152 136.64 9.984 136.448 10.752 135.936C11.456 135.424 11.84 134.464 11.84 132.992L11.84 113.536C13.056 112.832 14.464 112.448 16.128 112.448C19.136 112.448 20.672 114.048 20.672 117.184V131.392C20.672 133.312 21.12 134.592 22.016 135.36C22.912 136.128 24.512 136.512 26.688 136.512L27.968 136.576C28.864 136.64 29.696 136.448 30.464 135.936C31.168 135.424 31.552 134.464 31.552 132.992ZM52.34 137.152L54.644 137.28L57.204 137.152C59.636 137.024 61.492 136.512 62.9 135.616C64.244 134.72 64.948 133.44 64.948 131.776C64.948 130.88 64.692 130.048 64.308 129.344C63.86 128.704 63.156 128.32 62.196 128.32C61.428 128.32 60.788 128.448 60.34 128.576C58.868 129.024 57.268 129.216 55.476 129.216C53.3 129.216 51.252 128.64 49.332 127.424C47.412 126.272 46.324 124.864 45.94 123.264H62.452C63.924 123.264 65.076 122.88 65.972 122.112C66.804 121.344 67.316 120.256 67.444 118.848C67.444 118.72 67.508 118.336 67.508 117.632C67.508 114.304 66.356 111.36 64.116 108.8C62.644 107.264 60.852 106.112 58.74 105.216C56.564 104.384 54.26 103.936 51.828 103.936C47.476 103.936 43.828 105.216 41.012 107.712C38.132 110.272 36.532 113.92 36.148 118.656C36.084 118.912 36.084 119.552 36.084 120.704C36.084 125.376 37.492 129.152 40.372 132.096C43.252 135.04 47.22 136.704 52.34 137.152ZM48.244 113.088C49.268 112.32 50.42 111.872 51.764 111.872C53.364 111.872 54.708 112.384 55.732 113.344C56.756 114.304 57.204 115.392 57.204 116.672L46.132 116.544C46.516 115.072 47.22 113.92 48.244 113.088ZM82.585 132.992L82.585 98.816C82.585 96.96 82.073 95.616 81.177 94.848C80.281 94.08 78.745 93.696 76.569 93.696L75.161 93.632C74.137 93.632 73.305 93.888 72.665 94.336C72.025 94.848 71.705 95.808 71.705 97.216L71.705 131.392C71.705 133.312 72.153 134.592 73.049 135.36C73.945 136.128 75.545 136.512 77.721 136.512L79.129 136.512C80.089 136.576 80.921 136.384 81.561 135.872C82.201 135.424 82.585 134.464 82.585 132.992ZM114.149 107.968C111.205 105.28 106.917 103.936 101.349 103.936C98.9175 103.936 96.7415 104.192 94.7575 104.704C92.7735 105.216 91.1095 105.856 89.8295 106.752C88.8055 107.456 88.1015 108.16 87.7175 108.864C87.2695 109.632 87.0775 110.528 87.0775 111.552V142.272C87.0775 144.192 87.5255 145.536 88.4215 146.304C89.3175 147.072 90.8535 147.392 93.0295 147.392H94.4375C96.7415 147.52 97.9575 146.304 97.9575 143.808V136.128C99.3655 136.704 101.029 136.96 103.077 136.96C108.197 136.96 112.165 135.552 114.981 132.672C117.797 129.856 119.205 125.76 119.205 120.512C119.205 115.136 117.477 110.912 114.149 107.968ZM108.069 120.512C108.069 125.76 105.829 128.384 101.477 128.384C100.389 128.384 99.1735 128.128 97.8935 127.488V113.408C99.1095 112.768 100.389 112.448 101.733 112.448C105.957 112.448 108.069 115.136 108.069 120.512Z" fill="#F25471"/>
</svg>
