<svg width="677" height="245" viewBox="0 0 677 245" fill="none" xmlns="http://www.w3.org/2000/svg">
<path d="M45.825 21.8814V67.9014H31.395V49.9614H17.68V67.9014H3.25V21.8814H17.68V38.4564H31.395V21.8814H45.825ZM57.1924 49.5714C57.1924 45.7148 57.8424 42.3781 59.1424 39.5614C60.4857 36.7014 62.3057 34.5348 64.6024 33.0614C66.8991 31.5448 69.4774 30.7864 72.3374 30.7864C74.7207 30.7864 76.7791 31.2848 78.5124 32.2814C80.2457 33.2348 81.5674 34.5564 82.4774 36.2464V31.2414H96.8424V67.9014H82.4774V62.8964C81.5674 64.5864 80.2457 65.9298 78.5124 66.9264C76.7791 67.8798 74.7207 68.3564 72.3374 68.3564C69.4774 68.3564 66.8991 67.6198 64.6024 66.1464C62.3057 64.6298 60.4857 62.4631 59.1424 59.6464C57.8424 56.7864 57.1924 53.4281 57.1924 49.5714ZM82.4774 49.5714C82.4774 47.6214 81.9791 46.1048 80.9824 45.0214C79.9857 43.9381 78.7074 43.3964 77.1474 43.3964C75.5874 43.3964 74.3091 43.9381 73.3124 45.0214C72.3157 46.1048 71.8174 47.6214 71.8174 49.5714C71.8174 51.5214 72.3157 53.0381 73.3124 54.1214C74.3091 55.2048 75.5874 55.7464 77.1474 55.7464C78.7074 55.7464 79.9857 55.2048 80.9824 54.1214C81.9791 53.0381 82.4774 51.5214 82.4774 49.5714ZM128.737 54.1864L134.587 31.2414H149.927L137.707 67.9014H119.702L107.482 31.2414H122.822L128.737 54.1864ZM196.07 49.2464C196.07 50.2431 196.005 51.1964 195.875 52.1064H172.67C172.887 55.2698 174.209 56.8514 176.635 56.8514C178.195 56.8514 179.322 56.1364 180.015 54.7064H195.29C194.77 57.3064 193.665 59.6464 191.975 61.7264C190.329 63.7631 188.227 65.3881 185.67 66.6014C183.157 67.7714 180.384 68.3564 177.35 68.3564C173.71 68.3564 170.46 67.5981 167.6 66.0814C164.784 64.5648 162.574 62.3981 160.97 59.5814C159.41 56.7214 158.63 53.3848 158.63 49.5714C158.63 45.7581 159.41 42.4431 160.97 39.6264C162.574 36.7664 164.784 34.5781 167.6 33.0614C170.46 31.5448 173.71 30.7864 177.35 30.7864C180.99 30.7864 184.219 31.5448 187.035 33.0614C189.895 34.5348 192.105 36.6581 193.665 39.4314C195.269 42.2048 196.07 45.4764 196.07 49.2464ZM181.445 45.8014C181.445 44.5881 181.055 43.6781 180.275 43.0714C179.495 42.4214 178.52 42.0964 177.35 42.0964C174.794 42.0964 173.299 43.3314 172.865 45.8014H181.445ZM223.379 49.5714C223.379 45.7148 224.029 42.3781 225.329 39.5614C226.672 36.7014 228.492 34.5348 230.789 33.0614C233.086 31.5448 235.664 30.7864 238.524 30.7864C240.907 30.7864 242.966 31.2848 244.699 32.2814C246.432 33.2348 247.754 34.5564 248.664 36.2464V31.2414H263.029V67.9014H248.664V62.8964C247.754 64.5864 246.432 65.9298 244.699 66.9264C242.966 67.8798 240.907 68.3564 238.524 68.3564C235.664 68.3564 233.086 67.6198 230.789 66.1464C228.492 64.6298 226.672 62.4631 225.329 59.6464C224.029 56.7864 223.379 53.4281 223.379 49.5714ZM248.664 49.5714C248.664 47.6214 248.166 46.1048 247.169 45.0214C246.172 43.9381 244.894 43.3964 243.334 43.3964C241.774 43.3964 240.496 43.9381 239.499 45.0214C238.502 46.1048 238.004 47.6214 238.004 49.5714C238.004 51.5214 238.502 53.0381 239.499 54.1214C240.496 55.2048 241.774 55.7464 243.334 55.7464C244.894 55.7464 246.172 55.2048 247.169 54.1214C248.166 53.0381 248.664 51.5214 248.664 49.5714ZM302.009 30.9814C306.212 30.9814 309.484 32.3898 311.824 35.2064C314.207 38.0231 315.399 41.8364 315.399 46.6464V67.9014H301.034V48.4664C301.034 46.7331 300.557 45.3681 299.604 44.3714C298.694 43.3314 297.459 42.8114 295.899 42.8114C294.295 42.8114 293.039 43.3314 292.129 44.3714C291.219 45.3681 290.764 46.7331 290.764 48.4664V67.9014H276.334V31.2414H290.764V36.8314C291.89 35.0981 293.385 33.6898 295.249 32.6064C297.155 31.5231 299.409 30.9814 302.009 30.9814ZM17.68 144.981H31.59V155.901H3.25V109.881H17.68V144.981ZM78.4459 137.246C78.4459 138.243 78.3809 139.196 78.2509 140.106H55.0459C55.2625 143.27 56.5842 144.851 59.0109 144.851C60.5709 144.851 61.6975 144.136 62.3909 142.706H77.6659C77.1459 145.306 76.0409 147.646 74.3509 149.726C72.7042 151.763 70.6025 153.388 68.0459 154.601C65.5325 155.771 62.7592 156.356 59.7259 156.356C56.0859 156.356 52.8359 155.598 49.9759 154.081C47.1592 152.565 44.9492 150.398 43.3459 147.581C41.7859 144.721 41.0059 141.385 41.0059 137.571C41.0059 133.758 41.7859 130.443 43.3459 127.626C44.9492 124.766 47.1592 122.578 49.9759 121.061C52.8359 119.545 56.0859 118.786 59.7259 118.786C63.3659 118.786 66.5942 119.545 69.4109 121.061C72.2709 122.535 74.4809 124.658 76.0409 127.431C77.6442 130.205 78.4459 133.476 78.4459 137.246ZM63.8209 133.801C63.8209 132.588 63.4309 131.678 62.6509 131.071C61.8709 130.421 60.8959 130.096 59.7259 130.096C57.1692 130.096 55.6742 131.331 55.2409 133.801H63.8209ZM112.65 143.616V155.901H107.19C97.1362 155.901 92.1096 150.896 92.1096 140.886V131.266H87.5596V119.241H92.1096V110.401H106.54V119.241H112.52V131.266H106.54V141.146C106.54 142.013 106.735 142.641 107.125 143.031C107.558 143.421 108.251 143.616 109.205 143.616H112.65ZM128.74 109.881H143.04L135.37 129.056H125.88L128.74 109.881ZM172.676 156.356C169.209 156.356 166.132 155.793 163.446 154.666C160.802 153.54 158.701 151.98 157.141 149.986C155.581 147.993 154.692 145.74 154.476 143.226H168.321C168.494 144.31 168.949 145.111 169.686 145.631C170.466 146.151 171.441 146.411 172.611 146.411C173.347 146.411 173.932 146.26 174.366 145.956C174.799 145.61 175.016 145.198 175.016 144.721C175.016 143.898 174.561 143.313 173.651 142.966C172.741 142.62 171.202 142.23 169.036 141.796C166.392 141.276 164.204 140.713 162.471 140.106C160.781 139.5 159.286 138.46 157.986 136.986C156.729 135.513 156.101 133.476 156.101 130.876C156.101 128.623 156.686 126.586 157.856 124.766C159.069 122.903 160.846 121.451 163.186 120.411C165.526 119.328 168.364 118.786 171.701 118.786C176.641 118.786 180.497 120 183.271 122.426C186.087 124.853 187.777 128.016 188.341 131.916H175.536C175.319 130.92 174.864 130.161 174.171 129.641C173.477 129.078 172.546 128.796 171.376 128.796C170.639 128.796 170.076 128.948 169.686 129.251C169.296 129.511 169.101 129.923 169.101 130.486C169.101 131.223 169.556 131.786 170.466 132.176C171.376 132.523 172.827 132.891 174.821 133.281C177.464 133.801 179.696 134.386 181.516 135.036C183.336 135.686 184.917 136.813 186.261 138.416C187.604 139.976 188.276 142.143 188.276 144.916C188.276 147.083 187.647 149.033 186.391 150.766C185.134 152.5 183.314 153.865 180.931 154.861C178.591 155.858 175.839 156.356 172.676 156.356ZM428.8 124.246C429.71 122.556 431.01 121.235 432.7 120.281C434.433 119.285 436.492 118.786 438.875 118.786C441.735 118.786 444.313 119.545 446.61 121.061C448.907 122.535 450.705 124.701 452.005 127.561C453.348 130.378 454.02 133.715 454.02 137.571C454.02 141.428 453.348 144.786 452.005 147.646C450.705 150.463 448.907 152.63 446.61 154.146C444.313 155.62 441.735 156.356 438.875 156.356C436.492 156.356 434.433 155.88 432.7 154.926C431.01 153.93 429.71 152.586 428.8 150.896V155.901H414.37V107.801H428.8V124.246ZM439.395 137.571C439.395 135.621 438.897 134.105 437.9 133.021C436.903 131.938 435.625 131.396 434.065 131.396C432.505 131.396 431.227 131.938 430.23 133.021C429.233 134.105 428.735 135.621 428.735 137.571C428.735 139.521 429.233 141.038 430.23 142.121C431.227 143.205 432.505 143.746 434.065 143.746C435.625 143.746 436.903 143.205 437.9 142.121C438.897 141.038 439.395 139.521 439.395 137.571ZM479.805 126.001C481.278 123.878 483.076 122.188 485.2 120.931C487.323 119.631 489.533 118.981 491.83 118.981V134.386H487.735C485.005 134.386 482.99 134.863 481.69 135.816C480.433 136.77 479.805 138.46 479.805 140.886V155.901H465.375V119.241H479.805V126.001ZM509.821 116.316C507.308 116.316 505.293 115.645 503.776 114.301C502.26 112.958 501.501 111.268 501.501 109.231C501.501 107.151 502.26 105.44 503.776 104.096C505.293 102.71 507.308 102.016 509.821 102.016C512.291 102.016 514.285 102.71 515.801 104.096C517.318 105.44 518.076 107.151 518.076 109.231C518.076 111.268 517.318 112.958 515.801 114.301C514.285 115.645 512.291 116.316 509.821 116.316ZM516.971 119.241V155.901H502.541V119.241H516.971ZM555.989 118.981C560.192 118.981 563.464 120.39 565.804 123.206C568.187 126.023 569.379 129.836 569.379 134.646V155.901H555.014V136.466C555.014 134.733 554.537 133.368 553.584 132.371C552.674 131.331 551.439 130.811 549.879 130.811C548.275 130.811 547.019 131.331 546.109 132.371C545.199 133.368 544.744 134.733 544.744 136.466V155.901H530.314V119.241H544.744V124.831C545.87 123.098 547.365 121.69 549.229 120.606C551.135 119.523 553.389 118.981 555.989 118.981ZM595.656 118.786C598.039 118.786 600.098 119.285 601.831 120.281C603.564 121.235 604.886 122.556 605.796 124.246V119.241H620.161V155.251C620.161 158.675 619.533 161.795 618.276 164.611C617.019 167.428 614.983 169.681 612.166 171.371C609.393 173.061 605.818 173.906 601.441 173.906C595.548 173.906 590.868 172.52 587.401 169.746C583.978 167.016 582.028 163.29 581.551 158.566H595.721C596.111 160.473 597.671 161.426 600.401 161.426C602.091 161.426 603.413 160.993 604.366 160.126C605.319 159.26 605.796 157.635 605.796 155.251V150.896C604.886 152.586 603.564 153.93 601.831 154.926C600.098 155.88 598.039 156.356 595.656 156.356C592.796 156.356 590.218 155.62 587.921 154.146C585.624 152.63 583.804 150.463 582.461 147.646C581.161 144.786 580.511 141.428 580.511 137.571C580.511 133.715 581.161 130.378 582.461 127.561C583.804 124.701 585.624 122.535 587.921 121.061C590.218 119.545 592.796 118.786 595.656 118.786ZM605.796 137.571C605.796 135.621 605.298 134.105 604.301 133.021C603.304 131.938 602.026 131.396 600.466 131.396C598.906 131.396 597.628 131.938 596.631 133.021C595.634 134.105 595.136 135.621 595.136 137.571C595.136 139.521 595.634 141.038 596.631 142.121C597.628 143.205 598.906 143.746 600.466 143.746C602.026 143.746 603.304 143.205 604.301 142.121C605.298 141.038 605.796 139.521 605.796 137.571ZM10.53 204.316C8.01667 204.316 6.00167 203.645 4.485 202.301C2.96833 200.958 2.21 199.268 2.21 197.231C2.21 195.151 2.96833 193.44 4.485 192.096C6.00167 190.71 8.01667 190.016 10.53 190.016C13 190.016 14.9933 190.71 16.51 192.096C18.0267 193.44 18.785 195.151 18.785 197.231C18.785 199.268 18.0267 200.958 16.51 202.301C14.9933 203.645 13 204.316 10.53 204.316ZM17.68 207.241V243.901H3.25V207.241H17.68ZM53.8373 231.616V243.901H48.3773C38.3239 243.901 33.2973 238.896 33.2973 228.886V219.266H28.7473V207.241H33.2973V198.401H47.7273V207.241H53.7073V219.266H47.7273V229.146C47.7273 230.013 47.9223 230.641 48.3123 231.031C48.7456 231.421 49.4389 231.616 50.3923 231.616H53.8373ZM120.168 197.881V209.321H107.948V243.901H93.5177V209.321H81.4277V197.881H120.168ZM148.326 244.356C144.643 244.356 141.328 243.598 138.381 242.081C135.435 240.565 133.116 238.398 131.426 235.581C129.78 232.721 128.956 229.385 128.956 225.571C128.956 221.758 129.78 218.443 131.426 215.626C133.116 212.766 135.435 210.578 138.381 209.061C141.328 207.545 144.643 206.786 148.326 206.786C152.01 206.786 155.325 207.545 158.271 209.061C161.218 210.578 163.515 212.766 165.161 215.626C166.851 218.443 167.696 221.758 167.696 225.571C167.696 229.385 166.851 232.721 165.161 235.581C163.515 238.398 161.218 240.565 158.271 242.081C155.325 243.598 152.01 244.356 148.326 244.356ZM148.326 231.876C149.67 231.876 150.796 231.356 151.706 230.316C152.616 229.233 153.071 227.651 153.071 225.571C153.071 223.491 152.616 221.931 151.706 220.891C150.796 219.808 149.67 219.266 148.326 219.266C146.983 219.266 145.856 219.808 144.946 220.891C144.036 221.931 143.581 223.491 143.581 225.571C143.581 227.651 144.015 229.233 144.881 230.316C145.791 231.356 146.94 231.876 148.326 231.876ZM211.355 232.981H225.265V243.901H196.925V197.881H211.355V232.981ZM243.91 204.316C241.397 204.316 239.382 203.645 237.865 202.301C236.349 200.958 235.59 199.268 235.59 197.231C235.59 195.151 236.349 193.44 237.865 192.096C239.382 190.71 241.397 190.016 243.91 190.016C246.38 190.016 248.374 190.71 249.89 192.096C251.407 193.44 252.165 195.151 252.165 197.231C252.165 199.268 251.407 200.958 249.89 202.301C248.374 203.645 246.38 204.316 243.91 204.316ZM251.06 207.241V243.901H236.63V207.241H251.06ZM285.528 204.641C284.748 204.555 284.206 204.511 283.903 204.511C282.819 204.511 281.996 204.728 281.433 205.161C280.869 205.551 280.479 206.245 280.263 207.241H285.528V219.266H280.133V243.901H265.703V219.266H261.803V207.241H265.703C265.789 202.475 267.284 198.791 270.188 196.191C273.134 193.548 277.251 192.226 282.538 192.226C283.144 192.226 284.141 192.27 285.528 192.356V204.641ZM331.727 225.246C331.727 226.243 331.662 227.196 331.532 228.106H308.327C308.544 231.27 309.866 232.851 312.292 232.851C313.852 232.851 314.979 232.136 315.672 230.706H330.947C330.427 233.306 329.322 235.646 327.632 237.726C325.986 239.763 323.884 241.388 321.327 242.601C318.814 243.771 316.041 244.356 313.007 244.356C309.367 244.356 306.117 243.598 303.257 242.081C300.441 240.565 298.231 238.398 296.627 235.581C295.067 232.721 294.287 229.385 294.287 225.571C294.287 221.758 295.067 218.443 296.627 215.626C298.231 212.766 300.441 210.578 303.257 209.061C306.117 207.545 309.367 206.786 313.007 206.786C316.647 206.786 319.876 207.545 322.692 209.061C325.552 210.535 327.762 212.658 329.322 215.431C330.926 218.205 331.727 221.476 331.727 225.246ZM317.102 221.801C317.102 220.588 316.712 219.678 315.932 219.071C315.152 218.421 314.177 218.096 313.007 218.096C310.451 218.096 308.956 219.331 308.522 221.801H317.102Z" fill="#2F327D"/>
<path d="M360.781 21.8814V67.9014H346.351V21.8814H360.781ZM372.173 49.5714C372.173 45.7148 372.823 42.3781 374.123 39.5614C375.467 36.7014 377.287 34.5348 379.583 33.0614C381.88 31.5448 384.458 30.7864 387.318 30.7864C389.702 30.7864 391.738 31.2848 393.428 32.2814C395.162 33.2348 396.483 34.5564 397.393 36.2464V19.8014H411.823V67.9014H397.393V62.8964C396.483 64.5864 395.162 65.9298 393.428 66.9264C391.738 67.8798 389.702 68.3564 387.318 68.3564C384.458 68.3564 381.88 67.6198 379.583 66.1464C377.287 64.6298 375.467 62.4631 374.123 59.6464C372.823 56.7864 372.173 53.4281 372.173 49.5714ZM397.458 49.5714C397.458 47.6214 396.96 46.1048 395.963 45.0214C394.967 43.9381 393.688 43.3964 392.128 43.3964C390.568 43.3964 389.29 43.9381 388.293 45.0214C387.297 46.1048 386.798 47.6214 386.798 49.5714C386.798 51.5214 387.297 53.0381 388.293 54.1214C389.29 55.2048 390.568 55.7464 392.128 55.7464C393.688 55.7464 394.967 55.2048 395.963 54.1214C396.96 53.0381 397.458 51.5214 397.458 49.5714ZM460.618 49.2464C460.618 50.2431 460.553 51.1964 460.423 52.1064H437.218C437.435 55.2698 438.756 56.8514 441.183 56.8514C442.743 56.8514 443.87 56.1364 444.563 54.7064H459.838C459.318 57.3064 458.213 59.6464 456.523 61.7264C454.876 63.7631 452.775 65.3881 450.218 66.6014C447.705 67.7714 444.931 68.3564 441.898 68.3564C438.258 68.3564 435.008 67.5981 432.148 66.0814C429.331 64.5648 427.121 62.3981 425.518 59.5814C423.958 56.7214 423.178 53.3848 423.178 49.5714C423.178 45.7581 423.958 42.4431 425.518 39.6264C427.121 36.7664 429.331 34.5781 432.148 33.0614C435.008 31.5448 438.258 30.7864 441.898 30.7864C445.538 30.7864 448.766 31.5448 451.583 33.0614C454.443 34.5348 456.653 36.6581 458.213 39.4314C459.816 42.2048 460.618 45.4764 460.618 49.2464ZM445.993 45.8014C445.993 44.5881 445.603 43.6781 444.823 43.0714C444.043 42.4214 443.068 42.0964 441.898 42.0964C439.341 42.0964 437.846 43.3314 437.413 45.8014H445.993ZM470.057 49.5714C470.057 45.7148 470.707 42.3781 472.007 39.5614C473.35 36.7014 475.17 34.5348 477.467 33.0614C479.763 31.5448 482.342 30.7864 485.202 30.7864C487.585 30.7864 489.643 31.2848 491.377 32.2814C493.11 33.2348 494.432 34.5564 495.342 36.2464V31.2414H509.707V67.9014H495.342V62.8964C494.432 64.5864 493.11 65.9298 491.377 66.9264C489.643 67.8798 487.585 68.3564 485.202 68.3564C482.342 68.3564 479.763 67.6198 477.467 66.1464C475.17 64.6298 473.35 62.4631 472.007 59.6464C470.707 56.7864 470.057 53.4281 470.057 49.5714ZM495.342 49.5714C495.342 47.6214 494.843 46.1048 493.847 45.0214C492.85 43.9381 491.572 43.3964 490.012 43.3964C488.452 43.3964 487.173 43.9381 486.177 45.0214C485.18 46.1048 484.682 47.6214 484.682 49.5714C484.682 51.5214 485.18 53.0381 486.177 54.1214C487.173 55.2048 488.452 55.7464 490.012 55.7464C491.572 55.7464 492.85 55.2048 493.847 54.1214C494.843 53.0381 495.342 51.5214 495.342 49.5714ZM537.441 17.6564C542.251 17.6564 546.108 18.8698 549.011 21.2964C551.958 23.6798 553.431 27.1898 553.431 31.8264C553.431 35.6398 552.131 38.7164 549.531 41.0564C546.975 43.3964 543.616 44.6098 539.456 44.6964L539.066 49.3114H526.326L525.936 35.5314H531.396C533.953 35.5314 535.903 35.2498 537.246 34.6864C538.633 34.1231 539.326 33.2131 539.326 31.9564C539.326 31.1331 539.11 30.5048 538.676 30.0714C538.286 29.5948 537.745 29.3564 537.051 29.3564C536.185 29.3564 535.535 29.6381 535.101 30.2014C534.711 30.7214 534.516 31.4148 534.516 32.2814H520.931C520.801 29.5948 521.321 27.1464 522.491 24.9364C523.705 22.7264 525.568 20.9714 528.081 19.6714C530.595 18.3281 533.715 17.6564 537.441 17.6564ZM532.891 68.4214C530.378 68.4214 528.363 67.7498 526.846 66.4064C525.33 65.0631 524.571 63.3731 524.571 61.3364C524.571 59.2564 525.33 57.5448 526.846 56.2014C528.363 54.8148 530.378 54.1214 532.891 54.1214C535.361 54.1214 537.355 54.8148 538.871 56.2014C540.388 57.5448 541.146 59.2564 541.146 61.3364C541.146 63.3731 540.388 65.0631 538.871 66.4064C537.355 67.7498 535.361 68.4214 532.891 68.4214ZM244.372 118.981C248.575 118.981 251.847 120.39 254.187 123.206C256.57 126.023 257.762 129.836 257.762 134.646V155.901H243.397V136.466C243.397 134.733 242.92 133.368 241.967 132.371C241.057 131.331 239.822 130.811 238.262 130.811C236.659 130.811 235.402 131.331 234.492 132.371C233.582 133.368 233.127 134.733 233.127 136.466V155.901H218.697V107.801H233.127V124.831C234.254 123.098 235.749 121.69 237.612 120.606C239.519 119.523 241.772 118.981 244.372 118.981ZM306.334 137.246C306.334 138.243 306.269 139.196 306.139 140.106H282.934C283.151 143.27 284.473 144.851 286.899 144.851C288.459 144.851 289.586 144.136 290.279 142.706H305.554C305.034 145.306 303.929 147.646 302.239 149.726C300.593 151.763 298.491 153.388 295.934 154.601C293.421 155.771 290.648 156.356 287.614 156.356C283.974 156.356 280.724 155.598 277.864 154.081C275.048 152.565 272.838 150.398 271.234 147.581C269.674 144.721 268.894 141.385 268.894 137.571C268.894 133.758 269.674 130.443 271.234 127.626C272.838 124.766 275.048 122.578 277.864 121.061C280.724 119.545 283.974 118.786 287.614 118.786C291.254 118.786 294.483 119.545 297.299 121.061C300.159 122.535 302.369 124.658 303.929 127.431C305.533 130.205 306.334 133.476 306.334 137.246ZM291.709 133.801C291.709 132.588 291.319 131.678 290.539 131.071C289.759 130.421 288.784 130.096 287.614 130.096C285.058 130.096 283.563 131.331 283.129 133.801H291.709ZM332.153 107.801V155.901H317.723V107.801H332.153ZM359.925 124.246C360.835 122.556 362.135 121.235 363.825 120.281C365.559 119.285 367.617 118.786 370 118.786C372.86 118.786 375.439 119.545 377.735 121.061C380.032 122.535 381.83 124.701 383.13 127.561C384.474 130.378 385.145 133.715 385.145 137.571C385.145 141.428 384.474 144.786 383.13 147.646C381.83 150.463 380.032 152.63 377.735 154.146C375.439 155.62 372.86 156.356 370 156.356C367.617 156.356 365.559 155.88 363.825 154.926C362.135 153.93 360.835 152.586 359.925 150.896V173.451H345.495V119.241H359.925V124.246ZM370.52 137.571C370.52 135.621 370.022 134.105 369.025 133.021C368.029 131.938 366.75 131.396 365.19 131.396C363.63 131.396 362.352 131.938 361.355 133.021C360.359 134.105 359.86 135.621 359.86 137.571C359.86 139.521 360.359 141.038 361.355 142.121C362.352 143.205 363.63 143.746 365.19 143.746C366.75 143.746 368.029 143.205 369.025 142.121C370.022 141.038 370.52 139.521 370.52 137.571Z" fill="#F25471"/>
<path d="M350.546 81.0097C410.483 70.395 444.087 69.8323 504.024 81.0097" stroke="#FF698D" stroke-width="1.8163"/>
</svg>
