<svg width="23" height="19" viewBox="0 0 23 19" fill="none" xmlns="http://www.w3.org/2000/svg">
<path d="M19.8356 18.1294H2.77671C2.1146 18.0964 1.48846 17.8183 1.02015 17.349C0.551847 16.8798 0.274881 16.2531 0.243164 15.591L0.243164 3.27469C0.27606 2.61339 0.553546 1.98791 1.02174 1.51972C1.48993 1.05153 2.11541 0.774046 2.77671 0.74115L19.8356 0.74115C20.4971 0.773751 21.1229 1.05111 21.5913 1.51933C22.0598 1.98755 22.3374 2.61319 22.3704 3.27469V15.591C22.3386 16.2533 22.0615 16.8802 21.5929 17.3494C21.1243 17.8187 20.4979 18.0967 19.8356 18.1294ZM7.24378 9.75244C7.21508 9.75225 7.1867 9.75842 7.16066 9.77048C7.13462 9.78255 7.11157 9.80022 7.09316 9.82224L2.88814 14.8097C2.85807 14.8459 2.84122 14.8913 2.84038 14.9383C2.84038 14.9906 2.86116 15.0407 2.89813 15.0777C2.9351 15.1147 2.98525 15.1355 3.03753 15.1355H19.5686C19.6158 15.1354 19.6615 15.1185 19.6972 15.0877C19.7366 15.0541 19.7617 15.0067 19.7672 14.9552C19.7726 14.9037 19.7581 14.8521 19.7266 14.811L14.057 8.10423C14.0525 8.09825 14.0471 8.0929 14.0411 8.08831L14.0326 8.08096C13.9981 8.0522 13.955 8.03582 13.9101 8.03443C13.8814 8.03424 13.853 8.0404 13.827 8.05247C13.8009 8.06454 13.7779 8.08221 13.7595 8.10423L9.8508 12.7415L7.40174 9.82714L7.38093 9.80264H7.37113C7.33587 9.77151 7.2908 9.75374 7.24378 9.75244ZM7.00867 4.29228C6.69616 4.29228 6.39067 4.3849 6.13077 4.55845C5.87088 4.73199 5.66826 4.97867 5.5485 5.26732C5.42874 5.55597 5.39722 5.87364 5.45792 6.1802C5.51862 6.48676 5.66882 6.76845 5.88954 6.98968C6.11026 7.21091 6.3916 7.36177 6.69802 7.42318C7.00443 7.48459 7.32217 7.45381 7.6111 7.33472C7.90003 7.21563 8.14718 7.01358 8.32133 6.75409C8.49548 6.4946 8.58881 6.18932 8.58953 5.87681C8.58986 5.66895 8.54921 5.46306 8.46993 5.27091C8.39064 5.07875 8.27426 4.90411 8.12745 4.75696C7.98064 4.6098 7.80627 4.49302 7.6143 4.41329C7.42233 4.33356 7.21654 4.29244 7.00867 4.29228Z" fill="url(#paint0_linear_511_4927)"/>
<defs>
<linearGradient id="paint0_linear_511_4927" x1="19.007" y1="0.741149" x2="6.95034" y2="20.9553" gradientUnits="userSpaceOnUse">
<stop stop-color="#CC566C"/>
<stop offset="1" stop-color="#E5644F"/>
</linearGradient>
</defs>
</svg>
