<svg width="50" height="50" viewBox="0 0 50 50" fill="none" xmlns="http://www.w3.org/2000/svg">
<g clip-path="url(#clip0_708_7004)">
<path d="M24.5755 49.1512C38.1481 49.1512 49.1509 38.1484 49.1509 24.5757C49.1509 11.0031 38.1481 0.000244141 24.5755 0.000244141C11.0028 0.000244141 0 11.0031 0 24.5757C0 38.1484 11.0028 49.1512 24.5755 49.1512Z" fill="white"/>
<path d="M36.8168 21.8483C36.8168 25.2271 35.8321 27.6988 33.8626 29.2635C31.8931 30.8282 28.8865 31.6107 24.8429 31.6112H22.0209C21.9135 31.6112 21.8071 31.6324 21.7079 31.6735C21.6087 31.7146 21.5185 31.7749 21.4426 31.8509C21.3667 31.9268 21.3065 32.017 21.2655 32.1163C21.2244 32.2155 21.2033 32.3219 21.2034 32.4293V38.4245C21.2033 38.641 21.1174 38.8486 20.9643 39.0017C20.8113 39.1549 20.6038 39.241 20.3874 39.2413H15.9163C15.6995 39.2413 15.4916 39.1552 15.3383 39.0019C15.185 38.8486 15.0989 38.6407 15.0989 38.4239V35.0695C15.1424 28.3196 16.0098 22.3307 29.0349 22.3307C22.4017 22.3307 16.7519 21.462 15.4055 12.0749C15.5496 11.9565 15.7301 11.8915 15.9166 11.8907H24.7643C28.9637 11.8907 32.0225 12.7059 33.9405 14.3363C35.8585 15.9666 36.8173 18.4706 36.8168 21.8483Z" fill="#2F327D"/>
</g>
<defs>
<clipPath id="clip0_708_7004">
<rect width="49.1509" height="49.1509" fill="white" transform="translate(0 0.000244141)"/>
</clipPath>
</defs>
</svg>
