<svg width="1150" height="1150" viewBox="0 0 1150 1150" fill="none" xmlns="http://www.w3.org/2000/svg">
<g clip-path="url(#clip0_172_1472)">
<path d="M574.56 1149.12C891.881 1149.12 1149.12 891.881 1149.12 574.56C1149.12 257.239 891.881 0 574.56 0C257.239 0 0 257.239 0 574.56C0 891.881 257.239 1149.12 574.56 1149.12Z" fill="#2F327D"/>
<path d="M860.753 510.802C860.753 589.796 837.73 647.583 791.684 684.165C745.638 720.746 675.346 739.042 580.809 739.053H514.832C512.321 739.053 509.834 739.547 507.515 740.509C505.195 741.47 503.088 742.879 501.313 744.656C499.538 746.432 498.131 748.541 497.171 750.861C496.212 753.182 495.719 755.668 495.721 758.179V898.345C495.719 903.406 493.708 908.259 490.131 911.839C486.554 915.419 481.702 917.434 476.641 917.44H372.111C367.042 917.44 362.181 915.427 358.597 911.842C355.013 908.258 353 903.398 353 898.329V819.905C354.017 662.096 374.296 522.081 678.817 522.081C523.737 522.081 391.648 501.771 360.17 282.306C363.538 279.538 367.759 278.016 372.119 278H578.971C677.153 278 748.664 297.058 793.506 335.175C838.348 373.292 860.764 431.834 860.753 510.802Z" fill="white"/>
</g>
<defs>
<clipPath id="clip0_172_1472">
<rect width="1149.12" height="1149.12" fill="white"/>
</clipPath>
</defs>
</svg>
