<svg width="32" height="32" viewBox="0 0 32 32" fill="none" xmlns="http://www.w3.org/2000/svg">
<path d="M13.2837 3.4889C13.9746 0.640623 18.0265 0.640623 18.7174 3.4889C18.8211 3.91679 19.0244 4.31415 19.3106 4.64864C19.5969 4.98314 19.9581 5.24531 20.3649 5.41383C20.7716 5.58234 21.2124 5.65243 21.6513 5.6184C22.0903 5.58437 22.515 5.44717 22.8909 5.21797C25.3937 3.69327 28.2598 6.55777 26.7351 9.06217C26.5062 9.43792 26.3693 9.86238 26.3353 10.301C26.3014 10.7397 26.3714 11.1802 26.5397 11.5867C26.708 11.9932 26.9699 12.3542 27.304 12.6404C27.6381 12.9267 28.0351 13.1301 28.4626 13.234C31.3108 13.925 31.3108 17.9768 28.4626 18.6678C28.0347 18.7715 27.6373 18.9747 27.3028 19.261C26.9683 19.5473 26.7061 19.9085 26.5376 20.3152C26.3691 20.722 26.299 21.1627 26.3331 21.6017C26.3671 22.0406 26.5043 22.4654 26.7335 22.8413C28.2582 25.344 25.3937 28.2102 22.8893 26.6855C22.5135 26.4566 22.0891 26.3196 21.6504 26.2857C21.2118 26.2517 20.7713 26.3217 20.3648 26.49C19.9583 26.6584 19.5973 26.9202 19.311 27.2543C19.0248 27.5885 18.8214 27.9854 18.7174 28.4129C18.0265 31.2612 13.9746 31.2612 13.2837 28.4129C13.18 27.985 12.9767 27.5877 12.6905 27.2532C12.4042 26.9187 12.043 26.6565 11.6363 26.488C11.2295 26.3195 10.7887 26.2494 10.3498 26.2834C9.91082 26.3174 9.48611 26.4546 9.1102 26.6838C6.60742 28.2085 3.7413 25.344 5.266 22.8396C5.49487 22.4639 5.63185 22.0394 5.66581 21.6008C5.69976 21.1621 5.62973 20.7217 5.46141 20.3152C5.29309 19.9087 5.03123 19.5476 4.69712 19.2614C4.363 18.9751 3.96606 18.7718 3.53855 18.6678C0.690275 17.9768 0.690275 13.925 3.53855 13.234C3.96644 13.1303 4.3638 12.9271 4.6983 12.6408C5.03279 12.3546 5.29496 11.9933 5.46348 11.5866C5.63199 11.1799 5.70209 10.7391 5.66805 10.3001C5.63402 9.86117 5.49682 9.43646 5.26763 9.06055C3.74292 6.55777 6.60742 3.69165 9.11182 5.21635C10.7338 6.20254 12.836 5.32989 13.2837 3.4889Z" stroke="#232323" stroke-opacity="0.45" stroke-width="2.43304" stroke-linecap="round" stroke-linejoin="round"/>
</svg>
