<svg width="15" height="12" viewBox="0 0 15 12" fill="none" xmlns="http://www.w3.org/2000/svg">
<path fill-rule="evenodd" clip-rule="evenodd" d="M2.46952 1.43986H5.34684C6.1414 1.43986 6.78551 2.05986 6.78551 2.82467V10.1354L6.46624 10.033C5.87945 9.8447 5.26498 9.74872 4.64646 9.74872H2.46952C2.07224 9.74872 1.75019 9.43872 1.75019 9.05631V2.13227C1.75019 1.74986 2.07224 1.43986 2.46952 1.43986ZM7.50484 11.8259L6.01129 11.3467C5.5712 11.2055 5.11035 11.1335 4.64646 11.1335H2.46952C1.27769 11.1335 0.311523 10.2035 0.311523 9.05631V2.13227C0.311523 0.985054 1.27769 0.0550537 2.46952 0.0550537H5.34684C6.20622 0.0550537 6.97761 0.417704 7.50484 0.992692C8.03207 0.417704 8.80345 0.0550537 9.66283 0.0550537H12.5402C13.732 0.0550537 14.6982 0.985054 14.6982 2.13227V9.05631C14.6982 10.2035 13.732 11.1335 12.5402 11.1335H10.3632C9.89933 11.1335 9.43847 11.2055 8.99839 11.3467L7.50484 11.8259ZM9.66283 1.43986H12.5402C12.9374 1.43986 13.2595 1.74986 13.2595 2.13227V9.05631C13.2595 9.43872 12.9374 9.74872 12.5402 9.74872H10.3632C9.7447 9.74872 9.13022 9.8447 8.54344 10.033L8.22417 10.1354V2.82467C8.22417 2.05986 8.86828 1.43986 9.66283 1.43986Z" fill="#2F327D"/>
</svg>
