<svg width="13" height="12" viewBox="0 0 13 12" fill="none" xmlns="http://www.w3.org/2000/svg">
<path fill-rule="evenodd" clip-rule="evenodd" d="M11.3047 5.94049C11.3047 8.54084 9.19673 10.6488 6.59638 10.6488C3.99603 10.6488 1.88803 8.54084 1.88803 5.94049C1.88803 3.34014 3.99603 1.23214 6.59638 1.23214C9.19673 1.23214 11.3047 3.34014 11.3047 5.94049ZM12.4818 5.94049C12.4818 9.19093 9.84682 11.8259 6.59638 11.8259C3.34594 11.8259 0.710938 9.19093 0.710938 5.94049C0.710938 2.69005 3.34594 0.0550537 6.59638 0.0550537C9.84682 0.0550537 12.4818 2.69005 12.4818 5.94049ZM7.1849 2.99778C7.1849 2.67274 6.9214 2.40924 6.59636 2.40924C6.27131 2.40924 6.00781 2.67274 6.00781 2.99778V5.69672C6.00781 6.0089 6.13183 6.3083 6.35257 6.52905L7.65155 7.82803C7.88139 8.05787 8.25404 8.05787 8.48388 7.82803C8.71372 7.59819 8.71372 7.22554 8.48388 6.9957L7.1849 5.69672V2.99778Z" fill="#2F327D"/>
</svg>
