<svg width="183" height="136" viewBox="0 0 183 136" fill="none" xmlns="http://www.w3.org/2000/svg">
<path d="M36.0744 40.2227C32.9031 46.9727 31.3174 56.3036 31.3174 68.2153C31.3174 80.1271 32.9031 89.458 36.0744 96.208C40.0387 104.149 46.3153 108.12 54.9045 108.12C63.4936 108.12 69.7703 104.149 73.7346 96.208C77.0381 89.5903 78.6898 80.2594 78.6898 68.2153C78.6898 56.1712 77.0381 46.8403 73.7346 40.2227C69.7703 32.2815 63.4936 28.3109 54.9045 28.3109C46.3153 28.3109 40.0387 32.2815 36.0744 40.2227ZM11.298 113.679C3.76601 102.296 0 87.1418 0 68.2153C0 49.2889 3.76601 34.1345 11.298 22.7521C20.9443 8.06092 35.4798 0.715332 54.9045 0.715332C74.4613 0.715332 89.0629 8.06092 98.7092 22.7521C106.241 34.1345 110.007 49.2889 110.007 68.2153C110.007 87.1418 106.241 102.296 98.7092 113.679C88.7986 128.37 74.197 135.715 54.9045 135.715C35.7441 135.715 21.2086 128.37 11.298 113.679Z" fill="#DBDAFF"/>
<path d="M183 132.539H151.881V48.7595H121.158V27.9139C130.54 27.7815 138.402 25.3992 144.745 20.7668C151.22 16.1344 155.052 10.4433 156.241 3.69327H183V132.539Z" fill="#DBDAFF"/>
</svg>
