<svg width="659" height="764" viewBox="0 0 659 764" fill="none" xmlns="http://www.w3.org/2000/svg">
<path style="mix-blend-mode:multiply" opacity="0.5" d="M443.992 573.006L430.402 555.454L370.002 477.518L296.011 573.006H443.992Z" fill="url(#paint0_linear_156_2633)"/>
<path d="M658.378 497.75H541.772V497.758L600.071 573.006H600.088L658.387 497.758L658.378 497.75Z" fill="url(#paint1_linear_156_2633)"/>
<path d="M222.004 477.501L295.995 572.99H296.011L370.002 477.501L369.993 477.493H222.012L222.004 477.501Z" fill="#41AB8A"/>
<path d="M369.994 668.486H370.01H517.966L443.992 573.023L443.976 573.006L369.994 668.486Z" fill="#24394A"/>
<path d="M74.0149 286.499L74.0066 286.507L147.997 381.996H148.014L222.004 286.507L221.996 286.499H74.0149Z" fill="#41AB8A"/>
<path style="mix-blend-mode:multiply" opacity="0.3" d="M370.002 668.503L369.994 668.487H369.986L369.977 668.503L443.968 763.992H443.984L517.975 668.503L517.966 668.487H370.01L370.002 668.503Z" fill="url(#paint2_linear_156_2633)"/>
<path d="M295.995 381.996L222.005 286.507L148.014 381.996H295.995Z" fill="#005484"/>
<path d="M148.005 382.004L221.996 477.493H222.012L296.003 382.004L295.995 381.996H148.014L148.005 382.004Z" fill="url(#paint3_linear_156_2633)"/>
<path d="M222.005 95.5051L148.014 190.994H295.995L222.005 95.5051Z" fill="#41AB8A"/>
<path style="mix-blend-mode:multiply" opacity="0.3" d="M147.997 190.994H148.014L222.004 95.5051L221.996 95.4969H74.0149L74.0066 95.5051L147.997 190.994Z" fill="url(#paint4_linear_156_2633)"/>
<path d="M148.006 0.00823975L74.0156 95.4969H221.997L148.006 0.00823975Z" fill="#41AB8A"/>
<path d="M221.996 477.493H74.0149L74.0066 477.501L147.997 572.99H148.014L222.004 477.501L221.996 477.493Z" fill="#005484"/>
<path d="M147.997 381.996H0.0165725L0.00830078 382.004L73.9988 477.493H74.0153H221.996L148.006 382.004L147.997 381.996Z" fill="url(#paint5_linear_156_2633)"/>
<path d="M147.997 381.996L74.0066 286.507L0.0161133 381.996H147.997Z" fill="#005484"/>
<path d="M0.0161133 572.99H147.997L74.0066 477.501L0.0161133 572.99Z" fill="#09202D"/>
<path d="M0.0165725 572.99L0.00830078 573.006L73.9987 668.487H74.0153L148.006 573.006L147.997 572.99H0.0165725Z" fill="url(#paint6_linear_156_2633)"/>
<path d="M0.0161133 572.99L74.0066 477.501L0.0161133 572.99Z" fill="#09202D"/>
<path d="M0.0161133 572.99L74.0066 477.501L0.0161133 572.99Z" fill="url(#paint7_linear_156_2633)"/>
<path d="M221.997 668.52L148.014 763.992H295.97L221.997 668.52Z" fill="#005484"/>
<path d="M0.0165725 191.002H0.00830078L73.9988 286.499L74.007 286.507L74.0153 286.499H221.996L148.006 191.002H147.997H0.0165725Z" fill="#0D2333"/>
<path d="M74.0066 95.5051L0.0161133 190.994H147.997L74.0066 95.5051Z" fill="#09202D"/>
<path d="M221.997 668.52L295.97 763.992H295.987H295.995H296.012H443.968L369.977 668.503L369.969 668.487H222.013L222.005 668.503L221.997 668.487H221.988L221.98 668.503L221.997 668.52Z" fill="#24394A"/>
<path d="M369.986 668.486H369.994L296.004 573.006L222.013 668.486H369.969H369.986Z" fill="#41AB8A"/>
<path d="M295.995 190.994H296.011L370.002 95.5051L369.993 95.4969H222.012L222.004 95.5051L295.995 190.994Z" fill="#09202D"/>
<path d="M464.672 546.33L444.009 572.99H591.99L518 477.501L464.672 546.33Z" fill="#005484"/>
<path d="M518 477.501L517.991 477.493L444.001 382.004L370.01 477.493V477.501V477.493H369.994L370.002 477.501L430.394 555.445L443.993 572.99H296.012H295.995L222.005 477.501L148.014 572.99H147.998L148.006 573.006L74.0156 668.487H221.988H221.997L222.005 668.503L222.013 668.487L296.004 573.006L369.994 668.487L443.976 573.006L443.993 573.023L444.001 573.006L444.009 572.99L464.672 546.33L518 477.501Z" fill="#005484"/>
<path d="M369.993 477.493H370.01L444 382.004L443.992 381.996H296.011L296.003 382.004L369.993 477.493Z" fill="#24394A"/>
<path d="M370.01 668.487H369.994L370.002 668.503L370.01 668.487Z" fill="#0D2333"/>
<path d="M148.014 381.996H147.997L148.006 382.004L148.014 381.996Z" fill="#0D2333"/>
<path d="M221.996 477.493L222.004 477.501L222.013 477.493H221.996Z" fill="#0D2333"/>
<path d="M74.0071 668.503L74.0155 668.487H73.9988L74.0071 668.503Z" fill="#0D2333"/>
<path d="M148.014 763.992H147.997L148.006 764L148.014 763.992Z" fill="#0D2333"/>
<path d="M0 572.99L0.00835273 573.006L0.0167055 572.99H0Z" fill="#0D2333"/>
<path d="M74.0154 95.4969H74.0066V95.5057L74.0154 95.4969Z" fill="#0D2333"/>
<path d="M0.0167055 763.992H0L0.00835273 764L0.0167055 763.992Z" fill="#0D2333"/>
<path d="M451.735 271.932L426.026 238.755L400.318 271.932H451.735Z" fill="#005484"/>
<path d="M365.403 75.2312L325.029 23.1277L284.654 75.2312H365.403Z" fill="#005484"/>
<path d="M74.0071 477.501L74.0155 477.493H73.9988L74.0071 477.501Z" fill="#0D2333"/>
<path d="M370.01 95.4969H369.994L370.002 95.5052L370.01 95.4969Z" fill="#0D2333"/>
<path d="M148.014 190.994H147.997L148.006 191.002L148.014 190.994Z" fill="#0D2333"/>
<path d="M518.007 668.487H517.991L517.999 668.503L518.007 668.487Z" fill="#0D2333"/>
<path d="M591.998 573.006L592.006 572.99H591.99L591.998 573.006Z" fill="#0D2333"/>
<path d="M148.005 0V0.0088352L148.014 0H148.005Z" fill="#0D2333"/>
<path d="M518.007 477.493H517.991L517.999 477.501L518.007 477.493Z" fill="#0D2333"/>
<path d="M222.013 95.4969H221.996L222.004 95.5052L222.013 95.4969Z" fill="#0D2333"/>
<path d="M444.009 381.996H443.992L444 382.004L444.009 381.996Z" fill="#0D2333"/>
<path d="M369.994 286.499H222.013H221.996L222.004 286.507L295.995 381.996L296.003 382.004L296.011 381.996L370.002 286.507L370.01 286.499H369.994Z" fill="#0D2333"/>
<path d="M148.014 191.002H148.005L221.996 286.499L295.995 191.002H148.014Z" fill="#005484"/>
<path d="M295.995 191.002L221.996 286.499H370.035L295.995 191.002Z" fill="#41AB8A"/>
<path d="M221.98 668.495H221.996L295.97 573.023L295.962 573.006L295.97 572.998H147.998L147.989 573.006L221.98 668.495Z" fill="url(#paint8_linear_156_2633)"/>
<path d="M370.01 668.495H370.027L444.001 573.023L443.992 573.006L444.001 572.998H296.028L296.02 573.006L370.01 668.495Z" fill="url(#paint9_linear_156_2633)"/>
<path d="M295.995 191.002L370.01 95.5299L370.002 95.5134L370.01 95.5051H222.037L222.029 95.5134L295.995 191.002Z" fill="url(#paint10_linear_156_2633)"/>
<path style="mix-blend-mode:multiply" opacity="0.4" d="M147.642 382.178H147.659L221.633 286.706L221.624 286.689L221.633 286.681H73.6599L73.6516 286.689L147.642 382.178Z" fill="url(#paint11_linear_156_2633)"/>
<path style="mix-blend-mode:multiply" opacity="0.5" d="M517.966 477.484L504.376 459.94L443.976 381.996L369.994 477.484H517.966Z" fill="url(#paint12_linear_156_2633)"/>
<path d="M497.337 504.161L517.999 477.501H370.018L444.009 572.99L497.337 504.161Z" fill="url(#paint13_linear_156_2633)"/>
<path d="M392.774 275.952L348.363 333.267L348.355 333.275H348.363H437.193L392.774 275.952Z" fill="#41AB8A"/>
<defs>
<linearGradient id="paint0_linear_156_2633" x1="272.603" y1="481.968" x2="425.861" y2="591.791" gradientUnits="userSpaceOnUse">
<stop offset="0.37" stop-color="#0D2333"/>
<stop offset="0.4" stop-color="#394B58"/>
<stop offset="0.43" stop-color="#62707B"/>
<stop offset="0.46" stop-color="#88939B"/>
<stop offset="0.49" stop-color="#A8B0B6"/>
<stop offset="0.53" stop-color="#C4C9CD"/>
<stop offset="0.57" stop-color="#DADDDF"/>
<stop offset="0.62" stop-color="#EBECEE"/>
<stop offset="0.68" stop-color="#F6F7F8"/>
<stop offset="0.76" stop-color="#FDFDFD"/>
<stop offset="1" stop-color="white"/>
</linearGradient>
<linearGradient id="paint1_linear_156_2633" x1="531.747" y1="574.561" x2="618.823" y2="487.485" gradientUnits="userSpaceOnUse">
<stop offset="0.03" stop-color="#0D2333"/>
<stop offset="0.44" stop-color="#2E796A"/>
<stop offset="0.71" stop-color="#41AB8A"/>
</linearGradient>
<linearGradient id="paint2_linear_156_2633" x1="401.608" y1="721.624" x2="486.36" y2="636.88" gradientUnits="userSpaceOnUse">
<stop stop-color="white"/>
<stop offset="1" stop-color="#1C1C1B"/>
</linearGradient>
<linearGradient id="paint3_linear_156_2633" x1="149.478" y1="465.284" x2="280.543" y2="334.21" gradientUnits="userSpaceOnUse">
<stop offset="0.17" stop-color="#0D2333"/>
<stop offset="0.2" stop-color="#14343E"/>
<stop offset="0.27" stop-color="#215855"/>
<stop offset="0.34" stop-color="#2D7668"/>
<stop offset="0.41" stop-color="#368E77"/>
<stop offset="0.49" stop-color="#3C9E82"/>
<stop offset="0.58" stop-color="#40A888"/>
<stop offset="0.69" stop-color="#41AB8A"/>
</linearGradient>
<linearGradient id="paint4_linear_156_2633" x1="105.629" y1="63.8824" x2="190.381" y2="148.626" gradientUnits="userSpaceOnUse">
<stop stop-color="white"/>
<stop offset="0.26" stop-color="#FDFDFD"/>
<stop offset="0.41" stop-color="#F5F5F5"/>
<stop offset="0.52" stop-color="#E7E7E7"/>
<stop offset="0.62" stop-color="#D4D4D4"/>
<stop offset="0.7" stop-color="#BBBBBB"/>
<stop offset="0.78" stop-color="#9C9C9C"/>
<stop offset="0.86" stop-color="#787877"/>
<stop offset="0.93" stop-color="#4E4E4D"/>
<stop offset="1" stop-color="#1C1C1B"/>
</linearGradient>
<linearGradient id="paint5_linear_156_2633" x1="0.0165725" y1="429.748" x2="222.004" y2="429.748" gradientUnits="userSpaceOnUse">
<stop stop-color="#0D2333"/>
<stop offset="0.14" stop-color="#0D2333"/>
<stop offset="1" stop-color="#0D2333"/>
</linearGradient>
<linearGradient id="paint6_linear_156_2633" x1="31.6393" y1="626.127" x2="116.391" y2="541.375" gradientUnits="userSpaceOnUse">
<stop stop-color="#0D2333"/>
<stop offset="0.14" stop-color="#0D2333"/>
<stop offset="1" stop-color="#0D2333"/>
</linearGradient>
<linearGradient id="paint7_linear_156_2633" x1="37.0155" y1="477.509" x2="37.0155" y2="668.478" gradientUnits="userSpaceOnUse">
<stop stop-color="#0D2333"/>
<stop offset="0.14" stop-color="#0D2333"/>
<stop offset="1" stop-color="#0D2333"/>
</linearGradient>
<linearGradient id="paint8_linear_156_2633" x1="221.988" y1="572.998" x2="221.988" y2="668.495" gradientUnits="userSpaceOnUse">
<stop stop-color="#0D2333"/>
<stop offset="0.02" stop-color="#0F2738"/>
<stop offset="0.13" stop-color="#183449"/>
<stop offset="0.27" stop-color="#1E3D54"/>
<stop offset="0.46" stop-color="#21435B"/>
<stop offset="1" stop-color="#22445D"/>
</linearGradient>
<linearGradient id="paint9_linear_156_2633" x1="370.018" y1="572.998" x2="370.018" y2="668.495" gradientUnits="userSpaceOnUse">
<stop stop-color="#0D2333"/>
<stop offset="0.02" stop-color="#0F2738"/>
<stop offset="0.13" stop-color="#183449"/>
<stop offset="0.27" stop-color="#1E3D54"/>
<stop offset="0.46" stop-color="#21435B"/>
<stop offset="1" stop-color="#22445D"/>
</linearGradient>
<linearGradient id="paint10_linear_156_2633" x1="296.02" y1="95.5051" x2="296.02" y2="191.002" gradientUnits="userSpaceOnUse">
<stop stop-color="#005484"/>
<stop offset="0.02" stop-color="#0F2738"/>
<stop offset="0.13" stop-color="#0E4C7A"/>
<stop offset="0.27" stop-color="#0D4A77"/>
<stop offset="0.46" stop-color="#114D77"/>
<stop offset="1" stop-color="#01355B"/>
</linearGradient>
<linearGradient id="paint11_linear_156_2633" x1="147.65" y1="286.681" x2="147.65" y2="382.178" gradientUnits="userSpaceOnUse">
<stop stop-color="#0D2333"/>
<stop offset="0.04" stop-color="#394B58"/>
<stop offset="0.08" stop-color="#62707B"/>
<stop offset="0.13" stop-color="#88939B"/>
<stop offset="0.19" stop-color="#A8B0B6"/>
<stop offset="0.25" stop-color="#C4C9CD"/>
<stop offset="0.31" stop-color="#DADDDF"/>
<stop offset="0.39" stop-color="#EBECEE"/>
<stop offset="0.49" stop-color="#F6F7F8"/>
<stop offset="0.62" stop-color="#FDFDFD"/>
<stop offset="1" stop-color="white"/>
</linearGradient>
<linearGradient id="paint12_linear_156_2633" x1="346.576" y1="386.454" x2="499.835" y2="496.278" gradientUnits="userSpaceOnUse">
<stop offset="0.37" stop-color="#0D2333"/>
<stop offset="0.4" stop-color="#394B58"/>
<stop offset="0.43" stop-color="#62707B"/>
<stop offset="0.46" stop-color="#88939B"/>
<stop offset="0.49" stop-color="#A8B0B6"/>
<stop offset="0.53" stop-color="#C4C9CD"/>
<stop offset="0.57" stop-color="#DADDDF"/>
<stop offset="0.62" stop-color="#EBECEE"/>
<stop offset="0.68" stop-color="#F6F7F8"/>
<stop offset="0.76" stop-color="#FDFDFD"/>
<stop offset="1" stop-color="white"/>
</linearGradient>
<linearGradient id="paint13_linear_156_2633" x1="370.027" y1="525.237" x2="518.008" y2="525.237" gradientUnits="userSpaceOnUse">
<stop offset="0.03" stop-color="#0D2333"/>
<stop offset="0.06" stop-color="#13323D"/>
<stop offset="0.12" stop-color="#1F5251"/>
<stop offset="0.19" stop-color="#2A6E63"/>
<stop offset="0.26" stop-color="#328571"/>
<stop offset="0.35" stop-color="#39967D"/>
<stop offset="0.46" stop-color="#3EA284"/>
<stop offset="0.62" stop-color="#40A989"/>
<stop offset="1" stop-color="#41AB8A"/>
</linearGradient>
</defs>
</svg>
