<svg width="128" height="128" viewBox="0 0 128 128" fill="none" xmlns="http://www.w3.org/2000/svg">
<rect x="0.765625" y="0.382599" width="126.869" height="126.869" rx="31.9274" fill="#F0F1FF"/>
<path fill-rule="evenodd" clip-rule="evenodd" d="M61.8072 51.8562C61.824 51.6373 62.0065 51.4683 62.226 51.4683H64.0824C64.2983 51.4683 64.479 51.6319 64.5005 51.8466L65.7754 64.5964L74.7534 69.7266C74.8843 69.8014 74.9651 69.9406 74.9651 70.0914V71.9232C74.9651 72.2002 74.7017 72.4014 74.4344 72.3285L60.8592 68.6261C60.6648 68.5731 60.5354 68.3895 60.5508 68.1886L61.8072 51.8562Z" fill="#2F327D"/>
<path fill-rule="evenodd" clip-rule="evenodd" d="M49.4102 34.1407C49.1883 33.8763 48.7598 33.9775 48.6798 34.3133L45.0269 49.6275C44.9616 49.9011 45.1785 50.1603 45.4593 50.1444L61.2132 49.2517C61.5585 49.2321 61.7336 48.8271 61.5113 48.5622L57.2399 43.4718C59.5337 42.688 61.9659 42.2787 64.4634 42.2787C76.7891 42.2787 86.7811 52.2706 86.7811 64.5963C86.7811 76.9221 76.7891 86.914 64.4634 86.914C52.1377 86.914 42.1457 76.9221 42.1457 64.5963C42.1457 62.5272 42.426 60.5006 42.9723 58.5528L37.9162 57.1345C37.2505 59.5077 36.8945 62.0105 36.8945 64.5963C36.8945 79.8222 49.2375 92.1652 64.4634 92.1652C79.6893 92.1652 92.0323 79.8222 92.0323 64.5963C92.0323 49.3705 79.6893 37.0275 64.4634 37.0275C60.6337 37.0275 56.9863 37.8084 53.6719 39.2196L49.4102 34.1407Z" fill="#2F327D"/>
</svg>
