<svg width="292" height="133" viewBox="0 0 292 133" fill="none" xmlns="http://www.w3.org/2000/svg">
<circle cx="288.963" cy="2.63884" r="2.17265" transform="rotate(90 288.963 2.63884)" fill="#29AAF3"/>
<circle cx="288.963" cy="34.5041" r="2.17265" transform="rotate(90 288.963 34.5041)" fill="#29AAF3"/>
<circle cx="288.963" cy="66.3696" r="2.17265" transform="rotate(90 288.963 66.3696)" fill="#29AAF3"/>
<circle cx="288.963" cy="98.2352" r="2.17265" transform="rotate(90 288.963 98.2352)" fill="#29AAF3"/>
<circle cx="288.963" cy="130.101" r="2.17265" transform="rotate(90 288.963 130.101)" fill="#29AAF3"/>
<circle cx="257.098" cy="2.63847" r="2.17265" transform="rotate(90 257.098 2.63847)" fill="#29AAF3"/>
<circle cx="257.098" cy="34.5041" r="2.17265" transform="rotate(90 257.098 34.5041)" fill="#29AAF3"/>
<circle cx="257.098" cy="66.3696" r="2.17265" transform="rotate(90 257.098 66.3696)" fill="#29AAF3"/>
<circle cx="257.098" cy="98.2352" r="2.17265" transform="rotate(90 257.098 98.2352)" fill="#29AAF3"/>
<circle cx="257.098" cy="130.101" r="2.17265" transform="rotate(90 257.098 130.101)" fill="#29AAF3"/>
<circle cx="225.232" cy="2.63847" r="2.17265" transform="rotate(90 225.232 2.63847)" fill="#29AAF3"/>
<circle cx="225.232" cy="34.5041" r="2.17265" transform="rotate(90 225.232 34.5041)" fill="#29AAF3"/>
<circle cx="225.232" cy="66.3696" r="2.17265" transform="rotate(90 225.232 66.3696)" fill="#29AAF3"/>
<circle cx="225.232" cy="98.2352" r="2.17265" transform="rotate(90 225.232 98.2352)" fill="#29AAF3"/>
<circle cx="225.232" cy="130.101" r="2.17265" transform="rotate(90 225.232 130.101)" fill="#29AAF3"/>
<circle cx="193.366" cy="2.63847" r="2.17265" transform="rotate(90 193.366 2.63847)" fill="#29AAF3"/>
<circle cx="193.366" cy="34.5041" r="2.17265" transform="rotate(90 193.366 34.5041)" fill="#29AAF3"/>
<circle cx="193.366" cy="66.3696" r="2.17265" transform="rotate(90 193.366 66.3696)" fill="#29AAF3"/>
<circle cx="193.366" cy="98.2352" r="2.17265" transform="rotate(90 193.366 98.2352)" fill="#29AAF3"/>
<circle cx="193.366" cy="130.101" r="2.17265" transform="rotate(90 193.366 130.101)" fill="#29AAF3"/>
<circle cx="161.501" cy="2.63847" r="2.17265" transform="rotate(90 161.501 2.63847)" fill="#29AAF3"/>
<circle cx="161.501" cy="34.5041" r="2.17265" transform="rotate(90 161.501 34.5041)" fill="#29AAF3"/>
<circle cx="161.501" cy="66.3696" r="2.17265" transform="rotate(90 161.501 66.3696)" fill="#29AAF3"/>
<circle cx="161.501" cy="98.2352" r="2.17265" transform="rotate(90 161.501 98.2352)" fill="#29AAF3"/>
<circle cx="161.501" cy="130.101" r="2.17265" transform="rotate(90 161.501 130.101)" fill="#29AAF3"/>
<circle cx="129.635" cy="2.63847" r="2.17265" transform="rotate(90 129.635 2.63847)" fill="#29AAF3"/>
<circle cx="129.635" cy="34.5041" r="2.17265" transform="rotate(90 129.635 34.5041)" fill="#29AAF3"/>
<circle cx="129.635" cy="66.3696" r="2.17265" transform="rotate(90 129.635 66.3696)" fill="#29AAF3"/>
<circle cx="129.635" cy="98.2352" r="2.17265" transform="rotate(90 129.635 98.2352)" fill="#29AAF3"/>
<circle cx="129.635" cy="130.101" r="2.17265" transform="rotate(90 129.635 130.101)" fill="#29AAF3"/>
<circle cx="97.7697" cy="2.63847" r="2.17265" transform="rotate(90 97.7697 2.63847)" fill="#29AAF3"/>
<circle cx="97.7697" cy="34.5041" r="2.17265" transform="rotate(90 97.7697 34.5041)" fill="#29AAF3"/>
<circle cx="97.7697" cy="66.3696" r="2.17265" transform="rotate(90 97.7697 66.3696)" fill="#29AAF3"/>
<circle cx="97.7697" cy="98.2352" r="2.17265" transform="rotate(90 97.7697 98.2352)" fill="#29AAF3"/>
<circle cx="97.7697" cy="130.101" r="2.17265" transform="rotate(90 97.7697 130.101)" fill="#29AAF3"/>
<circle cx="65.904" cy="2.63847" r="2.17265" transform="rotate(90 65.904 2.63847)" fill="#29AAF3"/>
<circle cx="65.904" cy="34.5041" r="2.17265" transform="rotate(90 65.904 34.5041)" fill="#29AAF3"/>
<circle cx="65.904" cy="66.3696" r="2.17265" transform="rotate(90 65.904 66.3696)" fill="#29AAF3"/>
<circle cx="65.904" cy="98.2352" r="2.17265" transform="rotate(90 65.904 98.2352)" fill="#29AAF3"/>
<circle cx="65.904" cy="130.101" r="2.17265" transform="rotate(90 65.904 130.101)" fill="#29AAF3"/>
<circle cx="34.0383" cy="2.63847" r="2.17265" transform="rotate(90 34.0383 2.63847)" fill="#29AAF3"/>
<circle cx="34.0383" cy="34.5041" r="2.17265" transform="rotate(90 34.0383 34.5041)" fill="#29AAF3"/>
<circle cx="34.0383" cy="66.3696" r="2.17265" transform="rotate(90 34.0383 66.3696)" fill="#29AAF3"/>
<circle cx="34.0383" cy="98.2352" r="2.17265" transform="rotate(90 34.0383 98.2352)" fill="#29AAF3"/>
<circle cx="34.0383" cy="130.101" r="2.17265" transform="rotate(90 34.0383 130.101)" fill="#29AAF3"/>
<circle cx="2.17305" cy="2.63847" r="2.17265" transform="rotate(90 2.17305 2.63847)" fill="#29AAF3"/>
<circle cx="2.17305" cy="34.5041" r="2.17265" transform="rotate(90 2.17305 34.5041)" fill="#29AAF3"/>
<circle cx="2.17305" cy="66.3697" r="2.17265" transform="rotate(90 2.17305 66.3697)" fill="#29AAF3"/>
<circle cx="2.17305" cy="98.2352" r="2.17265" transform="rotate(90 2.17305 98.2352)" fill="#29AAF3"/>
<circle cx="2.17305" cy="130.101" r="2.17265" transform="rotate(90 2.17305 130.101)" fill="#29AAF3"/>
</svg>
