<svg width="37" height="37" viewBox="0 0 37 37" fill="none" xmlns="http://www.w3.org/2000/svg">
<g clip-path="url(#clip0_79_297)">
<path d="M34.5494 36.836C35.6542 36.836 36.5501 35.9402 36.5501 34.8353V2.58653C36.5501 1.48148 35.6542 0.585846 34.5494 0.585846H2.3008C1.1956 0.585846 0.30011 1.48148 0.30011 2.58653V34.8353C0.30011 35.9402 1.1956 36.836 2.3008 36.836H34.5494Z" fill="#395185"/>
<path d="M25.3119 36.836V22.798H30.024L30.7294 17.3273H25.3119V13.8342C25.3119 12.2503 25.7518 11.1708 28.0233 11.1708L30.9203 11.1696V6.27653C30.419 6.20983 28.6994 6.06087 26.6989 6.06087C22.5219 6.06087 19.6624 8.6104 19.6624 13.2926V17.3273H14.9383V22.798H19.6624V36.836H25.3119Z" fill="white"/>
</g>
<defs>
<clipPath id="clip0_79_297">
<rect width="36.25" height="36.25" fill="white" transform="translate(0.30011 0.585846)"/>
</clipPath>
</defs>
</svg>
