<svg width="37" height="37" viewBox="0 0 37 37" fill="none" xmlns="http://www.w3.org/2000/svg">
<path d="M33.0355 15.7527H31.8189V15.69H18.2251V21.7317H26.7613C25.5159 25.2487 22.1696 27.7733 18.2251 27.7733C13.2204 27.7733 9.16264 23.7156 9.16264 18.7108C9.16264 13.7061 13.2204 9.64834 18.2251 9.64834C20.5353 9.64834 22.6371 10.5199 24.2374 11.9434L28.5096 7.67121C25.812 5.15712 22.2036 3.60667 18.2251 3.60667C9.88386 3.60667 3.12097 10.3696 3.12097 18.7108C3.12097 27.0521 9.88386 33.815 18.2251 33.815C26.5664 33.815 33.3293 27.0521 33.3293 18.7108C33.3293 17.6981 33.2251 16.7095 33.0355 15.7527Z" fill="#FFC107"/>
<path d="M4.86243 11.6806L9.8249 15.32C11.1677 11.9955 14.4196 9.64834 18.2251 9.64834C20.5353 9.64834 22.637 10.5199 24.2373 11.9434L28.5095 7.67121C25.8119 5.15712 22.2035 3.60667 18.2251 3.60667C12.4236 3.60667 7.39237 6.88201 4.86243 11.6806Z" fill="#FF3D00"/>
<path d="M18.225 33.815C22.1265 33.815 25.6714 32.322 28.3516 29.894L23.6769 25.9382C22.1095 27.1302 20.1942 27.7749 18.225 27.7733C14.2965 27.7733 10.9607 25.2683 9.70403 21.7725L4.77856 25.5674C7.2783 30.4589 12.3548 33.815 18.225 33.815Z" fill="#4CAF50"/>
<path d="M33.0355 15.7527H31.8188V15.69H18.2251V21.7317H26.7612C26.1655 23.4055 25.0925 24.8682 23.6747 25.9389L23.6769 25.9374L28.3517 29.8932C28.0209 30.1938 33.3293 26.2629 33.3293 18.7109C33.3293 17.6981 33.225 16.7095 33.0355 15.7527Z" fill="#1976D2"/>
</svg>
