<svg width="201" height="28" viewBox="0 0 201 28" fill="none" xmlns="http://www.w3.org/2000/svg">
<rect x="0.0996094" y="0.859428" width="200.502" height="3.1995" rx="1.59975" fill="#DFDFDF"/>
<rect x="0.0996094" y="0.859428" width="170.64" height="3.1995" rx="1.59975" fill="#2F327D"/>
<path d="M89.8887 24.0889V23.0548L92.6322 20.3654C92.8946 20.1004 93.1132 19.865 93.2881 19.6592C93.4631 19.4534 93.5943 19.2541 93.6817 19.0612C93.7692 18.8682 93.8129 18.6624 93.8129 18.4438C93.8129 18.1943 93.7563 17.9807 93.6431 17.8033C93.5299 17.6232 93.3743 17.4843 93.1762 17.3865C92.9782 17.2888 92.7531 17.2399 92.501 17.2399C92.2412 17.2399 92.0135 17.2939 91.818 17.402C91.6225 17.5074 91.4707 17.6579 91.3627 17.8534C91.2572 18.0489 91.2045 18.2817 91.2045 18.5518H89.8424C89.8424 18.0502 89.9569 17.6142 90.1858 17.2438C90.4148 16.8733 90.7299 16.5865 91.1312 16.3833C91.535 16.1801 91.9981 16.0785 92.5203 16.0785C93.0502 16.0785 93.5158 16.1775 93.9171 16.3756C94.3184 16.5736 94.6296 16.845 94.8509 17.1897C95.0747 17.5344 95.1866 17.928 95.1866 18.3705C95.1866 18.6663 95.13 18.957 95.0168 19.2425C94.9036 19.528 94.7042 19.8445 94.4187 20.1917C94.1357 20.539 93.7383 20.9596 93.2264 21.4535L91.8643 22.8387V22.8927H95.3062V24.0889H89.8887ZM99.5584 24.2394C98.923 24.2394 98.3776 24.0786 97.9223 23.7571C97.4696 23.433 97.121 22.9661 96.8766 22.3564C96.6348 21.7442 96.5139 21.0072 96.5139 20.1454C96.5165 19.2837 96.6387 18.5505 96.8805 17.946C97.1249 17.3389 97.4734 16.8759 97.9262 16.5569C98.3815 16.2379 98.9256 16.0785 99.5584 16.0785C100.191 16.0785 100.735 16.2379 101.191 16.5569C101.646 16.8759 101.994 17.3389 102.236 17.946C102.481 18.5531 102.603 19.2862 102.603 20.1454C102.603 21.0097 102.481 21.748 102.236 22.3603C101.994 22.9699 101.646 23.4355 101.191 23.7571C100.738 24.0786 100.194 24.2394 99.5584 24.2394ZM99.5584 23.0317C100.052 23.0317 100.442 22.7886 100.728 22.3024C101.016 21.8136 101.16 21.0946 101.16 20.1454C101.16 19.5178 101.094 18.9904 100.963 18.5634C100.832 18.1364 100.646 17.8148 100.407 17.5987C100.168 17.3801 99.8851 17.2708 99.5584 17.2708C99.067 17.2708 98.6786 17.5151 98.3931 18.0039C98.1075 18.4901 97.9635 19.2039 97.9609 20.1454C97.9583 20.7757 98.0214 21.3056 98.15 21.7352C98.2812 22.1648 98.4664 22.4889 98.7056 22.7075C98.9448 22.9236 99.2291 23.0317 99.5584 23.0317ZM108.11 22.6072V22.1905C108.11 21.8844 108.174 21.6027 108.303 21.3454C108.434 21.0882 108.624 20.8811 108.874 20.7242C109.124 20.5673 109.426 20.4888 109.781 20.4888C110.146 20.4888 110.452 20.5673 110.699 20.7242C110.946 20.8786 111.133 21.0843 111.259 21.3416C111.387 21.5988 111.452 21.8818 111.452 22.1905V22.6072C111.452 22.9133 111.387 23.195 111.259 23.4522C111.13 23.7095 110.941 23.9166 110.691 24.0735C110.444 24.2304 110.141 24.3089 109.781 24.3089C109.421 24.3089 109.116 24.2304 108.866 24.0735C108.617 23.9166 108.428 23.7095 108.299 23.4522C108.173 23.195 108.11 22.9133 108.11 22.6072ZM109.117 22.1905V22.6072C109.117 22.8104 109.166 22.9969 109.264 23.1667C109.361 23.3365 109.534 23.4214 109.781 23.4214C110.03 23.4214 110.201 23.3378 110.294 23.1706C110.389 23.0008 110.437 22.813 110.437 22.6072V22.1905C110.437 21.9847 110.392 21.7969 110.302 21.6271C110.212 21.4548 110.038 21.3686 109.781 21.3686C109.539 21.3686 109.368 21.4548 109.268 21.6271C109.167 21.7969 109.117 21.9847 109.117 22.1905ZM104.093 18.0849V17.6682C104.093 17.3595 104.159 17.0766 104.29 16.8193C104.421 16.5621 104.612 16.3563 104.861 16.2019C105.111 16.045 105.413 15.9666 105.768 15.9666C106.131 15.9666 106.435 16.045 106.682 16.2019C106.932 16.3563 107.12 16.5621 107.246 16.8193C107.372 17.0766 107.435 17.3595 107.435 17.6682V18.0849C107.435 18.3936 107.37 18.6766 107.242 18.9338C107.116 19.1885 106.928 19.393 106.678 19.5473C106.429 19.7017 106.125 19.7789 105.768 19.7789C105.405 19.7789 105.099 19.7017 104.849 19.5473C104.603 19.393 104.415 19.1872 104.286 18.93C104.157 18.6727 104.093 18.391 104.093 18.0849ZM105.108 17.6682V18.0849C105.108 18.2907 105.156 18.4785 105.251 18.6483C105.349 18.8155 105.521 18.8991 105.768 18.8991C106.015 18.8991 106.185 18.8155 106.277 18.6483C106.372 18.4785 106.42 18.2907 106.42 18.0849V17.6682C106.42 17.4624 106.375 17.2746 106.285 17.1048C106.195 16.9325 106.022 16.8463 105.768 16.8463C105.523 16.8463 105.352 16.9325 105.255 17.1048C105.157 17.2772 105.108 17.465 105.108 17.6682ZM104.533 24.0889L109.966 16.1865H110.931L105.498 24.0889H104.533Z" fill="#7F7F7F"/>
</svg>
