<svg width="112" height="87" viewBox="0 0 112 87" fill="none" xmlns="http://www.w3.org/2000/svg">
<rect width="112" height="87" fill="#2F327D"/>
<path d="M72 41.4379C72 46.5029 70.549 50.2082 67.6471 52.5537C64.7451 54.8993 60.3151 56.0724 54.3572 56.073H50.1991C50.0408 56.073 49.8841 56.1048 49.7379 56.1664C49.5917 56.2281 49.4589 56.3184 49.3471 56.4323C49.2352 56.5462 49.1465 56.6814 49.0861 56.8302C49.0256 56.979 48.9945 57.1384 48.9947 57.2994V66.2866C48.9945 66.6111 48.8678 66.9223 48.6424 67.1519C48.4169 67.3814 48.1112 67.5106 47.7922 67.511H41.2044C40.885 67.511 40.5786 67.3819 40.3528 67.1521C40.1269 66.9223 40 66.6106 40 66.2856V61.2572C40.0641 51.1387 41.3421 42.1611 60.5339 42.1611C50.7603 42.1611 42.4357 40.8589 40.4518 26.7871C40.6641 26.6096 40.9301 26.512 41.2049 26.511H54.2413C60.429 26.511 64.9358 27.733 67.7619 30.177C70.588 32.621 72.0007 36.3746 72 41.4379Z" fill="white"/>
</svg>
