<svg width="146" height="321" viewBox="0 0 146 321" fill="none" xmlns="http://www.w3.org/2000/svg">
<circle cx="2.4492" cy="2.4003" r="2.39549" fill="#7854F7"/>
<circle cx="37.5827" cy="2.40022" r="2.39549" fill="#7854F7"/>
<circle cx="72.7168" cy="2.40022" r="2.39549" fill="#7854F7"/>
<circle cx="107.851" cy="2.40022" r="2.39549" fill="#7854F7"/>
<circle cx="142.984" cy="2.40022" r="2.39549" fill="#7854F7"/>
<circle cx="2.4492" cy="37.534" r="2.39549" fill="#7854F7"/>
<circle cx="37.5827" cy="37.534" r="2.39549" fill="#7854F7"/>
<circle cx="72.7168" cy="37.534" r="2.39549" fill="#7854F7"/>
<circle cx="107.851" cy="37.534" r="2.39549" fill="#7854F7"/>
<circle cx="142.984" cy="37.534" r="2.39549" fill="#7854F7"/>
<circle cx="2.4492" cy="72.6679" r="2.39549" fill="#7854F7"/>
<circle cx="37.5827" cy="72.6679" r="2.39549" fill="#7854F7"/>
<circle cx="72.7168" cy="72.6679" r="2.39549" fill="#7854F7"/>
<circle cx="107.851" cy="72.6679" r="2.39549" fill="#7854F7"/>
<circle cx="142.984" cy="72.6679" r="2.39549" fill="#7854F7"/>
<circle cx="2.4492" cy="107.802" r="2.39549" fill="#7854F7"/>
<circle cx="37.5827" cy="107.802" r="2.39549" fill="#7854F7"/>
<circle cx="72.7168" cy="107.802" r="2.39549" fill="#7854F7"/>
<circle cx="107.851" cy="107.802" r="2.39549" fill="#7854F7"/>
<circle cx="142.984" cy="107.802" r="2.39549" fill="#7854F7"/>
<circle cx="2.4492" cy="142.935" r="2.39549" fill="#7854F7"/>
<circle cx="37.5827" cy="142.935" r="2.39549" fill="#7854F7"/>
<circle cx="72.7168" cy="142.935" r="2.39549" fill="#7854F7"/>
<circle cx="107.851" cy="142.935" r="2.39549" fill="#7854F7"/>
<circle cx="142.984" cy="142.935" r="2.39549" fill="#7854F7"/>
<circle cx="2.4492" cy="178.069" r="2.39549" fill="#7854F7"/>
<circle cx="37.5827" cy="178.069" r="2.39549" fill="#7854F7"/>
<circle cx="72.7168" cy="178.069" r="2.39549" fill="#7854F7"/>
<circle cx="107.851" cy="178.069" r="2.39549" fill="#7854F7"/>
<circle cx="142.984" cy="178.069" r="2.39549" fill="#7854F7"/>
<circle cx="2.4492" cy="213.203" r="2.39549" fill="#7854F7"/>
<circle cx="37.5827" cy="213.203" r="2.39549" fill="#7854F7"/>
<circle cx="72.7168" cy="213.203" r="2.39549" fill="#7854F7"/>
<circle cx="107.851" cy="213.203" r="2.39549" fill="#7854F7"/>
<circle cx="142.984" cy="213.203" r="2.39549" fill="#7854F7"/>
<circle cx="2.4492" cy="248.337" r="2.39549" fill="#7854F7"/>
<circle cx="37.5827" cy="248.337" r="2.39549" fill="#7854F7"/>
<circle cx="72.7168" cy="248.337" r="2.39549" fill="#7854F7"/>
<circle cx="107.851" cy="248.337" r="2.39549" fill="#7854F7"/>
<circle cx="142.984" cy="248.337" r="2.39549" fill="#7854F7"/>
<circle cx="2.4492" cy="283.471" r="2.39549" fill="#7854F7"/>
<circle cx="37.5827" cy="283.471" r="2.39549" fill="#7854F7"/>
<circle cx="72.7168" cy="283.471" r="2.39549" fill="#7854F7"/>
<circle cx="107.851" cy="283.471" r="2.39549" fill="#7854F7"/>
<circle cx="142.984" cy="283.471" r="2.39549" fill="#7854F7"/>
<circle cx="2.4492" cy="318.605" r="2.39549" fill="#7854F7"/>
<circle cx="37.5827" cy="318.605" r="2.39549" fill="#7854F7"/>
<circle cx="72.7168" cy="318.605" r="2.39549" fill="#7854F7"/>
<circle cx="107.851" cy="318.605" r="2.39549" fill="#7854F7"/>
<circle cx="142.984" cy="318.605" r="2.39549" fill="#7854F7"/>
</svg>
